<?xml version="1.0" encoding="UTF-8" standalone="no"?>
<!-- Created with Inkscape (http://www.inkscape.org/) -->

<svg
   xmlns:dc="http://purl.org/dc/elements/1.1/"
   xmlns:cc="http://creativecommons.org/ns#"
   xmlns:rdf="http://www.w3.org/1999/02/22-rdf-syntax-ns#"
   xmlns:svg="http://www.w3.org/2000/svg"
   xmlns="http://www.w3.org/2000/svg"
   xmlns:xlink="http://www.w3.org/1999/xlink"
   xmlns:sodipodi="http://sodipodi.sourceforge.net/DTD/sodipodi-0.dtd"
   xmlns:inkscape="http://www.inkscape.org/namespaces/inkscape"
   version="1.0"
   width="96"
   height="96"
   id="svg2408"
   inkscape:version="0.48.4 r9939"
   sodipodi:docname="hicolor_categories_scalable_cs-date-time.svg">
  <metadata
     id="metadata132">
    <rdf:RDF>
      <cc:Work
         rdf:about="">
        <dc:format>image/svg+xml</dc:format>
        <dc:type
           rdf:resource="http://purl.org/dc/dcmitype/StillImage" />
      </cc:Work>
    </rdf:RDF>
  </metadata>
  <sodipodi:namedview
     pagecolor="#ffffff"
     bordercolor="#666666"
     borderopacity="1"
     objecttolerance="10"
     gridtolerance="10"
     guidetolerance="10"
     inkscape:pageopacity="0"
     inkscape:pageshadow="2"
     inkscape:window-width="1920"
     inkscape:window-height="1024"
     id="namedview130"
     showgrid="false"
     inkscape:snap-object-midpoints="true"
     inkscape:snap-center="true"
     inkscape:zoom="1"
     inkscape:cx="-466.68913"
     inkscape:cy="8.5456944"
     inkscape:window-x="0"
     inkscape:window-y="0"
     inkscape:window-maximized="1"
     inkscape:current-layer="layer3" />
  <defs
     id="defs2410">
    <linearGradient
       id="linearGradient3741">
      <stop
         id="stop3743"
         style="stop-color:#1a1a1a;stop-opacity:1"
         offset="0" />
      <stop
         id="stop3749"
         style="stop-color:#0f0f0f;stop-opacity:1"
         offset="0.85000002" />
      <stop
         id="stop3745"
         style="stop-color:#000000;stop-opacity:1"
         offset="1" />
    </linearGradient>
    <linearGradient
       id="linearGradient3703">
      <stop
         id="stop3705"
         style="stop-color:#1a1a1a;stop-opacity:1"
         offset="0" />
      <stop
         id="stop3711"
         style="stop-color:#1e1e1e;stop-opacity:1"
         offset="0.34999999" />
      <stop
         id="stop3707"
         style="stop-color:#0a0a0a;stop-opacity:1"
         offset="1" />
    </linearGradient>
    <linearGradient
       id="linearGradient3224">
      <stop
         id="stop3226"
         style="stop-color:#333333;stop-opacity:1;"
         offset="0" />
      <stop
         id="stop3228"
         style="stop-color:#464646;stop-opacity:1"
         offset="1" />
    </linearGradient>
    <linearGradient
       id="linearGradient3465">
      <stop
         id="stop3467"
         style="stop-color:#919191;stop-opacity:1"
         offset="0" />
      <stop
         id="stop3469"
         style="stop-color:#fdfdfd;stop-opacity:1"
         offset="1" />
    </linearGradient>
    <linearGradient
       id="linearGradient3187">
      <stop
         id="stop3189"
         style="stop-color:#b4b4b4;stop-opacity:1"
         offset="0" />
      <stop
         id="stop3191"
         style="stop-color:#e6e6e6;stop-opacity:1"
         offset="1" />
    </linearGradient>
    <linearGradient
       x1="45.447727"
       y1="92.539597"
       x2="45.447727"
       y2="7.0165396"
       id="ButtonShadow"
       gradientUnits="userSpaceOnUse"
       gradientTransform="scale(1.0058652,0.994169)">
      <stop
         id="stop3750"
         style="stop-color:#000000;stop-opacity:1"
         offset="0" />
      <stop
         id="stop3752"
         style="stop-color:#000000;stop-opacity:0.58823532"
         offset="1" />
    </linearGradient>
    <linearGradient
       id="linearGradient3737">
      <stop
         id="stop3739"
         style="stop-color:#ffffff;stop-opacity:1"
         offset="0" />
      <stop
         id="stop3741"
         style="stop-color:#ffffff;stop-opacity:0"
         offset="1" />
    </linearGradient>
    <filter
       color-interpolation-filters="sRGB"
       id="filter3174">
      <feGaussianBlur
         id="feGaussianBlur3176"
         stdDeviation="1.71" />
    </filter>
    <linearGradient
       x1="36.357143"
       y1="6"
       x2="36.357143"
       y2="63.893143"
       id="linearGradient3188"
       xlink:href="#linearGradient3737"
       gradientUnits="userSpaceOnUse" />
    <linearGradient
       x1="48"
       y1="90"
       x2="48"
       y2="5.9877172"
       id="linearGradient3427"
       xlink:href="#linearGradient3187"
       gradientUnits="userSpaceOnUse" />
    <linearGradient
       x1="43.17857"
       y1="13"
       x2="43.17857"
       y2="83.294571"
       id="linearGradient3279"
       xlink:href="#linearGradient3465"
       gradientUnits="userSpaceOnUse"
       gradientTransform="matrix(1.0294118,0,0,1.0294118,-1.4117647,-1.411765)" />
    <linearGradient
       id="linearGradient3737-7">
      <stop
         id="stop3739-2"
         style="stop-color:#ffffff;stop-opacity:1"
         offset="0" />
      <stop
         id="stop3741-7"
         style="stop-color:#ffffff;stop-opacity:0"
         offset="1" />
    </linearGradient>
    <radialGradient
       cx="48"
       cy="90.171875"
       r="42"
       fx="48"
       fy="90.171875"
       id="radialGradient2874"
       xlink:href="#linearGradient3737-7"
       gradientUnits="userSpaceOnUse"
       gradientTransform="matrix(1.1573129,0,0,0.99590774,-7.551021,0.1971319)" />
    <linearGradient
       id="linearGradient3737-4">
      <stop
         id="stop3739-8"
         style="stop-color:#ffffff;stop-opacity:1"
         offset="0" />
      <stop
         id="stop3741-71"
         style="stop-color:#ffffff;stop-opacity:0"
         offset="1" />
    </linearGradient>
    <clipPath
       id="clipPath3613">
      <rect
         width="84"
         height="84"
         rx="6"
         ry="6"
         x="6"
         y="6"
         id="rect3615"
         style="fill:#ffffff;fill-opacity:1;fill-rule:nonzero;stroke:none" />
    </clipPath>
    <filter
       x="-0.192"
       y="-0.192"
       width="1.3839999"
       height="1.3839999"
       color-interpolation-filters="sRGB"
       id="filter3794">
      <feGaussianBlur
         id="feGaussianBlur3796"
         stdDeviation="5.28" />
    </filter>
    <linearGradient
       x1="48"
       y1="20.220806"
       x2="48"
       y2="138.66119"
       id="linearGradient2908"
       xlink:href="#linearGradient3737-4"
       gradientUnits="userSpaceOnUse" />
    <linearGradient
       x1="39.285713"
       y1="19.75"
       x2="39.285713"
       y2="25.84864"
       id="linearGradient3709"
       xlink:href="#linearGradient3703"
       gradientUnits="userSpaceOnUse"
       spreadMethod="repeat" />
    <linearGradient
       x1="31.607143"
       y1="35.92857"
       x2="31.607143"
       y2="42.015106"
       id="linearGradient3719"
       xlink:href="#linearGradient3703"
       gradientUnits="userSpaceOnUse"
       spreadMethod="repeat" />
    <linearGradient
       x1="31.607143"
       y1="35.92857"
       x2="31.607143"
       y2="42.015106"
       id="linearGradient3723"
       xlink:href="#linearGradient3703"
       gradientUnits="userSpaceOnUse"
       gradientTransform="translate(30,28)"
       spreadMethod="repeat" />
    <linearGradient
       x1="61.785713"
       y1="36.035713"
       x2="61.785713"
       y2="48.041718"
       id="linearGradient3731"
       xlink:href="#linearGradient3703"
       gradientUnits="userSpaceOnUse"
       spreadMethod="repeat" />
    <radialGradient
       cx="32.410713"
       cy="65.73214"
       r="12.053572"
       fx="32.410713"
       fy="65.73214"
       id="radialGradient3747"
       xlink:href="#linearGradient3741"
       gradientUnits="userSpaceOnUse"
       gradientTransform="matrix(1.6595947,0,0,1.6595947,-6.3503036,-52.75303)" />
    <linearGradient
       x1="44.758911"
       y1="82.362946"
       x2="44.758911"
       y2="13.924098"
       id="linearGradient3895"
       xlink:href="#linearGradient3224"
       gradientUnits="userSpaceOnUse"
       gradientTransform="translate(0.90164185,0.48731995)" />
    <linearGradient
       x1="45.447727"
       y1="92.539597"
       x2="45.447727"
       y2="7.0165396"
       id="ButtonShadow-0"
       gradientUnits="userSpaceOnUse"
       gradientTransform="matrix(1.0058652,0,0,0.994169,100,0)">
      <stop
         id="stop3750-8"
         style="stop-color:#000000;stop-opacity:1"
         offset="0" />
      <stop
         id="stop3752-5"
         style="stop-color:#000000;stop-opacity:0.58823532"
         offset="1" />
    </linearGradient>
    <linearGradient
       x1="32.251034"
       y1="6.1317081"
       x2="32.251034"
       y2="90.238609"
       id="linearGradient3780"
       xlink:href="#ButtonShadow-0"
       gradientUnits="userSpaceOnUse"
       gradientTransform="matrix(1.0238095,0,0,1.0119048,-1.1428571,-98.071429)" />
    <linearGradient
       x1="32.251034"
       y1="6.1317081"
       x2="32.251034"
       y2="90.238609"
       id="linearGradient3772"
       xlink:href="#ButtonShadow-0"
       gradientUnits="userSpaceOnUse"
       gradientTransform="matrix(1.0238095,0,0,1.0119048,-1.1428571,-98.071429)" />
    <linearGradient
       x1="32.251034"
       y1="6.1317081"
       x2="32.251034"
       y2="90.238609"
       id="linearGradient3725"
       xlink:href="#ButtonShadow-0"
       gradientUnits="userSpaceOnUse"
       gradientTransform="matrix(1.0238095,0,0,1.0119048,-1.1428571,-98.071429)" />
    <linearGradient
       x1="32.251034"
       y1="6.1317081"
       x2="32.251034"
       y2="90.238609"
       id="linearGradient3721"
       xlink:href="#ButtonShadow-0"
       gradientUnits="userSpaceOnUse"
       gradientTransform="translate(0,-97)" />
    <linearGradient
       x1="32.251034"
       y1="6.1317081"
       x2="32.251034"
       y2="90.238609"
       id="linearGradient3173"
       xlink:href="#ButtonShadow-0"
       gradientUnits="userSpaceOnUse"
       gradientTransform="matrix(1.0238095,0,0,1.0119048,-1.1428571,-98.071429)" />
    <radialGradient
       inkscape:collect="always"
       xlink:href="#linearGradient3741"
       id="radialGradient3132"
       gradientUnits="userSpaceOnUse"
       gradientTransform="matrix(1.6595947,0,0,1.6595947,-6.3503036,-52.75303)"
       cx="32.410713"
       cy="65.73214"
       fx="32.410713"
       fy="65.73214"
       r="12.053572" />
    <linearGradient
       inkscape:collect="always"
       xlink:href="#ButtonShadow-0-0"
       id="linearGradient3772-9"
       gradientUnits="userSpaceOnUse"
       gradientTransform="matrix(1.0238095,0,0,1.0119048,-1.1428571,-98.071429)"
       x1="32.251034"
       y1="6.1317081"
       x2="32.251034"
       y2="90.238609" />
    <linearGradient
       id="ButtonShadow-0-0"
       gradientTransform="matrix(1.0058652,0,0,0.994169,100,0)"
       x1="45.447727"
       y1="92.539597"
       x2="45.447727"
       y2="7.0165396"
       gradientUnits="userSpaceOnUse">
      <stop
         style="stop-color:#000000;stop-opacity:1;"
         offset="0"
         id="stop3750-8-0" />
      <stop
         style="stop-color:#000000;stop-opacity:0.58823532;"
         offset="1"
         id="stop3752-5-2" />
    </linearGradient>
    <linearGradient
       y2="5.9877"
       x2="48"
       y1="90"
       x1="48"
       gradientUnits="userSpaceOnUse"
       id="linearGradient5229"
       xlink:href="#h-1-7"
       inkscape:collect="always"
       gradientTransform="translate(-0.90163609,0.51268202)" />
    <linearGradient
       x1="48"
       y1="90"
       x2="48"
       gradientUnits="userSpaceOnUse"
       y2="5.9877"
       id="h-1-7"
       gradientTransform="translate(12.275993,8.6489951)">
      <stop
         id="stop36-8"
         offset="0"
         stop-color="#b4b4b4" />
      <stop
         id="stop38-8"
         offset="1"
         stop-color="#e6e6e6" />
    </linearGradient>
    <linearGradient
       inkscape:collect="always"
       xlink:href="#ButtonShadow-0-06"
       id="linearGradient3772-1"
       gradientUnits="userSpaceOnUse"
       gradientTransform="matrix(1.0238095,0,0,1.0119048,-1.1428571,-98.071429)"
       x1="32.251034"
       y1="6.1317081"
       x2="32.251034"
       y2="90.238609" />
    <linearGradient
       id="ButtonShadow-0-06"
       gradientTransform="matrix(1.0058652,0,0,0.994169,100,0)"
       x1="45.447727"
       y1="92.539597"
       x2="45.447727"
       y2="7.0165396"
       gradientUnits="userSpaceOnUse">
      <stop
         style="stop-color:#000000;stop-opacity:1;"
         offset="0"
         id="stop3750-8-1" />
      <stop
         style="stop-color:#000000;stop-opacity:0.58823532;"
         offset="1"
         id="stop3752-5-1" />
    </linearGradient>
    <linearGradient
       y2="90.238609"
       x2="32.251034"
       y1="6.1317081"
       x1="32.251034"
       gradientTransform="matrix(1.0238095,0,0,1.0119048,-1.1428571,-98.071429)"
       gradientUnits="userSpaceOnUse"
       id="linearGradient3728"
       xlink:href="#ButtonShadow-0-06"
       inkscape:collect="always" />
    <linearGradient
       y2="63.893143"
       x2="36.357143"
       y1="6"
       x1="36.357143"
       gradientUnits="userSpaceOnUse"
       id="linearGradient3822"
       xlink:href="#linearGradient3737-8-0"
       inkscape:collect="always"
       gradientTransform="translate(-4.9999997e-8,0.171875)" />
    <linearGradient
       id="linearGradient3737-8-0">
      <stop
         offset="0"
         style="stop-color:#ffffff;stop-opacity:1"
         id="stop3739-1-3" />
      <stop
         offset="1"
         style="stop-color:#ffffff;stop-opacity:0"
         id="stop3741-8-4" />
    </linearGradient>
    <linearGradient
       y2="63.893143"
       x2="36.357143"
       y1="6"
       x1="36.357143"
       gradientTransform="translate(-0.9016373,0.68455605)"
       gradientUnits="userSpaceOnUse"
       id="linearGradient3745"
       xlink:href="#linearGradient3737-8-0"
       inkscape:collect="always" />
  </defs>
  <g
     id="layer2"
     style="display:none">
    <rect
       width="86"
       height="85"
       rx="6"
       ry="6"
       x="5"
       y="7"
       id="rect3745"
       style="opacity:0.9;fill:url(#ButtonShadow);fill-opacity:1;fill-rule:nonzero;stroke:none;filter:url(#filter3174)" />
  </g>
  <g
     id="layer3">
    <path
       sodipodi:type="inkscape:offset"
       inkscape:radius="0.98962283"
       inkscape:original="M 12 -92 C 8.122 -92 5 -88.878 5 -85 L 5 -14 C 5 -10.122 8.122 -7 12 -7 L 84 -7 C 87.878 -7 91 -10.122 91 -14 L 91 -85 C 91 -88.878 87.878 -92 84 -92 L 12 -92 z "
       style="opacity:0.2;fill:url(#linearGradient3728);fill-opacity:1;fill-rule:nonzero;stroke:none;display:inline;enable-background:new"
       id="path3770-1"
       d="m 12,-93 c -4.4091333,0 -8,3.590867 -8,8 l 0,71 c 0,4.4091333 3.5908667,8 8,8 l 72,0 c 4.409133,0 8,-3.5908667 8,-8 l 0,-71 c 0,-4.409133 -3.590867,-8 -8,-8 l -72,0 z"
       transform="matrix(1,0,0,-1,-0.5,0.59987374)" />
    <rect
       width="77.914963"
       height="78.516495"
       rx="5.8527675"
       ry="6.1732869"
       x="9.0425186"
       y="8.7417526"
       id="rect3461"
       style="fill:url(#linearGradient3895);fill-opacity:1.0;stroke:none" />
    <rect
       width="56"
       height="12"
       rx="3"
       ry="3"
       x="20"
       y="20"
       id="rect3661"
       style="fill:url(#linearGradient3709);fill-opacity:1;stroke:none" />
    <path
       d="m 23,19 c -1.662,0 -3,1.338 -3,3 l 0,1 c 0,-1.662 1.338,-3 3,-3 l 50,0 c 1.662,0 3,1.338 3,3 l 0,-1 c 0,-1.662 -1.338,-3 -3,-3 l -50,0 z"
       id="rect3671"
       style="opacity:0.8;fill:#000000;fill-opacity:1;stroke:none" />
    <path
       d="m 20,29 0,1 c 0,1.662 1.338,3 3,3 l 50,0 c 1.662,0 3,-1.338 3,-3 l 0,-1 c 0,1.662 -1.338,3 -3,3 l -50,0 c -1.662,0 -3,-1.338 -3,-3 z"
       id="rect3676"
       style="opacity:0.3;fill:#ffffff;fill-opacity:1;stroke:none" />
    <g
       id="text3751"
       style="font-size:11.29931068px;font-style:normal;font-variant:normal;font-weight:bold;font-stretch:normal;text-align:start;line-height:125%;writing-mode:lr-tb;text-anchor:start;fill:#f2f2f2;fill-opacity:1;stroke:none;font-family:Liberation Sans;-inkscape-font-specification:Abandoned Bitplane Bold">
      <text
         xml:space="preserve"
         style="font-size:11px;font-style:normal;font-weight:normal;line-height:125%;letter-spacing:0px;word-spacing:0px;fill:#000000;fill-opacity:1;stroke:none;font-family:Sans"
         x="32.517822"
         y="29.635239"
         id="text3134"
         sodipodi:linespacing="125%"><tspan
           sodipodi:role="line"
           id="tspan3136"
           x="32.517822"
           y="29.635239"
           style="font-weight:bold;fill:#ffffff;-inkscape-font-specification:Sans Bold">2014</tspan></text>
    </g>
    <rect
       width="56"
       height="0.5"
       x="20"
       y="25.5"
       id="rect3755"
       style="opacity:0.8;fill:#000000;fill-opacity:1;stroke:none" />
    <g
       id="g3109"
       transform="translate(0.5616535,-0.53033013)">
      <path
         inkscape:connector-curvature="0"
         style="fill:url(#radialGradient3132);fill-opacity:1;stroke:none"
         id="path3669"
         d="m 67.442389,56.335681 a 20.004044,20.004044 0 0 1 -40.008088,0 20.004044,20.004044 0 1 1 40.008088,0 z" />
      <path
         inkscape:connector-curvature="0"
         style="opacity:0.6;fill:#000000;fill-opacity:1;stroke:none"
         id="path3693"
         d="m 47.438345,34.664633 c -11.047928,0 -20.004044,8.956115 -20.004044,20.004043 0,0.283443 0.04042,0.55293 0.05209,0.833503 0.443359,-10.655502 9.187465,-19.170542 19.951949,-19.170542 10.764487,0 19.50859,8.51504 19.951951,19.170542 0.01167,-0.280573 0.05209,-0.55006 0.05209,-0.833503 0,-11.047928 -8.956116,-20.004043 -20.004045,-20.004043 z" />
      <path
         inkscape:connector-curvature="0"
         style="opacity:0.3;fill:#ffffff;fill-opacity:1;stroke:none"
         id="path3698"
         d="m 27.486394,57.169182 c -0.01167,0.280573 -0.05209,0.55006 -0.05209,0.833502 0,11.047929 8.956117,20.004044 20.004044,20.004044 11.047929,0 20.004044,-8.956115 20.004044,-20.004044 0,-0.283442 -0.04042,-0.552929 -0.05209,-0.833502 -0.443359,10.655504 -9.187464,19.170541 -19.951949,19.170541 -10.764486,0 -19.50859,-8.515037 -19.951951,-19.170541 z" />
      <rect
         style="fill:#d40000;fill-opacity:1;stroke:none"
         id="rect3844"
         transform="matrix(-0.96592583,0.25881905,-0.25881905,-0.96592583,0,0)"
         y="-85.031082"
         x="-32.074677"
         height="18.337038"
         width="1.6670036" />
      <path
         inkscape:connector-curvature="0"
         style="fill:#f2f2f2;fill-opacity:1;stroke:none"
         id="path3837"
         d="m 50.772352,56.335681 a 3.3340081,3.3340081 0 0 1 -6.668014,0 3.3340081,3.3340081 0 1 1 6.668014,0 z" />
      <path
         inkscape:connector-curvature="0"
         style="fill:#f2f2f2;fill-opacity:1;stroke:none"
         id="rect3839"
         d="m 37.350537,47.563494 1.352832,-1.352832 10.546293,8.3137 -3.622634,3.622637 -8.276491,-10.583505 z" />
      <path
         inkscape:connector-curvature="0"
         style="fill:#f2f2f2;fill-opacity:1;stroke:none"
         id="path3842"
         d="m 61.409878,47.195012 0.956597,1.656874 -13.647335,9.702198 -2.561591,-4.436808 15.252329,-6.922264 z" />
      <path
         inkscape:connector-curvature="0"
         style="fill:#000000;fill-opacity:1;stroke:none"
         id="path3846"
         d="m 49.088425,56.335681 a 1.6500797,1.6500797 0 0 1 -3.300157,0 1.6500797,1.6500797 0 1 1 3.300157,0 z" />
    </g>
    <path
       d="m 17,14 c -1.662,0 -3,1.338 -3,3 l 0,62 c 0,1.662 1.338,3 3,3 l 62,0 c 1.662,0 3,-1.338 3,-3 l 0,-62 c 0,-1.662 -1.338,-3 -3,-3 l -62,0 z m 0,1.9375 62,0 c 0.618163,0 1.0625,0.444337 1.0625,1.0625 l 0,62 c 0,0.618163 -0.444337,1.0625 -1.0625,1.0625 l -62,0 c -0.618163,0 -1.0625,-0.444337 -1.0625,-1.0625 l 0,-62 c 0,-0.618163 0.444337,-1.0625 1.0625,-1.0625 z"
       id="rect3981"
       style="opacity:0.3;color:#000000;fill:#000000;fill-opacity:1;fill-rule:nonzero;stroke:none;stroke-width:1;marker:none;visibility:visible;display:inline;overflow:visible;enable-background:accumulate" />
    <path
       d="m 17,14 c -1.662,0 -3,1.338 -3,3 l 0,62 c 0,1.662 1.338,3 3,3 l 62,0 c 1.662,0 3,-1.338 3,-3 l 0,-62 c 0,-1.662 -1.338,-3 -3,-3 l -62,0 z m 0,0.96875 62,0 c 1.140081,0 2.03125,0.891169 2.03125,2.03125 l 0,62 c 0,1.140081 -0.891169,2.03125 -2.03125,2.03125 l -62,0 c -1.140081,0 -2.03125,-0.891169 -2.03125,-2.03125 l 0,-62 c 0,-1.140081 0.891169,-2.03125 2.03125,-2.03125 z"
       id="rect3977"
       style="opacity:0.6;color:#000000;fill:#000000;fill-opacity:1;fill-rule:nonzero;stroke:none;stroke-width:1;marker:none;visibility:visible;display:inline;overflow:visible;enable-background:accumulate" />
    <path
       style="opacity:0.1;color:#000000;fill:#000000;fill-opacity:1;fill-rule:nonzero;stroke:none;stroke-width:1;marker:none;visibility:visible;display:inline;overflow:visible;enable-background:accumulate"
       d="m 16.098362,13.51268 c -1.662,0 -3,1.338 -3,3 l 0,62 c 0,1.662 1.338,3 3,3 l 62,0 c 1.662,0 3,-1.338 3,-3 l 0,-62 c 0,-1.662 -1.338,-3 -3,-3 l -62,0 z m 0,1.9375 62,0 c 0.618163,0 1.0625,0.444337 1.0625,1.0625 l 0,62 c 0,0.61816 -0.444337,1.0625 -1.0625,1.0625 l -62,0 c -0.618163,0 -1.0625,-0.44434 -1.0625,-1.0625 l 0,-62 c 0,-0.618163 0.444337,-1.0625 1.0625,-1.0625 z"
       id="rect3981-1"
       inkscape:connector-curvature="0" />
    <path
       style="fill:url(#linearGradient5229);display:inline;enable-background:new"
       id="path73"
       d="m 11.098364,6.5126821 c -3.324,0 -6,2.676 -6,5.9999999 V 84.51268 c 0,3.324 2.676,6 6,6 h 71.999997 c 3.323999,0 6.000001,-2.676 6.000001,-6 V 12.512682 c 0,-3.3239999 -2.676002,-5.9999999 -6.000001,-5.9999999 H 11.098364 z m 4.999999,7.9999999 h 1 59.999998 1 c 1.683799,0 3,1.3162 3,3 v 1 59.999998 1 c 0,1.6838 -1.316201,3 -3,3 h -1 -59.999998 -1 c -1.6838,0 -3,-1.3162 -3,-3 v -1 -59.999998 -1 c 0,-1.6838 1.3162,-3 3,-3 z"
       inkscape:connector-curvature="0" />
    <path
       style="opacity:0.5;fill:url(#linearGradient3745);fill-opacity:1;fill-rule:nonzero;stroke:none;display:inline;enable-background:new"
       id="rect3728-6"
       inkscape:connector-curvature="0"
       d="m 11.098363,6.684556 c -3.3240005,0 -6.0000002,2.6760001 -6.0000002,6 l 0,2 0,68 0,2 c 0,0.334721 0.04135,0.6507 0.09375,0.96875 0.0487,0.295596 0.09704,0.596915 0.1875,0.875 0.0099,0.03038 0.02089,0.0636 0.03125,0.09375 0.09886,0.287771 0.23488,0.547452 0.375,0.8125 0.144591,0.273507 0.315616,0.535615 0.4999997,0.78125 0.1843839,0.245635 0.3737765,0.473472 0.59375,0.6875 0.439947,0.428056 0.94291,0.814526 1.5,1.09375 0.278545,0.139612 0.5734731,0.246947 0.8750002,0.34375 -0.256202,-0.100222 -0.4867111,-0.236272 -0.7187502,-0.375 -0.00741,-0.0044 -0.023866,0.0045 -0.03125,0 -0.031933,-0.0193 -0.062293,-0.04251 -0.09375,-0.0625 -0.120395,-0.0767 -0.2310226,-0.163513 -0.34375,-0.25 -0.1061728,-0.0808 -0.2132809,-0.161112 -0.3125,-0.25 -0.1779299,-0.161433 -0.3474596,-0.345388 -0.5,-0.53125 -0.1075789,-0.130255 -0.2183939,-0.265285 -0.3125,-0.40625 -0.025089,-0.03838 -0.038446,-0.08587 -0.0625,-0.125 -0.064763,-0.103032 -0.1302275,-0.204517 -0.1875,-0.3125 -0.1010083,-0.194706 -0.2056748,-0.415701 -0.28125,-0.625 -0.00796,-0.02181 -0.023589,-0.04055 -0.03125,-0.0625 -0.031825,-0.09195 -0.035804,-0.186831 -0.0625,-0.28125 -0.030332,-0.106618 -0.070389,-0.203031 -0.09375,-0.3125 -0.072879,-0.341512 -0.1249997,-0.698205 -0.1249997,-1.0625 l 0,-2 0,-68 0,-2 c 0,-2.781848 2.2181514,-5 5.0000002,-5 l 2,0 68,0 2,0 c 2.781848,0 5,2.218152 5,5 l 0,2 0,68 0,2 c 0,0.364295 -0.05212,0.720988 -0.125,1.0625 -0.04415,0.206893 -0.08838,0.397658 -0.15625,0.59375 -0.0077,0.02195 -0.0233,0.04069 -0.03125,0.0625 -0.06274,0.173739 -0.138383,0.367449 -0.21875,0.53125 -0.04158,0.0828 -0.07904,0.169954 -0.125,0.25 -0.0546,0.09721 -0.126774,0.18835 -0.1875,0.28125 -0.09411,0.140965 -0.204921,0.275995 -0.3125,0.40625 -0.143174,0.17445 -0.303141,0.346998 -0.46875,0.5 -0.01117,0.0102 -0.01998,0.02115 -0.03125,0.03125 -0.138386,0.125556 -0.285091,0.234436 -0.4375,0.34375 -0.102571,0.07315 -0.204318,0.153364 -0.3125,0.21875 -0.0074,0.0045 -0.02384,-0.0044 -0.03125,0 -0.232039,0.138728 -0.462548,0.274778 -0.71875,0.375 0.301527,-0.0968 0.596455,-0.204138 0.875,-0.34375 0.55709,-0.279224 1.060053,-0.665694 1.5,-1.09375 0.219973,-0.214028 0.409366,-0.441865 0.59375,-0.6875 0.184384,-0.245635 0.355408,-0.507743 0.5,-0.78125 0.14012,-0.265048 0.276135,-0.524729 0.375,-0.8125 0.01041,-0.03078 0.02133,-0.06274 0.03125,-0.09375 0.09046,-0.278085 0.1388,-0.579404 0.1875,-0.875 0.0524,-0.31805 0.09375,-0.634029 0.09375,-0.96875 l 0,-2 0,-68 0,-2 c 0,-3.3239999 -2.676,-6 -6,-6 l -72,0 z" />
  </g>
</svg>
