<?xml version="1.0" encoding="UTF-8" standalone="no"?>
<!-- Created with Inkscape (http://www.inkscape.org/) -->

<svg
   xmlns:dc="http://purl.org/dc/elements/1.1/"
   xmlns:cc="http://creativecommons.org/ns#"
   xmlns:rdf="http://www.w3.org/1999/02/22-rdf-syntax-ns#"
   xmlns:svg="http://www.w3.org/2000/svg"
   xmlns="http://www.w3.org/2000/svg"
   xmlns:xlink="http://www.w3.org/1999/xlink"
   xmlns:sodipodi="http://sodipodi.sourceforge.net/DTD/sodipodi-0.dtd"
   xmlns:inkscape="http://www.inkscape.org/namespaces/inkscape"
   version="1.0"
   width="96"
   height="96"
   id="svg2408"
   inkscape:version="0.48.4 r9939"
   sodipodi:docname="hicolor_categories_scalable_cs-network.svg">
  <metadata
     id="metadata107">
    <rdf:RDF>
      <cc:Work
         rdf:about="">
        <dc:format>image/svg+xml</dc:format>
        <dc:type
           rdf:resource="http://purl.org/dc/dcmitype/StillImage" />
      </cc:Work>
    </rdf:RDF>
  </metadata>
  <sodipodi:namedview
     pagecolor="#ffffff"
     bordercolor="#666666"
     borderopacity="1"
     objecttolerance="10"
     gridtolerance="10"
     guidetolerance="10"
     inkscape:pageopacity="0"
     inkscape:pageshadow="2"
     inkscape:window-width="1483"
     inkscape:window-height="757"
     id="namedview105"
     showgrid="false"
     inkscape:snap-object-midpoints="true"
     inkscape:snap-center="true"
     inkscape:zoom="1.7383042"
     inkscape:cx="97.690016"
     inkscape:cy="1.3953182"
     inkscape:window-x="0"
     inkscape:window-y="0"
     inkscape:window-maximized="0"
     inkscape:current-layer="layer3" />
  <defs
     id="defs2410">
    <linearGradient
       id="linearGradient4236">
      <stop
         id="stop4238"
         style="stop-color:#ffdf39;stop-opacity:1"
         offset="0" />
      <stop
         id="stop4240"
         style="stop-color:#eb9c00;stop-opacity:0"
         offset="1" />
    </linearGradient>
    <linearGradient
       id="linearGradient4192">
      <stop
         id="stop4194"
         style="stop-color:#ffffff;stop-opacity:1"
         offset="0" />
      <stop
         id="stop4196"
         style="stop-color:#ffffff;stop-opacity:0"
         offset="1" />
    </linearGradient>
    <linearGradient
       id="linearGradient4176">
      <stop
         id="stop4178"
         style="stop-color:#000000;stop-opacity:1"
         offset="0" />
      <stop
         id="stop4180"
         style="stop-color:#393939;stop-opacity:1"
         offset="1" />
    </linearGradient>
    <linearGradient
       id="linearGradient4156">
      <stop
         id="stop4158"
         style="stop-color:#c6c6c6;stop-opacity:1"
         offset="0" />
      <stop
         id="stop4160"
         style="stop-color:#e7e7e7;stop-opacity:1"
         offset="1" />
    </linearGradient>
    <linearGradient
       x1="45.447727"
       y1="92.539597"
       x2="45.447727"
       y2="7.0165396"
       id="ButtonShadow"
       gradientUnits="userSpaceOnUse"
       gradientTransform="scale(1.0058652,0.994169)">
      <stop
         id="stop3750"
         style="stop-color:#000000;stop-opacity:1"
         offset="0" />
      <stop
         id="stop3752"
         style="stop-color:#000000;stop-opacity:0.58823532"
         offset="1" />
    </linearGradient>
    <linearGradient
       id="linearGradient3737">
      <stop
         id="stop3739"
         style="stop-color:#ffffff;stop-opacity:1"
         offset="0" />
      <stop
         id="stop3741"
         style="stop-color:#ffffff;stop-opacity:0"
         offset="1" />
    </linearGradient>
    <linearGradient
       x1="48"
       y1="90"
       x2="48"
       y2="5.9877172"
       id="linearGradient3706"
       xlink:href="#linearGradient4156"
       gradientUnits="userSpaceOnUse" />
    <filter
       color-interpolation-filters="sRGB"
       id="filter3174">
      <feGaussianBlur
         id="feGaussianBlur3176"
         stdDeviation="1.71" />
    </filter>
    <linearGradient
       x1="36.357143"
       y1="6"
       x2="36.357143"
       y2="63.893143"
       id="linearGradient3188"
       xlink:href="#linearGradient3737"
       gradientUnits="userSpaceOnUse" />
    <linearGradient
       id="linearGradient3737-1">
      <stop
         id="stop3739-7"
         style="stop-color:#ffffff;stop-opacity:1"
         offset="0" />
      <stop
         id="stop3741-2"
         style="stop-color:#ffffff;stop-opacity:0"
         offset="1" />
    </linearGradient>
    <radialGradient
       cx="48"
       cy="90.171875"
       r="42"
       fx="48"
       fy="90.171875"
       id="radialGradient2855"
       xlink:href="#linearGradient3737-1"
       gradientUnits="userSpaceOnUse"
       gradientTransform="matrix(1.1573129,0,0,0.99590774,-7.551021,0.1971319)" />
    <linearGradient
       id="linearGradient3737-6">
      <stop
         id="stop3739-73"
         style="stop-color:#ffffff;stop-opacity:1"
         offset="0" />
      <stop
         id="stop3741-6"
         style="stop-color:#ffffff;stop-opacity:0"
         offset="1" />
    </linearGradient>
    <clipPath
       id="clipPath3613">
      <rect
         width="84"
         height="84"
         rx="6"
         ry="6"
         x="6"
         y="6"
         id="rect3615"
         style="fill:#ffffff;fill-opacity:1;fill-rule:nonzero;stroke:none" />
    </clipPath>
    <filter
       x="-0.192"
       y="-0.192"
       width="1.3839999"
       height="1.3839999"
       color-interpolation-filters="sRGB"
       id="filter3794">
      <feGaussianBlur
         id="feGaussianBlur3796"
         stdDeviation="5.28" />
    </filter>
    <linearGradient
       x1="48"
       y1="20.220806"
       x2="48"
       y2="138.66119"
       id="linearGradient2885"
       xlink:href="#linearGradient3737-6"
       gradientUnits="userSpaceOnUse" />
    <linearGradient
       x1="48"
       y1="24"
       x2="48"
       y2="72"
       id="linearGradient4182"
       xlink:href="#linearGradient4176"
       gradientUnits="userSpaceOnUse" />
    <linearGradient
       x1="53"
       y1="74"
       x2="53"
       y2="32.987808"
       id="linearGradient4198"
       xlink:href="#linearGradient4192"
       gradientUnits="userSpaceOnUse" />
    <linearGradient
       x1="48"
       y1="72"
       x2="48"
       y2="24"
       id="linearGradient4222"
       xlink:href="#linearGradient4192"
       gradientUnits="userSpaceOnUse" />
    <radialGradient
       cx="48"
       cy="70"
       r="16"
       fx="48"
       fy="70"
       id="radialGradient4232"
       xlink:href="#linearGradient4192"
       gradientUnits="userSpaceOnUse"
       gradientTransform="matrix(1.1875,0,0,0.5625,-9,27)" />
    <linearGradient
       x1="33"
       y1="68"
       x2="33"
       y2="61"
       id="linearGradient4242"
       xlink:href="#linearGradient4236"
       gradientUnits="userSpaceOnUse"
       gradientTransform="matrix(0.5,0,0,1,18,0)" />
    <linearGradient
       x1="33"
       y1="68"
       x2="33"
       y2="61"
       id="linearGradient4298"
       xlink:href="#linearGradient4236"
       gradientUnits="userSpaceOnUse"
       gradientTransform="translate(0,40)" />
    <linearGradient
       x1="33"
       y1="68"
       x2="33"
       y2="61"
       id="linearGradient4300"
       xlink:href="#linearGradient4236"
       gradientUnits="userSpaceOnUse"
       gradientTransform="translate(4,40)" />
    <linearGradient
       x1="33"
       y1="68"
       x2="33"
       y2="61"
       id="linearGradient4302"
       xlink:href="#linearGradient4236"
       gradientUnits="userSpaceOnUse"
       gradientTransform="translate(8,40)" />
    <linearGradient
       x1="33"
       y1="68"
       x2="33"
       y2="61"
       id="linearGradient4304"
       xlink:href="#linearGradient4236"
       gradientUnits="userSpaceOnUse"
       gradientTransform="translate(12,40)" />
    <linearGradient
       x1="33"
       y1="68"
       x2="33"
       y2="61"
       id="linearGradient4306"
       xlink:href="#linearGradient4236"
       gradientUnits="userSpaceOnUse"
       gradientTransform="translate(16,40)" />
    <linearGradient
       x1="33"
       y1="68"
       x2="33"
       y2="61"
       id="linearGradient4308"
       xlink:href="#linearGradient4236"
       gradientUnits="userSpaceOnUse"
       gradientTransform="translate(20,40)" />
    <linearGradient
       x1="33"
       y1="68"
       x2="33"
       y2="61"
       id="linearGradient4310"
       xlink:href="#linearGradient4236"
       gradientUnits="userSpaceOnUse"
       gradientTransform="translate(24,40)" />
    <linearGradient
       x1="33"
       y1="68"
       x2="33"
       y2="61"
       id="linearGradient4312"
       xlink:href="#linearGradient4236"
       gradientUnits="userSpaceOnUse"
       gradientTransform="translate(28,40)" />
    <linearGradient
       x1="33"
       y1="68"
       x2="33"
       y2="61"
       id="linearGradient4316"
       xlink:href="#linearGradient4236"
       gradientUnits="userSpaceOnUse"
       gradientTransform="matrix(0.5,0,0,1,22,0)" />
    <linearGradient
       x1="33"
       y1="68"
       x2="33"
       y2="61"
       id="linearGradient4320"
       xlink:href="#linearGradient4236"
       gradientUnits="userSpaceOnUse"
       gradientTransform="matrix(0.5,0,0,1,26,0)" />
    <linearGradient
       x1="33"
       y1="68"
       x2="33"
       y2="61"
       id="linearGradient4324"
       xlink:href="#linearGradient4236"
       gradientUnits="userSpaceOnUse"
       gradientTransform="matrix(0.5,0,0,1,30,0)" />
    <linearGradient
       x1="33"
       y1="68"
       x2="33"
       y2="61"
       id="linearGradient4328"
       xlink:href="#linearGradient4236"
       gradientUnits="userSpaceOnUse"
       gradientTransform="matrix(0.5,0,0,1,34,0)" />
    <linearGradient
       x1="33"
       y1="68"
       x2="33"
       y2="61"
       id="linearGradient4332"
       xlink:href="#linearGradient4236"
       gradientUnits="userSpaceOnUse"
       gradientTransform="matrix(0.5,0,0,1,38,0)" />
    <linearGradient
       x1="33"
       y1="68"
       x2="33"
       y2="61"
       id="linearGradient4336"
       xlink:href="#linearGradient4236"
       gradientUnits="userSpaceOnUse"
       gradientTransform="matrix(0.5,0,0,1,42,0)" />
    <linearGradient
       x1="33"
       y1="68"
       x2="33"
       y2="61"
       id="linearGradient4340"
       xlink:href="#linearGradient4236"
       gradientUnits="userSpaceOnUse"
       gradientTransform="matrix(0.5,0,0,1,46,0)" />
    <linearGradient
       x1="45.447727"
       y1="92.539597"
       x2="45.447727"
       y2="7.0165396"
       id="ButtonShadow-0"
       gradientUnits="userSpaceOnUse"
       gradientTransform="matrix(1.0058652,0,0,0.994169,100,0)">
      <stop
         id="stop3750-8"
         style="stop-color:#000000;stop-opacity:1"
         offset="0" />
      <stop
         id="stop3752-5"
         style="stop-color:#000000;stop-opacity:0.58823532"
         offset="1" />
    </linearGradient>
    <linearGradient
       x1="32.251034"
       y1="6.1317081"
       x2="32.251034"
       y2="90.238609"
       id="linearGradient3780"
       xlink:href="#ButtonShadow-0"
       gradientUnits="userSpaceOnUse"
       gradientTransform="matrix(1.0238095,0,0,1.0119048,-1.1428571,-98.071429)" />
    <linearGradient
       x1="32.251034"
       y1="6.1317081"
       x2="32.251034"
       y2="90.238609"
       id="linearGradient3772"
       xlink:href="#ButtonShadow-0"
       gradientUnits="userSpaceOnUse"
       gradientTransform="matrix(1.0238095,0,0,1.0119048,-1.1428571,-98.071429)" />
    <linearGradient
       x1="32.251034"
       y1="6.1317081"
       x2="32.251034"
       y2="90.238609"
       id="linearGradient3725"
       xlink:href="#ButtonShadow-0"
       gradientUnits="userSpaceOnUse"
       gradientTransform="matrix(1.0238095,0,0,1.0119048,-1.1428571,-98.071429)" />
    <linearGradient
       x1="32.251034"
       y1="6.1317081"
       x2="32.251034"
       y2="90.238609"
       id="linearGradient3721"
       xlink:href="#ButtonShadow-0"
       gradientUnits="userSpaceOnUse"
       gradientTransform="translate(0,-97)" />
    <linearGradient
       x1="32.251034"
       y1="6.1317081"
       x2="32.251034"
       y2="90.238609"
       id="linearGradient3122"
       xlink:href="#ButtonShadow-0"
       gradientUnits="userSpaceOnUse"
       gradientTransform="matrix(1.0238095,0,0,1.0119048,-1.1428571,-98.071429)" />
    <linearGradient
       x1="32.251"
       y1="6.1317"
       gradientTransform="matrix(1.0238,0,0,-1.0119,-1.1429,98.071)"
       x2="32.251"
       gradientUnits="userSpaceOnUse"
       xlink:href="#c"
       y2="90.239"
       id="q" />
    <linearGradient
       x1="32.251"
       y1="90"
       gradientTransform="matrix(1.0238,0,0,1.0119,-1.1429,0.929)"
       x2="32.251"
       gradientUnits="userSpaceOnUse"
       xlink:href="#c"
       y2="5.9996"
       id="r" />
    <linearGradient
       x1="32.251"
       y1="90"
       gradientTransform="translate(6.3362e-7,1)"
       x2="32.251"
       gradientUnits="userSpaceOnUse"
       xlink:href="#c"
       y2="6"
       id="s" />
    <linearGradient
       x1="36.357"
       y1="6"
       x2="36.357"
       gradientUnits="userSpaceOnUse"
       xlink:href="#e"
       y2="63.893"
       id="t" />
    <radialGradient
       r="42"
       gradientTransform="matrix(1.1573,0,0,0.99591,-7.551,0.19713)"
       cx="48"
       cy="90.172"
       gradientUnits="userSpaceOnUse"
       xlink:href="#e"
       id="g" />
    <linearGradient
       x1="11.087"
       y1="15.373"
       gradientTransform="matrix(5.5945 .29482 -.29472 5.5956 -8.9771 -12.186)"
       x2="10.541"
       gradientUnits="userSpaceOnUse"
       y2="4.9937"
       id="u">
      <stop
         id="stop3138"
         offset="0"
         stop-color="#ff9604" />
      <stop
         id="stop3140"
         offset="1"
         stop-color="#fff580" />
    </linearGradient>
    <linearGradient
       x1="48.714"
       y1="76.203"
       x2="48.714"
       gradientUnits="userSpaceOnUse"
       y2="18.702"
       id="v">
      <stop
         id="stop3133"
         offset="0"
         stop-color="#dcdcdc" />
      <stop
         id="stop3135"
         offset="1"
         stop-color="#f0f0f0" />
    </linearGradient>
    <linearGradient
       x1="52.821"
       y1="32.81"
       x2="52.821"
       gradientUnits="userSpaceOnUse"
       y2="74.185"
       stop-color="#fff"
       id="w">
      <stop
         id="stop3128"
         offset="0" />
      <stop
         id="stop3130"
         offset="1"
         stop-opacity="0" />
    </linearGradient>
    <linearGradient
       x1="45.448"
       y1="92.54"
       gradientTransform="matrix(1.0059 0 0 .99417 100 0)"
       x2="45.448"
       gradientUnits="userSpaceOnUse"
       y2="7.0165"
       id="c">
      <stop
         id="stop3123"
         offset="0" />
      <stop
         id="stop3125"
         offset="1"
         stop-opacity=".58824" />
    </linearGradient>
    <filter
       x="-.12"
       y="-.12"
       color-interpolation-filters="sRGB"
       width="1.24"
       height="1.24"
       id="p">
      <feGaussianBlur
         id="feGaussianBlur3120"
         stdDeviation="4.2" />
    </filter>
    <filter
       color-interpolation-filters="sRGB"
       id="o">
      <feGaussianBlur
         id="feGaussianBlur3117"
         stdDeviation="0.42" />
    </filter>
    <clipPath
       id="i">
      <path
         id="path3114"
         fill="#fff"
         d="m115.78 6c-5.7812 3.1123-9.7188 9.2251-9.7188 16.25 0 10.182 8.256 18.438 18.438 18.438s18.438-8.256 18.438-18.438c0-7.0249-3.9376-13.138-9.7188-16.25h-17.438zm24.781 0c4.098 4.1293 6.625 9.8189 6.625 16.094 0 12.613-10.231 22.844-22.844 22.844-7.5048 0.000001-14.179-3.6278-18.344-9.2188v7.875l0.21875-0.15625 0.4375-0.53125 2.1875 1.6875-0.40625 0.5625-0.625 1.75-0.375 2.7188 1.5625 0.875 2.1562-1.6562 1.1875-1.4375 0.3125-0.625 2.5312 1.0625-0.25 0.65625-0.15625 1.8438 0.375 2.7188 1.7188 0.46875 1.6875-2.1875 0.75-1.6875 0.125-0.6875 2.75 0.375-0.07 0.656 0.28125 1.8438 1.0625 2.5312h1.7812l1.0625-2.5312 0.31-1.844-0.0625-0.65625 2.7188-0.375 0.125 0.6875 0.78125 1.6875 1.6562 2.1875 1.7188-0.46875 0.375-2.7188-0.18-1.844-0.21875-0.65625 2.5312-1.0625 0.3125 0.625 1.1562 1.4375 2.1875 1.6562 1.5312-0.875-0.34375-2.7188-0.65625-1.75-0.375-0.5625 2.1875-1.6875 0.4375 0.53125 1.5 1.0625 2.5625 1.0625 1.25-1.2812-1.0625-2.5312-1.0625-1.5-0.53125-0.4375 1.6875-2.1875 0.5625 0.375 1.75 0.65625 2.72 0.344 0.875-1.5312-1.6562-2.1875-1.4375-1.1875-0.625-0.25 1.0625-2.5625 0.65625 0.21875 1.8438 0.1875 2.7188-0.375 0.4375-1.7188-2.1562-1.6875-1.6875-0.75-0.6875-0.125 0.375-2.75 0.6875 0.0625 1.8125-0.3125 2.52-1.032v-1.7812l-2.5312-1.0625-1.8125-0.3125-0.6875 0.0625-0.375-2.75 0.6875-0.125 1.6875-0.75 2.1562-1.6875-0.4375-1.7188-2.7188-0.34375-1.8438 0.15625-0.65625 0.25-1.0625-2.5625 0.625-0.28125 1.4375-1.1875 1.66-2.156-0.41-0.75h-4.4375l-0.5 0.1875-0.5625 0.40625-0.46-0.5938h-5.82zm-16.06 2.625c7.5315 0 13.625 6.0935 13.625 13.625s-6.0935 13.656-13.625 13.656-13.656-6.1247-13.656-13.656c0-7.5315 6.1247-13.625 13.656-13.625zm43.594 28.219-1.1875 2.8125-0.34375 2 0.0625 0.78125-3.0312 0.375-0.125-0.71875-0.84375-1.875-1.875-2.4062-1.875 0.5-0.40625 3 0.1875 2.0625 0.25 0.6875-2.8125 1.1875-0.3125-0.6875-1.3125-1.5938-2.4375-1.8438-1.6875 1 0.40625 3.0312 0.6875 1.875 0.4375 0.65625-2.4062 1.8438-0.5-0.5625-1.65-1.218-2.81-1.125-1.41 1.375 1.1562 2.8125 1.1875 1.6562 0.59375 0.5-1.875 2.4375-0.625-0.4375-1.9062-0.71875-3-0.40625-1 1.7188 1.8438 2.4062 1.5938 1.3125 0.65625 0.3125-1.1562 2.8125-0.71875-0.25-2.0312-0.1875-3 0.40625-0.53125 1.9062 2.4062 1.8438 1.875 0.84375 0.75 0.15625-0.40625 3.0312-0.75-0.0625-2.0312 0.3125-2.8125 1.1875v1.9688l2.8125 1.1562 2.0312 0.34375 0.75-0.0625 0.40625 3.0312-0.75 0.15625-1.875 0.8125-2.4062 1.875 0.53125 1.9062 3 0.40625 2.0312-0.21875 0.71875-0.25 1.1562 2.8125-0.65625 0.34375-1.5938 1.2812-1.8438 2.4375 0.25 0.40625h5.9375l0.34375-0.25 0.1875 0.25h6.2188c-1.2952-1.3752-2.4398-2.8946-3.4062-4.5312l10.906-5c2.3164 3.2175 6.0148 5.3822 10.219 5.625l0.53 3.91h5.2188l-0.625-4.5938c3.788-1.2847 6.8314-4.1975 8.2812-7.9062l8.32 1.531v-5.281l-7.38-1.344c-0.0504-4.2336-2.069-7.9862-5.1562-10.438l5.5-10.656c2.768 1.8137 5.157 4.157 7.0312 6.875v-9.8438l-0.84375 0.625-0.5 0.5625-2.4062-1.8438 0.40625-0.65625 0.75-1.875 0.375-3.0312-1.7188-1-2.4062 1.8438-1.2812 1.5938-0.34375 0.6875-2.8125-1.1875 0.25-0.6875 0.21875-2.0625-0.4375-3-1.875-0.5-1.875 2.4062-0.84375 1.875-0.125 0.71875-3.0312-0.375 0.0625-0.78125-0.34375-2-1.1562-2.8125h-1.9688zm0.96875 10.312c3.2847 0 6.4301 0.64595 9.3125 1.7812l-5.5 10.625c-1.2094-0.35429-2.489-0.53125-3.8125-0.53125-2.6243 0-5.0802 0.73807-7.1562 2.0312l-8.15-8.781c4.2606-3.2171 9.5667-5.125 15.312-5.125zm-48.75 6.3125-0.96875 2.0938-0.0625 0.71875 0.1875 1.25-2.25 0.59375-0.4375-1.1875-0.4375-0.59375-1.84-1.344-1.0938 0.625 0.21875 2.2812 0.3125 0.65625 0.78125 1-1.625 1.625-1-0.78125-0.65625-0.3125-2.2812-0.21875-0.625 1.0625 1.3438 1.8438 0.59375 0.4375 1.1562 0.46875-0.59375 2.2188-1.25-0.1875-0.75 0.0625-2.0625 0.9375v1.25l2.0625 0.9375 0.75 0.0625 1.25-0.15625 0.59375 2.2188-1.1875 0.46875-0.59375 0.40625-1.3438 1.875 0.59375 1.0625 2.2812-0.21875 0.6875-0.3125 1-0.78125 1.625 1.625-0.8125 1-0.3125 0.6875-0.21875 2.25 1.0625 0.625 1.875-1.3125 0.40625-0.59375 0.5-1.1875 2.2188 0.59375-0.1875 1.25 0.0625 0.75 0.9375 2.0938h1.2188l0.96875-2.0938 0.0625-0.71875-0.1875-1.2812 2.2188-0.5625 0.46875 1.1562 0.4375 0.625 1.8438 1.3125 1.0625-0.59375-0.21875-2.2812-0.28125-0.65625-0.78125-1 1.625-1.625 1 0.78125 0.65625 0.3125 2.2812 0.21875 0.625-1.0625-1.34-1.844-0.59375-0.4375-1.1875-0.46875 0.625-2.2188 1.25 0.1875 0.71875-0.0625 2.0938-0.9375v-1.25l-2.0625-0.9375-0.75-0.09375-1.25 0.1875-0.59375-2.2188 1.1875-0.46875 0.59375-0.4375 1.34-1.844-0.625-1.0625-2.25 0.21875-0.6875 0.3125-1 0.78125-1.625-1.6562 0.8125-0.96875 0.28125-0.6875 0.25-2.25-1.0625-0.625-1.875 1.3125-0.4375 0.59375-0.46875 1.1875-2.2188-0.59375 0.1875-1.2812-0.0625-0.71875-0.9375-2.0938h-1.2188zm29.625 2.3438 8.1562 8.7812c-1.64 2.24-2.6 4.986-2.6 7.969 0 1.1014 0.15791 2.1934 0.40625 3.2188l-10.91 4.969c-0.87766-2.5735-1.375-5.3188-1.375-8.1875 0-6.4208 2.3799-12.275 6.3125-16.75zm-29.094 8.375c1.8132 0 3.2812 1.4681 3.2812 3.2812s-1.4681 3.2812-3.2812 3.2812c-1.8132 0-3.2812-1.4681-3.2812-3.2812s1.4681-3.2812 3.2812-3.2812zm48.219 3.2812c2.7895 0 5.0625 2.2418 5.0625 5.0312 0 2.7895-2.273 5.0625-5.0625 5.0625s-5.0312-2.273-5.0312-5.0625 2.2418-5.0312 5.0312-5.0312z" />
    </clipPath>
    <linearGradient
       x1="57.518"
       y1="90"
       gradientTransform="matrix(1.0172,0,0,1.0172,-1.1034,-1.1034)"
       x2="57.518"
       gradientUnits="userSpaceOnUse"
       y2="5.597"
       id="z">
      <stop
         id="stop3109"
         offset="0"
         stop-color="#969696" />
      <stop
         id="stop3111"
         offset="1"
         stop-color="#d2d2d2" />
    </linearGradient>
    <clipPath
       id="h">
      <path
         id="path3106"
         fill="#fff"
         d="m112 6c-3.324 0-6 2.676-6 6v23.719c4.1648 5.5909 10.839 9.2188 18.344 9.2188 12.613 0 22.844-10.231 22.844-22.844 0-6.2749-2.527-11.964-6.625-16.094h-7.3438c5.7812 3.1123 9.7188 9.2251 9.7188 16.25 0 10.182-8.256 18.438-18.438 18.438s-18.438-8.256-18.438-18.438c0-7.0249 3.9376-13.138 9.7188-16.25h-3.78zm34.375 0 0.46875 0.59375 0.5625-0.40625 0.5-0.1875h-1.5312zm5.9688 0 0.40625 0.75-1.6562 2.1562-1.4375 1.1875-0.625 0.28125 1.0625 2.5625 0.65625-0.25 1.8438-0.15625 2.7188 0.34375 0.4375 1.7188-2.1562 1.6875-1.6875 0.75-0.6875 0.125 0.375 2.75 0.6875-0.0625 1.8125 0.3125 2.5312 1.0625v1.7812l-2.5312 1.0312-1.8125 0.3125-0.6875-0.0625-0.375 2.75 0.6875 0.125 1.6875 0.75 2.1562 1.6875-0.4375 1.7188-2.7188 0.375-1.85-0.186-0.65625-0.21875-1.0625 2.5625 0.625 0.25 1.4375 1.1875 1.6562 2.1875-0.87 1.531-2.72-0.344-1.75-0.656-0.5625-0.375-1.6875 2.1875 0.53125 0.4375 1.0625 1.5 1.0625 2.5312-1.25 1.2812-2.57-1.062-1.5-1.0625-0.4375-0.53125-2.1875 1.6875 0.375 0.5625 0.65625 1.75 0.34375 2.7188-1.5312 0.875-2.1875-1.6562-1.1562-1.4375-0.3125-0.625-2.5312 1.0625 0.21875 0.65625 0.1875 1.8438-0.375 2.7188-1.7188 0.46875-1.6562-2.1875-0.78125-1.6875-0.125-0.6875-2.7188 0.375 0.0625 0.65625-0.3125 1.8438-1.0625 2.5312h-1.7812l-1.0625-2.5312-0.29-1.844 0.0625-0.65625-2.75-0.375-0.125 0.6875-0.75 1.6875-1.6875 2.1875-1.7188-0.46875-0.375-2.7188 0.15625-1.8438 0.25-0.65625-2.5312-1.0625-0.3125 0.625-1.1875 1.4375-2.15 1.656-1.5625-0.875 0.375-2.7188 0.625-1.75 0.40625-0.5625-2.1875-1.6875-0.4375 0.53125-0.22 0.157v40.406c0 3.324 2.676 6 6 6h25.875l-0.25-0.40625 1.8438-2.4375 1.5938-1.2812 0.65625-0.34375-1.1562-2.8125-0.71875 0.25-2.0312 0.21875-3-0.40625-0.53125-1.9062 2.4062-1.875 1.875-0.8125 0.75-0.15625-0.4-3.032-0.75 0.0625-2.0312-0.34375-2.8125-1.1562v-1.9688l2.8125-1.1875 2.0312-0.3125 0.75 0.0625 0.40625-3.0312-0.75-0.15625-1.875-0.84375-2.4062-1.8438 0.53125-1.9062 3-0.40625 2.0312 0.1875 0.71875 0.25 1.1562-2.8125-0.65625-0.3125-1.5938-1.3125-1.8438-2.4062 1-1.7188 3 0.40625 1.9062 0.71875 0.625 0.4375 1.875-2.4375-0.59375-0.5-1.19-1.658-1.16-2.812 1.41-1.375 2.8125 1.125 1.6562 1.2188 0.5 0.5625 2.4062-1.8438-0.4375-0.65625-0.6875-1.875-0.40625-3.0312 1.6875-1 2.4375 1.8438 1.3125 1.5938 0.3125 0.6875 2.8125-1.1875-0.25-0.6875-0.1875-2.0625 0.40625-3 1.875-0.5 1.875 2.4062 0.84375 1.875 0.125 0.71875 3.0312-0.375-0.0625-0.78125 0.34375-2 1.1875-2.8125h1.9688l1.1562 2.8125 0.34375 2-0.0625 0.78125 3.0312 0.375 0.125-0.71875 0.84375-1.875 1.875-2.4062 1.875 0.5 0.4375 3-0.21875 2.0625-0.25 0.6875 2.8125 1.1875 0.34375-0.6875 1.2812-1.5938 2.4062-1.8438 1.7188 1-0.375 3.0312-0.75 1.875-0.40625 0.65625 2.4062 1.8438 0.5-0.5625 0.84-0.625v-36.344c0-3.324-2.676-6-6-6h-31.66zm-27.85 2.625c-7.5315 0-13.656 6.0935-13.656 13.625s6.1247 13.656 13.656 13.656c7.5315 0 13.625-6.1247 13.625-13.656 0-7.5315-6.0935-13.625-13.625-13.625zm44.562 38.531c-5.7458 0-11.052 1.9079-15.312 5.125l8.1562 8.7812c2.0761-1.2932 4.5319-2.0312 7.1562-2.0312 1.3235 0 2.603 0.17696 3.8125 0.53125l5.5-10.625c-2.8824-1.1353-6.0278-1.7812-9.3125-1.7812zm13.906 4.1562-5.5 10.656c3.0873 2.4513 5.1058 6.2039 5.1562 10.438l7.37 1.344v-15.562c-1.8742-2.718-4.2632-5.0613-7.0312-6.875zm-62.656 2.1562h1.2188l0.9375 2.0938 0.0625 0.71875-0.1875 1.2812 2.2188 0.59375 0.46875-1.1875 0.4375-0.59375 1.875-1.3125 1.0625 0.625-0.25 2.25-0.28125 0.6875-0.8125 0.96875 1.625 1.6562 1-0.78125 0.6875-0.3125 2.25-0.21875 0.625 1.0625-1.3438 1.8438-0.59375 0.4375-1.1875 0.46875 0.59375 2.2188 1.25-0.1875 0.75 0.09375 2.0625 0.9375v1.25l-2.0938 0.9375-0.71875 0.0625-1.25-0.1875-0.625 2.2188 1.1875 0.46875 0.59375 0.4375 1.3438 1.8438-0.625 1.0625-2.2812-0.21875-0.65625-0.3125-1-0.78125-1.625 1.625 0.78125 1 0.28125 0.65625 0.21875 2.2812-1.0625 0.59375-1.8438-1.3125-0.4375-0.625-0.46875-1.1562-2.2188 0.5625 0.1875 1.2812-0.0625 0.71875-0.96875 2.0938h-1.2188l-0.9375-2.0938-0.0625-0.75 0.1875-1.25-2.2188-0.59375-0.5 1.1875-0.40625 0.59375-1.875 1.3125-1.0625-0.625 0.21875-2.25 0.3125-0.6875 0.8125-1-1.625-1.625-1 0.78125-0.6875 0.3125-2.2812 0.21875-0.59375-1.0625 1.3438-1.875 0.59375-0.40625 1.1875-0.46875-0.59375-2.2188-1.25 0.15625-0.75-0.0625-2.0625-0.9375v-1.25l2.0625-0.9375 0.75-0.0625 1.25 0.1875 0.59375-2.2188-1.1562-0.46875-0.59375-0.4375-1.3438-1.8438 0.625-1.0625 2.2812 0.21875 0.65625 0.3125 1 0.78125 1.625-1.625-0.78125-1-0.32-0.656-0.21-2.281 1.09-0.625 1.8438 1.3438 0.4375 0.59375 0.4375 1.1875 2.25-0.59375-0.1875-1.25 0.0625-0.71875 0.96875-2.0938zm29.625 2.3438c-3.9326 4.4748-6.3125 10.329-6.3125 16.75 0 2.8687 0.49734 5.614 1.375 8.1875l10.906-4.9688c-0.25-1.025-0.41-2.117-0.41-3.219 0-2.9834 0.9581-5.7295 2.5938-7.9688l-8.15-8.781zm-29.094 8.375c-1.8132 0-3.2812 1.4681-3.2812 3.2812s1.4681 3.2812 3.2812 3.2812c1.8132 0 3.2812-1.4681 3.2812-3.2812s-1.4681-3.2812-3.2812-3.2812zm48.219 3.2812c-2.7895 0-5.0312 2.2418-5.0312 5.0312 0 2.7895 2.2418 5.0625 5.0312 5.0625 2.7895 0 5.0625-2.273 5.0625-5.0625s-2.273-5.0312-5.0625-5.0312zm12.62 10.032c-1.4499 3.7088-4.4932 6.6216-8.2812 7.9062l0.62 4.594h9.97c3.324 0 6-2.676 6-6v-4.969l-8.31-1.531zm-23.625 2.9688-10.906 5c0.96641 1.6366 2.111 3.156 3.4062 4.5312h18.25l-0.53125-3.9062c-4.2039-0.24279-7.9024-2.4075-10.219-5.625zm-13.9 9.281-0.35 0.25h0.53125l-0.1875-0.25z" />
    </clipPath>
    <linearGradient
       x1="48"
       y1="90"
       x2="48"
       gradientUnits="userSpaceOnUse"
       y2="5.9877"
       id="y">
      <stop
         id="stop3101"
         offset="0"
         stop-color="#afafaf" />
      <stop
         id="stop3103"
         offset="1"
         stop-color="#d8d8d8" />
    </linearGradient>
    <clipPath
       id="f">
      <rect
         id="rect3098"
         fill="#fff"
         x="6"
         y="6"
         width="84"
         height="84"
         ry="6"
         rx="6" />
    </clipPath>
    <linearGradient
       x1="48"
       y1="20.221"
       x2="48"
       gradientUnits="userSpaceOnUse"
       xlink:href="#e"
       y2="138.66"
       id="x" />
    <filter
       x="-.192"
       y="-.192"
       color-interpolation-filters="sRGB"
       width="1.384"
       height="1.384"
       id="l">
      <feGaussianBlur
         id="feGaussianBlur3094"
         stdDeviation="5.28" />
    </filter>
    <linearGradient
       stop-color="#fff"
       id="e">
      <stop
         id="stop3089"
         offset="0" />
      <stop
         id="stop3091"
         offset="1"
         stop-opacity="0" />
    </linearGradient>
    <linearGradient
       inkscape:collect="always"
       xlink:href="#linearGradient4236"
       id="linearGradient3266"
       gradientUnits="userSpaceOnUse"
       gradientTransform="matrix(0.5,0,0,1,46.493162,-1.7862796)"
       x1="33"
       y1="68"
       x2="33"
       y2="61" />
    <linearGradient
       inkscape:collect="always"
       xlink:href="#linearGradient4236"
       id="linearGradient3268"
       gradientUnits="userSpaceOnUse"
       gradientTransform="matrix(0.5,0,0,1,42.49316,-1.7862796)"
       x1="33"
       y1="68"
       x2="33"
       y2="61" />
    <linearGradient
       inkscape:collect="always"
       xlink:href="#linearGradient4236"
       id="linearGradient3270"
       gradientUnits="userSpaceOnUse"
       gradientTransform="matrix(0.5,0,0,1,38.49316,-1.7862796)"
       x1="33"
       y1="68"
       x2="33"
       y2="61" />
    <linearGradient
       inkscape:collect="always"
       xlink:href="#linearGradient4236"
       id="linearGradient3272"
       gradientUnits="userSpaceOnUse"
       gradientTransform="matrix(0.5,0,0,1,34.49316,-1.7862796)"
       x1="33"
       y1="68"
       x2="33"
       y2="61" />
    <linearGradient
       inkscape:collect="always"
       xlink:href="#linearGradient4236"
       id="linearGradient3274"
       gradientUnits="userSpaceOnUse"
       gradientTransform="matrix(0.5,0,0,1,30.49316,-1.7862796)"
       x1="33"
       y1="68"
       x2="33"
       y2="61" />
    <linearGradient
       inkscape:collect="always"
       xlink:href="#linearGradient4236"
       id="linearGradient3276"
       gradientUnits="userSpaceOnUse"
       gradientTransform="matrix(0.5,0,0,1,26.49316,-1.7862796)"
       x1="33"
       y1="68"
       x2="33"
       y2="61" />
    <linearGradient
       inkscape:collect="always"
       xlink:href="#linearGradient4236"
       id="linearGradient3278"
       gradientUnits="userSpaceOnUse"
       gradientTransform="matrix(0.5,0,0,1,22.49316,-1.7862796)"
       x1="33"
       y1="68"
       x2="33"
       y2="61" />
    <linearGradient
       inkscape:collect="always"
       xlink:href="#linearGradient4236"
       id="linearGradient3280"
       gradientUnits="userSpaceOnUse"
       gradientTransform="matrix(0.5,0,0,1,18.49316,-1.7862796)"
       x1="33"
       y1="68"
       x2="33"
       y2="61" />
    <radialGradient
       inkscape:collect="always"
       xlink:href="#linearGradient4192"
       id="radialGradient3282"
       gradientUnits="userSpaceOnUse"
       gradientTransform="matrix(1.1875,0,0,0.5625,-8.5068402,25.21372)"
       cx="48"
       cy="70"
       fx="48"
       fy="70"
       r="16" />
    <linearGradient
       inkscape:collect="always"
       xlink:href="#linearGradient4192"
       id="linearGradient3284"
       gradientUnits="userSpaceOnUse"
       x1="48"
       y1="72"
       x2="48"
       y2="24"
       gradientTransform="translate(0.49315982,-1.7862796)" />
    <linearGradient
       inkscape:collect="always"
       xlink:href="#linearGradient4176"
       id="linearGradient3286"
       gradientUnits="userSpaceOnUse"
       x1="48"
       y1="24"
       x2="48"
       y2="72"
       gradientTransform="translate(0.49315982,-1.7862796)" />
    <linearGradient
       inkscape:collect="always"
       xlink:href="#linearGradient4192"
       id="linearGradient3288"
       gradientUnits="userSpaceOnUse"
       x1="53"
       y1="74"
       x2="53"
       y2="32.987808"
       gradientTransform="translate(0.49315982,-1.7862796)" />
    <linearGradient
       inkscape:collect="always"
       xlink:href="#c"
       id="linearGradient3290"
       gradientUnits="userSpaceOnUse"
       gradientTransform="matrix(1.0238,0,0,-1.0119,-1.1429,98.071)"
       x1="32.251"
       y1="6.1317"
       x2="32.251"
       y2="90.239" />
    <linearGradient
       inkscape:collect="always"
       xlink:href="#c"
       id="linearGradient3292"
       gradientUnits="userSpaceOnUse"
       gradientTransform="matrix(1.0238,0,0,-1.0119,-1.1429,98.071)"
       x1="32.251"
       y1="6.1317"
       x2="32.251"
       y2="90.239" />
    <linearGradient
       inkscape:collect="always"
       xlink:href="#c"
       id="linearGradient3294"
       gradientUnits="userSpaceOnUse"
       gradientTransform="matrix(1.0238,0,0,-1.0119,-1.1429,98.071)"
       x1="32.251"
       y1="6.1317"
       x2="32.251"
       y2="90.239" />
  </defs>
  <g
     id="layer2"
     style="display:none">
    <rect
       width="86"
       height="85"
       rx="6"
       ry="6"
       x="5"
       y="7"
       id="rect3745"
       style="opacity:0.9;fill:url(#ButtonShadow);fill-opacity:1;fill-rule:nonzero;stroke:none;filter:url(#filter3174)" />
  </g>
  <g
     id="layer3">
    <g
       id="g3238"
       transform="translate(0.50590982,-1.7880626)">
      <g
         id="g3147"
         style="fill:url(#q)">
        <path
           id="path3149"
           d="M 12,95.031 C 6.4889,95.031 1.969,90.511 1.969,85 V 14 C 1.969,8.4889 6.4892,3.969 12,3.969 h 72 c 5.5111,0 10.031,4.5202 10.031,10.031 v 71 c 0,5.5111 -4.5202,10.031 -10.031,10.031 H 12 z"
           inkscape:connector-curvature="0"
           style="opacity:0.07999998;fill:url(#linearGradient3290)" />
        <path
           id="path3151"
           d="m 12,94.031 c -4.9716,0 -9.0312,-4.0596 -9.0312,-9.0312 v -71 C 2.9688,9.028 7.0284,4.9684 12,4.9684 h 72 c 4.9716,0 9.0312,4.0596 9.0312,9.0312 v 71 c 0,4.9716 -4.0596,9.0312 -9.0312,9.0312 H 12 z"
           inkscape:connector-curvature="0"
           style="opacity:0.1;fill:url(#linearGradient3292)" />
        <path
           id="path3153"
           d="M 12,93 C 7.5909,93 4,89.409 4,85 V 14 C 4,9.5909 7.5909,6 12,6 h 72 c 4.4091,0 8,3.5909 8,8 v 71 c 0,4.4091 -3.5909,8 -8,8 H 12 z"
           inkscape:connector-curvature="0"
           style="opacity:0.2;fill:url(#linearGradient3294)" />
      </g>
      <rect
         id="rect3155"
         x="5"
         y="7"
         width="86"
         height="85"
         ry="7"
         rx="7"
         style="opacity:0.3;fill:url(#r)" />
      <rect
         id="rect3157"
         x="6"
         y="7"
         width="84"
         height="84"
         ry="6"
         rx="6"
         style="opacity:0.45;fill:url(#s)" />
      <rect
         id="rect3159"
         x="6"
         y="6"
         width="84"
         height="84"
         ry="6"
         rx="6"
         style="fill:url(#y)" />
      <path
         id="path3161"
         transform="translate(-100,0)"
         clip-path="url(#h)"
         d="m 115.78,6 c -5.7812,3.1123 -9.7188,9.2251 -9.7188,16.25 0,10.182 8.256,18.438 18.438,18.438 10.182,0 18.438,-8.256 18.438,-18.438 0,-7.0249 -3.9376,-13.138 -9.7188,-16.25 h -17.438 z m 24.781,0 c 4.098,4.1293 5.936,9.8568 6.625,16.094 1.4921,13.506 7.8478,20.596 -22.844,22.844 -7.4848,0.54821 -14.179,-3.6278 -18.344,-9.2188 v 7.875 l 0.21875,-0.15625 0.4375,-0.53125 2.1875,1.6875 -0.40625,0.5625 -0.625,1.75 -0.375,2.7188 1.5625,0.875 2.1562,-1.6562 1.1875,-1.4375 0.3125,-0.625 2.5312,1.0625 -0.25,0.65625 -0.15625,1.8438 0.375,2.7188 1.7188,0.46875 1.6875,-2.1875 0.75,-1.6875 0.125,-0.6875 2.75,0.375 -0.07,0.656 0.28125,1.8438 1.0625,2.5312 h 1.7812 l 1.0625,-2.5312 0.31,-1.844 c 36.684,17.947 2.3415,-12.427 28.696,-18.688 l 0.4375,-1.7188 -2.1562,-1.6875 -1.6875,-0.75 c -1.2924,-0.25326 -0.46704,-1.7417 -0.3125,-2.875 l 0.6875,0.0625 1.8125,-0.3125 2.52,-1.032 v -1.7812 l -2.5312,-1.0625 -1.8125,-0.3125 -0.6875,0.0625 -0.375,-2.75 0.6875,-0.125 1.6875,-0.75 2.1562,-1.6875 -0.4375,-1.7188 -2.7188,-0.34375 -1.8438,0.15625 -0.65625,0.25 -1.0625,-2.5625 0.625,-0.28125 1.4375,-1.1875 1.66,-2.156 -0.41,-0.75 h -4.4375 l -0.5,0.1875 -0.5625,0.40625 -0.46,-0.5938 h -5.82 z m -16.06,2.625 c 7.5315,0 13.625,6.0935 13.625,13.625 0,7.5315 -6.0935,13.656 -13.625,13.656 -7.5315,0 -13.656,-6.1247 -13.656,-13.656 0,-7.5315 6.1247,-13.625 13.656,-13.625 z m 43.594,28.219 -1.1875,2.8125 c -21.422,25.248 -38.364,32.005 -30.776,35.063 l 2.0312,0.34375 0.75,-0.0625 0.40625,3.0312 -0.75,0.15625 -1.875,0.8125 -2.4062,1.875 0.53125,1.9062 3,0.40625 2.0312,-0.21875 0.71875,-0.25 1.1562,2.8125 -0.65625,0.34375 -1.5938,1.2812 -1.8438,2.4375 0.25,0.40625 h 5.9375 l 0.34375,-0.25 0.1875,0.25 h 6.2188 c -1.2952,-1.3752 -2.4398,-2.8946 -3.4062,-4.5312 l 10.906,-5 c 2.3164,3.2175 6.0148,5.3822 10.219,5.625 l 0.53,3.91 h 5.2188 l -0.625,-4.5938 c 3.788,-1.2847 6.8314,-4.1975 8.2812,-7.9062 l 8.32,1.531 v -5.281 l -7.38,-1.344 c -0.0504,-4.2336 -2.069,-7.9862 -5.1562,-10.438 l 5.5,-10.656 c 2.768,1.8137 5.157,4.157 7.0312,6.875 v -9.8438 l -0.84375,0.625 -0.5,0.5625 -2.4062,-1.8438 0.40625,-0.65625 0.75,-1.875 0.375,-3.0312 -1.7188,-1 -2.4062,1.8438 -1.2812,1.5938 -0.34375,0.6875 -2.8125,-1.1875 0.25,-0.6875 0.21875,-2.0625 -0.4375,-3 -1.875,-0.5 -1.875,2.4062 c -0.99771,3.4494 -3.2024,2.5611 -4.2812,-0.5625 l -1.1562,-2.8125 h -1.9688 z m 0.96875,10.312 c 3.2847,0 6.4301,0.64595 9.3125,1.7812 l -5.5,10.625 c -1.2094,-0.35429 -2.489,-0.53125 -3.8125,-0.53125 -2.6243,0 -5.0802,0.73807 -7.1562,2.0312 l -8.15,-8.781 c 4.2606,-3.2171 9.5667,-5.125 15.312,-5.125 z m -48.75,6.3125 -0.96875,2.0938 -0.0625,0.71875 0.1875,1.25 -2.25,0.59375 -0.4375,-1.1875 -0.4375,-0.59375 -1.84,-1.344 -1.0938,0.625 0.21875,2.2812 0.3125,0.65625 0.78125,1 -1.625,1.625 -1,-0.78125 -0.65625,-0.3125 -2.2812,-0.21875 -0.625,1.0625 1.3438,1.8438 0.59375,0.4375 1.1562,0.46875 -0.59375,2.2188 -1.25,-0.1875 -0.75,0.0625 -2.0625,0.9375 v 1.25 l 2.0625,0.9375 0.75,0.0625 1.25,-0.15625 0.59375,2.2188 -1.1875,0.46875 -0.59375,0.40625 -1.3438,1.875 0.59375,1.0625 2.2812,-0.21875 0.6875,-0.3125 1,-0.78125 1.625,1.625 -0.8125,1 -0.3125,0.6875 -0.21875,2.25 1.0625,0.625 1.875,-1.3125 0.40625,-0.59375 0.5,-1.1875 2.2188,0.59375 -0.1875,1.25 0.0625,0.75 0.9375,2.0938 h 1.2188 l 0.96875,-2.0938 0.0625,-0.71875 -0.1875,-1.2812 2.2188,-0.5625 0.46875,1.1562 0.4375,0.625 1.8438,1.3125 1.0625,-0.59375 -0.21875,-2.2812 -0.28125,-0.65625 -0.78125,-1 1.625,-1.625 c 0.50066,0.46873 1.0462,0.80325 1.6562,1.0938 l 2.2812,0.21875 0.625,-1.0625 c -0.76158,-1.4215 -1.799,-2.2264 -3.1212,-2.7502 0.28756,-1.6091 10.15,-6.2747 0.62505,-5.125 l -0.59375,-2.2188 1.1875,-0.46875 c 1.4191,-1.0323 1.7929,-2.4936 1.3088,-3.344 l -2.25,0.21875 -0.6875,0.3125 -1,0.78125 -1.625,-1.6562 0.8125,-0.96875 0.28125,-0.6875 0.25,-2.25 -1.0625,-0.625 -1.875,1.3125 -0.4375,0.59375 -0.46875,1.1875 -2.2188,-0.59375 0.1875,-1.2812 -0.0625,-0.71875 -0.9375,-2.0938 h -1.2188 z m 29.625,2.3438 8.1562,8.7812 c -1.64,2.24 -2.6,4.986 -2.6,7.969 0,1.1014 0.15791,2.1934 0.40625,3.2188 l -10.91,4.969 c -0.87766,-2.5735 -1.375,-5.3188 -1.375,-8.1875 0,-6.4208 2.3799,-12.275 6.3125,-16.75 z m -29.094,8.375 c 1.8132,0 3.2812,1.4681 3.2812,3.2812 0,1.8131 -1.4681,3.2812 -3.2812,3.2812 -1.8132,0 -3.2812,-1.4681 -3.2812,-3.2812 0,-1.8131 1.4681,-3.2812 3.2812,-3.2812 z m 48.219,3.2812 c 2.7895,0 5.0625,2.2418 5.0625,5.0312 0,2.7895 -2.273,5.0625 -5.0625,5.0625 -2.7895,0 -5.0312,-2.273 -5.0312,-5.0625 0,-2.7895 2.2418,-5.0312 5.0312,-5.0312 z"
         inkscape:connector-curvature="0"
         style="opacity:0.5;fill:#ffffff;filter:url(#p)" />
      <path
         id="path3163"
         d="M 15.781,6 C 10,9.1123 6.0625,15.225 6.0625,22.25 c 0,10.182 8.256,18.438 18.438,18.438 10.182,0 18.438,-8.256 18.438,-18.438 0,-7.0249 -3.9376,-13.138 -9.7188,-16.25 h -17.439 z m 24.781,0 c 4.098,4.1293 6.625,9.8189 6.625,16.094 0,12.613 -10.231,22.844 -22.844,22.844 C 16.839,44.938 10.165,41.31 6,35.719 v 7.875 l 0.21875,-0.15625 0.4375,-0.53125 2.1875,1.6875 -0.40625,0.5625 -0.625,1.75 -0.3751,2.718 1.5625,0.875 2.1562,-1.6562 1.1875,-1.4375 0.3125,-0.625 2.5312,1.0625 -0.25,0.65625 -0.15625,1.8438 0.375,2.7188 1.7188,0.46875 1.6875,-2.1875 0.75,-1.6875 0.125,-0.6875 2.75,0.375 -0.062,0.656 0.28125,1.8438 1.0625,2.5312 h 1.7812 l 1.0625,-2.5312 0.313,-1.844 -0.0625,-0.65625 c 14.919,9.582 18.488,-15.977 26.033,-17.657 l 2.7188,-0.375 0.4375,-1.7188 -2.1562,-1.6875 -1.6875,-0.75 c -1.2924,-0.25326 -0.46704,-1.7417 -0.3125,-2.875 l 0.6875,0.0625 1.8125,-0.3125 2.531,-1.031 v -1.7812 l -2.5312,-1.0625 -1.8125,-0.3125 -0.6875,0.0625 -0.375,-2.75 0.6875,-0.125 1.6875,-0.75 2.156,-1.687 -0.438,-1.719 -2.718,-0.344 -1.844,0.157 -0.65625,0.25 -1.0625,-2.5625 0.625,-0.28125 1.4375,-1.1875 1.656,-2.1567 -0.406,-0.75 h -4.4375 l -0.5,0.1875 -0.564,0.4068 -0.468,-0.5938 h -5.814 z M 24.5,8.625 c 7.5315,0 13.625,6.0935 13.625,13.625 0,7.5315 -6.0935,13.656 -13.625,13.656 -7.5315,0 -13.656,-6.1247 -13.656,-13.656 0,-7.5315 6.1247,-13.625 13.656,-13.625 z m 43.594,28.219 -1.1875,2.8125 c -11.819,-2.483 -20.41,5.798 -25.599,14.941 -5.188,9.144 -12.799,17.929 -5.182,20.123 l 2.0312,0.34375 0.75,-0.0625 0.40625,3.0312 -0.75,0.15625 -1.875,0.8125 -2.4062,1.875 0.53125,1.9062 3,0.40625 2.0312,-0.21875 0.71875,-0.25 1.1562,2.8125 -0.65625,0.34375 -1.5938,1.2812 -1.8438,2.4375 0.25,0.40625 h 5.9375 l 0.34375,-0.25 0.1875,0.25 h 6.2188 c -1.2952,-1.3752 -2.4398,-2.8946 -3.4062,-4.5312 l 10.906,-5 c 2.3164,3.2175 6.0148,5.3822 10.219,5.625 l 0.531,3.908 h 5.2188 l -0.625,-4.5938 c 3.788,-1.284 6.832,-4.197 8.282,-7.906 l 8.312,1.531 v -5.281 l -7.375,-1.344 c -0.05044,-4.2336 -2.0689,-7.9862 -5.1562,-10.438 l 5.5,-10.656 c 2.768,1.8137 5.157,4.157 7.0312,6.875 v -9.8438 l -0.84375,0.625 -0.5,0.5625 -2.4062,-1.8438 0.40625,-0.65625 0.75,-1.875 0.375,-3.0312 -1.7188,-1 -2.4062,1.8438 -1.2812,1.5938 -0.34375,0.6875 -2.8125,-1.1875 0.25,-0.6875 0.21875,-2.0625 -0.4375,-3 -1.875,-0.5 -1.875,2.4062 c -0.64322,3.1596 -3.7981,2.1279 -4.2812,-0.5625 l -1.1562,-2.8125 h -1.9688 z m 0.96875,10.312 c 3.2847,0 6.4301,0.64595 9.3125,1.7812 l -5.5,10.625 c -1.2094,-0.35429 -2.489,-0.53125 -3.8125,-0.53125 -2.6243,0 -5.0801,0.73807 -7.1562,2.0312 l -8.157,-8.781 c 4.2606,-3.2171 9.5667,-5.125 15.312,-5.125 z m -48.75,6.3125 -0.96875,2.0938 -0.0625,0.71875 0.1875,1.25 -2.25,0.59375 -0.4375,-1.1875 -0.4375,-0.59375 -1.844,-1.344 -1.0938,0.625 0.21875,2.2812 0.3125,0.65625 0.78125,1 -1.625,1.625 -1,-0.78125 -0.65625,-0.3125 -2.2812,-0.21875 -0.625,1.0625 1.3438,1.8438 0.59375,0.4375 1.1562,0.46875 -0.59375,2.2188 -1.25,-0.1875 -0.75,0.0625 -2.0625,0.9375 v 1.25 l 2.0625,0.9375 0.75,0.0625 1.25,-0.15625 0.594,2.219 -1.187,0.469 -0.5942,0.406 -1.3438,1.875 0.5938,1.063 2.2812,-0.219 0.6875,-0.3125 1,-0.78125 1.625,1.625 -0.8125,1 -0.3125,0.6875 -0.21875,2.25 1.0625,0.625 1.875,-1.3125 0.40625,-0.59375 0.5,-1.1875 2.2188,0.59375 -0.1875,1.25 0.0625,0.75 0.9375,2.0938 h 1.2188 l 0.96875,-2.0938 0.0625,-0.71875 -0.1875,-1.2812 2.2188,-0.5625 0.46875,1.1562 0.4375,0.625 1.843,1.313 1.062,-0.594 -0.218,-2.281 -0.282,-0.656 -0.78125,-1 1.625,-1.625 1,0.78125 0.65625,0.3125 2.2812,0.21875 0.625,-1.0625 c -3.7108,-4.5681 7.2142,-9.1935 -2.499,-7.8748 l -0.594,-2.219 1.187,-0.469 c 1.9639,-2.2951 2.0859,-3.4186 -0.937,-3.1248 l -0.6875,0.3125 -1,0.78125 -1.625,-1.6562 0.8125,-0.96875 0.28125,-0.6875 0.25,-2.25 -1.0625,-0.625 -1.875,1.3125 -0.4375,0.59375 -0.46875,1.1875 -2.2188,-0.59375 0.1875,-1.2812 -0.0625,-0.71875 -0.9375,-2.0938 h -1.2188 z m 29.625,2.3438 8.1562,8.7812 c -1.636,2.24 -2.594,4.986 -2.594,7.969 0,1.1014 0.15791,2.1934 0.40625,3.2188 l -10.906,4.969 c -0.87766,-2.5735 -1.375,-5.3188 -1.375,-8.1875 0,-6.4208 2.3799,-12.275 6.3125,-16.75 z m -29.094,8.375 c 1.8131,0 3.2812,1.4681 3.2812,3.2812 0,1.8131 -1.4681,3.2812 -3.2812,3.2812 -1.8131,0 -3.2812,-1.4681 -3.2812,-3.2812 0,-1.8131 1.4681,-3.2812 3.2812,-3.2812 z m 48.219,3.2812 c 2.7895,0 5.0625,2.2418 5.0625,5.0312 0,2.7895 -2.273,5.0625 -5.0625,5.0625 -2.7895,0 -5.0312,-2.273 -5.0312,-5.0625 0,-2.7895 2.2418,-5.0312 5.0312,-5.0312 z"
         inkscape:connector-curvature="0"
         style="fill:url(#z)" />
      <path
         id="path3165"
         transform="translate(-100,0)"
         clip-path="url(#i)"
         d="m 115.78,6.5 c -5.7812,3.1123 -9.7188,9.2251 -9.7188,16.25 0,10.182 8.256,18.438 18.438,18.438 10.182,0 18.438,-8.256 18.438,-18.438 0,-7.0249 -3.9376,-13.138 -9.7188,-16.25 h -17.438 z m 24.781,0 c 4.098,4.1293 6.625,9.8189 6.625,16.094 0,12.613 -10.231,22.844 -22.844,22.844 -7.5048,10e-7 -14.179,-3.6278 -18.344,-9.2188 v 7.875 l 0.21875,-0.15625 0.4375,-0.53125 2.1875,1.6875 -0.40625,0.5625 -0.625,1.75 -0.375,2.7188 1.56,0.874 2.1562,-1.6562 1.1875,-1.4375 0.3125,-0.625 2.5312,1.0625 -0.25,0.65625 -0.15625,1.8438 0.375,2.7188 1.7188,0.46875 1.6875,-2.1875 0.75,-1.6875 0.125,-0.6875 2.75,0.375 -0.0625,0.65625 0.28125,1.8438 1.0625,2.5312 h 1.7812 l 1.0625,-2.5312 0.3125,-1.8438 -0.0625,-0.65625 2.7188,-0.375 c 17.683,12.911 -2.255,-10.836 26.035,-17.657 l 0.4375,-1.7188 -2.1562,-1.6875 -1.6875,-0.75 -0.6875,-0.125 0.375,-2.75 0.6875,0.0625 1.8125,-0.3125 2.5312,-1.0312 v -1.7812 l -2.5312,-1.0625 -1.8125,-0.3125 -0.6875,0.0625 -0.375,-2.75 0.6875,-0.125 1.6875,-0.75 2.1562,-1.6875 -0.4375,-1.7188 -2.7188,-0.34375 -1.8438,0.15625 -0.65625,0.25 -1.0625,-2.5625 0.625,-0.28125 1.4375,-1.1875 1.66,-2.156 -0.41,-0.75 h -4.4375 l -0.5,0.1875 -0.5625,0.40625 -0.46,-0.5938 h -5.8125 z m -16.06,2.625 c 7.5315,0 13.625,6.0935 13.625,13.625 0,7.5315 -6.0935,13.656 -13.625,13.656 -7.5315,0 -13.656,-6.1247 -13.656,-13.656 0,-7.5315 6.1247,-13.625 13.656,-13.625 z m 43.594,28.219 -1.1875,2.8125 c -10.543,5.6642 -27.609,22.825 -33.585,33.907 l 2.8125,1.1562 2.0312,0.34375 0.75,-0.0625 0.40625,3.0312 -0.75,0.15625 -1.875,0.8125 -2.4062,1.875 0.53125,1.9062 3,0.40625 2.0312,-0.21875 0.71875,-0.25 1.1562,2.8125 -0.65625,0.34375 -1.5938,1.2812 -1.8438,2.4375 0.25,0.40625 h 5.9375 l 0.34375,-0.25 0.1875,0.25 h 6.2188 c -1.2952,-1.3752 -2.4398,-2.8946 -3.4062,-4.5312 l 10.906,-5 c 2.3164,3.2175 6.0148,5.3822 10.219,5.625 l 0.53125,3.9062 h 5.2188 l -0.625,-4.5938 c 3.79,-1.279 6.84,-4.192 8.29,-7.901 l 8.31,1.531 v -5.281 l -7.38,-1.344 c -0.0504,-4.2336 -2.069,-7.9862 -5.1562,-10.438 l 5.5,-10.656 c 2.768,1.8137 5.157,4.157 7.0312,6.875 v -9.8438 l -0.84375,0.625 -0.5,0.5625 -2.4062,-1.8438 0.40625,-0.65625 0.75,-1.875 0.375,-3.0312 -1.7188,-1 -2.4062,1.8438 -1.2812,1.5938 -0.34375,0.6875 -2.8125,-1.1875 0.25,-0.6875 0.21875,-2.0625 -0.4375,-3 -1.875,-0.5 -1.875,2.4062 c -0.99771,3.4494 -3.2024,2.5611 -4.2812,-0.5625 l -1.1562,-2.8125 h -1.9688 z m 0.96875,10.312 c 3.2847,0 6.4301,0.64595 9.3125,1.7812 l -5.5,10.625 c -1.2094,-0.35429 -2.489,-0.53125 -3.8125,-0.53125 -2.6243,0 -5.0802,0.73807 -7.1562,2.0312 l -8.15,-8.781 c 4.2606,-3.2171 9.5667,-5.125 15.312,-5.125 z m -48.75,6.3125 -0.96875,2.0938 -0.0625,0.71875 0.1875,1.25 -2.25,0.59375 -0.4375,-1.1875 -0.4375,-0.59375 -1.84,-1.344 -1.0938,0.625 0.21875,2.2812 0.3125,0.65625 0.78125,1 -1.625,1.625 -1,-0.78125 -0.65625,-0.3125 -2.2812,-0.21875 -0.625,1.0625 1.3438,1.8438 0.59375,0.4375 1.1562,0.46875 -0.59375,2.2188 -1.25,-0.1875 -0.75,0.0625 -2.0625,0.9375 v 1.25 l 2.0625,0.9375 0.75,0.0625 1.25,-0.15625 0.59375,2.2188 -1.1875,0.46875 -0.59375,0.40625 -1.3438,1.875 0.59375,1.0625 2.2812,-0.21875 0.6875,-0.3125 1,-0.78125 1.625,1.625 -0.8125,1 -0.3125,0.6875 -0.21875,2.25 1.0625,0.625 1.875,-1.3125 0.40625,-0.59375 0.5,-1.1875 2.2188,0.59375 -0.1875,1.25 0.0625,0.75 0.9375,2.0938 h 1.2188 l 0.96875,-2.0938 0.0625,-0.71875 -0.1875,-1.2812 2.2188,-0.5625 0.46875,1.1562 0.4375,0.625 1.8438,1.3125 1.0625,-0.59375 -0.21875,-2.2812 -0.28125,-0.65625 -0.78125,-1 1.625,-1.625 1,0.78125 c 0.88514,0.51061 1.9438,0.43597 2.9374,0.53125 l 0.625,-1.0625 c -0.76158,-1.4215 -1.799,-2.2264 -3.1212,-2.7502 1.2489,-1.8692 9.6477,-6.2141 0.62505,-5.125 l -0.59375,-2.2188 1.1875,-0.46875 c 1.4191,-1.0323 1.7929,-2.4936 1.3088,-3.344 l -2.25,0.21875 -0.6875,0.3125 -1,0.78125 -1.625,-1.6562 0.8125,-0.96875 0.28125,-0.6875 0.25,-2.25 -1.0625,-0.625 -1.875,1.3125 -0.4375,0.59375 -0.46875,1.1875 -2.2188,-0.59375 0.1875,-1.2812 -0.0625,-0.71875 -0.9375,-2.0938 h -1.2188 z m 29.625,2.3438 8.1562,8.7812 c -1.64,2.24 -2.6,4.986 -2.6,7.969 0,1.1014 0.15791,2.1934 0.40625,3.2188 l -10.91,4.969 c -0.87766,-2.5735 -1.375,-5.3188 -1.375,-8.1875 0,-6.4208 2.3799,-12.275 6.3125,-16.75 z m -29.094,8.375 c 1.8132,0 3.2812,1.4681 3.2812,3.2812 0,1.8131 -1.4681,3.2812 -3.2812,3.2812 -1.8132,0 -3.2812,-1.4681 -3.2812,-3.2812 0,-1.8131 1.4681,-3.2812 3.2812,-3.2812 z m 48.219,3.2812 c 2.7895,0 5.0625,2.2418 5.0625,5.0312 0,2.7895 -2.273,5.0625 -5.0625,5.0625 -2.7895,0 -5.0312,-2.273 -5.0312,-5.0625 0,-2.7895 2.2418,-5.0312 5.0312,-5.0312 z"
         inkscape:connector-curvature="0"
         style="opacity:0.2;fill:none;stroke:#000000;stroke-width:1.5;filter:url(#o)" />
      <rect
         id="rect3167"
         x="15"
         y="15"
         width="66"
         height="66"
         ry="12"
         rx="12"
         clip-path="url(#f)"
         style="opacity:0.1;fill:url(#x);stroke:#ffffff;stroke-width:0.5;stroke-linecap:round;filter:url(#l)" />
      <path
         id="path3169"
         d="M 12,6 C 8.676,6 6,8.676 6,12 v 72 c 0,0.33472 0.04135,0.6507 0.09375,0.96875 0.0487,0.2956 0.09704,0.59692 0.1875,0.875 0.00988,0.03038 0.020892,0.0636 0.03125,0.09375 0.098865,0.28777 0.23488,0.54745 0.375,0.8125 0.14459,0.27351 0.31562,0.53562 0.5,0.78125 0.18438,0.24564 0.37378,0.47347 0.59375,0.6875 0.43995,0.42806 0.94291,0.81453 1.5,1.0938 0.27854,0.13961 0.57347,0.24695 0.875,0.34375 -0.2562,-0.10022 -0.48671,-0.23627 -0.71875,-0.375 -0.00741,-0.0044 -0.023866,0.0045 -0.03125,0 -0.0319,-0.019 -0.0622,-0.042 -0.0937,-0.062 -0.1204,-0.077 -0.231,-0.164 -0.3437,-0.25 -0.1062,-0.081 -0.2133,-0.161 -0.3126,-0.25 -0.1778,-0.162 -0.3473,-0.346 -0.4999,-0.531 -0.1075,-0.131 -0.2183,-0.266 -0.3124,-0.407 -0.0251,-0.038 -0.0385,-0.086 -0.0626,-0.125 -0.0647,-0.103 -0.1302,-0.204 -0.1874,-0.312 -0.1011,-0.195 -0.2057,-0.416 -0.2813,-0.625 -0.008,-0.022 -0.0236,-0.041 -0.0313,-0.063 -0.0318,-0.092 -0.0358,-0.187 -0.0624,-0.281 -0.0304,-0.107 -0.0704,-0.203 -0.0938,-0.313 -0.0729,-0.341 -0.125,-0.698 -0.125,-1.062 v -72 c 0,-2.782 2.2182,-5 5,-5 h 72 c 2.7818,0 5,2.2182 5,5 v 72 c 0,0.3643 -0.05212,0.72099 -0.125,1.0625 -0.04415,0.20689 -0.08838,0.39766 -0.15625,0.59375 -0.0077,0.02195 -0.0233,0.04069 -0.03125,0.0625 -0.06274,0.17374 -0.13838,0.36745 -0.21875,0.53125 -0.04158,0.0828 -0.07904,0.16995 -0.125,0.25 -0.0546,0.09721 -0.12677,0.18835 -0.1875,0.28125 -0.09411,0.14096 -0.20492,0.276 -0.3125,0.40625 -0.14317,0.17445 -0.30314,0.347 -0.46875,0.5 -0.01117,0.0102 -0.01998,0.02115 -0.03125,0.03125 -0.13839,0.12556 -0.28509,0.23444 -0.4375,0.34375 -0.10257,0.07315 -0.20432,0.15336 -0.3125,0.21875 -0.0074,0.0045 -0.02384,-0.0044 -0.03125,0 -0.23204,0.13873 -0.46255,0.27478 -0.71875,0.375 0.30153,-0.0968 0.59646,-0.20414 0.875,-0.34375 0.55709,-0.27922 1.0601,-0.66569 1.5,-1.0938 0.21997,-0.21403 0.40937,-0.44186 0.59375,-0.6875 0.18438,-0.24564 0.35541,-0.50774 0.5,-0.78125 0.14012,-0.26505 0.27614,-0.52473 0.375,-0.8125 0.01041,-0.03078 0.02133,-0.06274 0.03125,-0.09375 0.09046,-0.27808 0.1388,-0.5794 0.1875,-0.875 0.053,-0.318 0.094,-0.634 0.094,-0.969 V 12 c 0,-3.324 -2.676,-6 -6,-6 h -72 z"
         inkscape:connector-curvature="0"
         style="opacity:0.5;fill:url(#t)" />
      <path
         id="path3171"
         d="M 12,90 C 8.676,90 6,87.324 6,84 V 12 c 0,-0.33472 0.04135,-0.6507 0.09375,-0.96875 0.0487,-0.2956 0.09704,-0.59692 0.1875,-0.875 0.0099,-0.03 0.0209,-0.063 0.0313,-0.094 0.0989,-0.2873 0.2349,-0.547 0.375,-0.812 0.1446,-0.2735 0.3156,-0.5356 0.5,-0.7812 0.1844,-0.2457 0.3738,-0.4735 0.5937,-0.6876 0.44,-0.428 0.943,-0.8145 1.5,-1.0937 0.2786,-0.1396 0.5735,-0.2469 0.8748,-0.3437 -0.256,0.1002 -0.4865,0.2362 -0.7185,0.375 -0.00741,0.0044 -0.023866,-0.0045 -0.03125,0 -0.031933,0.0193 -0.062293,0.04251 -0.09375,0.0625 -0.1204,0.0767 -0.23102,0.16351 -0.34375,0.25 -0.10617,0.0808 -0.21328,0.16111 -0.3125,0.25 -0.1779,0.1614 -0.3474,0.3453 -0.5,0.5312 -0.1075,0.1303 -0.2183,0.2653 -0.3124,0.4063 -0.0251,0.0383 -0.0385,0.0858 -0.0626,0.125 -0.0647,0.103 -0.1302,0.2045 -0.1874,0.3124 -0.1011,0.1948 -0.2057,0.4158 -0.2813,0.625 -0.008,0.0219 -0.0236,0.0406 -0.0313,0.0626 -0.0318,0.0919 -0.0358,0.1868 -0.0624,0.2812 -0.0304,0.1066 -0.0704,0.203 -0.0938,0.3125 -0.0729,0.3415 -0.125,0.6985 -0.125,1.0625 v 72 c 0,2.7818 2.2182,5 5,5 h 72 c 2.7818,0 5,-2.2182 5,-5 v -72 c 0,-0.364 -0.052,-0.721 -0.125,-1.0625 -0.044,-0.2069 -0.088,-0.3977 -0.156,-0.5937 -0.008,-0.022 -0.024,-0.0407 -0.031,-0.0626 -0.063,-0.1737 -0.139,-0.3674 -0.219,-0.5312 -0.042,-0.0828 -0.079,-0.17 -0.125,-0.25 -0.055,-0.0972 -0.127,-0.1884 -0.188,-0.2812 -0.094,-0.141 -0.205,-0.276 -0.312,-0.4063 -0.143,-0.1745 -0.303,-0.347 -0.469,-0.5 -0.011,-0.0102 -0.02,-0.0211 -0.031,-0.0313 -0.139,-0.1255 -0.285,-0.2344 -0.438,-0.3437 -0.102,-0.0731 -0.204,-0.1534 -0.312,-0.2187 -0.0074,-0.0045 -0.02384,0.0044 -0.03125,0 -0.23204,-0.13873 -0.46255,-0.27478 -0.71875,-0.375 0.30153,0.0968 0.59646,0.20414 0.875,0.34375 0.55709,0.27922 1.0601,0.66569 1.5,1.0938 0.21997,0.21403 0.40937,0.44186 0.59375,0.6875 0.18438,0.24564 0.35541,0.50774 0.5,0.78125 0.14012,0.26505 0.27614,0.52473 0.375,0.8125 0.01041,0.03078 0.02133,0.06274 0.03125,0.09375 0.09046,0.27808 0.1388,0.5794 0.1875,0.875 0.053,0.318 0.094,0.634 0.094,0.969 v 72 c 0,3.324 -2.676,6 -6,6 h -72 z"
         inkscape:connector-curvature="0"
         style="opacity:0.2;fill:url(#g)" />
    </g>
    <path
       d="m 40.30566,20.24497 a 1.9843903,1.9843903 0 0 0 -1.78125,1.96875 l 0,2.03125 -2.03125,0 a 1.9843903,1.9843903 0 0 0 -1.96875,1.96875 l 0,2.03125 -7.03125,0 c -2.72692,0 -4.96875,2.241829 -4.96875,4.96875 l 0,34 c 0,2.726921 2.24183,4.96875 4.96875,4.96875 l 42.000002,0 c 2.726921,0 4.96875,-2.241829 4.96875,-4.96875 l 0,-34 c 0,-2.726921 -2.241829,-4.96875 -4.96875,-4.96875 l -7.03125,0 0,-2.03125 a 1.9843903,1.9843903 0 0 0 -1.96875,-1.96875 l -2.03125,0 0,-2.03125 a 1.9843903,1.9843903 0 0 0 -1.96875,-1.96875 l -16.000002,0 a 1.9843903,1.9843903 0 0 0 -0.1875,0 z"
       id="path4188"
       style="opacity:0.8;color:#000000;fill:url(#linearGradient3288);fill-opacity:1;fill-rule:nonzero;stroke:none;stroke-width:1;marker:none;visibility:visible;display:inline;overflow:visible;enable-background:accumulate"
       inkscape:connector-curvature="0" />
    <path
       d="m 40.49316,22.21372 0,4 -4,0 0,4 -9,0 c -1.662,0 -3,1.338 -3,3 l 0,34 c 0,1.662 1.338,3 3,3 l 42.000002,0 c 1.662,0 3,-1.338 3,-3 l 0,-34 c 0,-1.662 -1.338,-3 -3,-3 l -9,0 0,-4 -4,0 0,-4 -16.000002,0 z"
       id="rect4162"
       style="color:#000000;fill:url(#linearGradient3286);fill-opacity:1;fill-rule:nonzero;stroke:none;stroke-width:1;marker:none;visibility:visible;display:inline;overflow:visible;enable-background:accumulate"
       inkscape:connector-curvature="0" />
    <path
       d="m 40.49316,22.21372 0,4 -4,0 0,4 -9,0 c -1.662,0 -3,1.338 -3,3 l 0,34 c 0,1.662 1.338,3 3,3 l 42.000002,0 c 1.662,0 3,-1.338 3,-3 l 0,-34 c 0,-1.662 -1.338,-3 -3,-3 l -9,0 0,-4 -4,0 0,-4 -16.000002,0 z m 1.96875,1.96875 12.062502,0 0,2.03125 a 1.9749666,1.9749666 0 0 0 1.96875,1.96875 l 2.03125,0 0,2.03125 a 1.9749666,1.9749666 0 0 0 1.96875,1.96875 l 9,0 c 0.602136,0 1.03125,0.429114 1.03125,1.03125 l 0,34 c 0,0.602136 -0.429114,1.03125 -1.03125,1.03125 l -42.000002,0 c -0.60213,0 -1.03125,-0.429114 -1.03125,-1.03125 l 0,-34 c 0,-0.602136 0.42912,-1.03125 1.03125,-1.03125 l 9,0 a 1.9749666,1.9749666 0 0 0 1.96875,-1.96875 l 0,-2.03125 2.03125,0 a 1.9749666,1.9749666 0 0 0 1.96875,-1.96875 l 0,-2.03125 z"
       id="path4209"
       style="opacity:0.2;color:#000000;fill:url(#linearGradient3284);fill-opacity:1;fill-rule:nonzero;stroke:none;stroke-width:1;marker:none;visibility:visible;display:inline;overflow:visible;enable-background:accumulate"
       inkscape:connector-curvature="0" />
    <rect
       width="38"
       height="18"
       x="29.493162"
       y="52.213718"
       id="rect4224"
       style="opacity:0.2;color:#000000;fill:url(#radialGradient3282);fill-opacity:1;fill-rule:nonzero;stroke:none;stroke-width:1;marker:none;visibility:visible;display:inline;overflow:visible;enable-background:accumulate" />
    <rect
       width="1"
       height="7"
       x="34.493164"
       y="59.213718"
       id="rect4234"
       style="color:#000000;fill:url(#linearGradient3280);fill-opacity:1;fill-rule:nonzero;stroke:none;stroke-width:1;marker:none;visibility:visible;display:inline;overflow:visible;enable-background:accumulate" />
    <rect
       width="1"
       height="7"
       x="38.493164"
       y="59.213718"
       id="rect4314"
       style="color:#000000;fill:url(#linearGradient3278);fill-opacity:1;fill-rule:nonzero;stroke:none;stroke-width:1;marker:none;visibility:visible;display:inline;overflow:visible;enable-background:accumulate" />
    <rect
       width="1"
       height="7"
       x="42.493164"
       y="59.213718"
       id="rect4318"
       style="color:#000000;fill:url(#linearGradient3276);fill-opacity:1;fill-rule:nonzero;stroke:none;stroke-width:1;marker:none;visibility:visible;display:inline;overflow:visible;enable-background:accumulate" />
    <rect
       width="1"
       height="7"
       x="46.493164"
       y="59.213718"
       id="rect4322"
       style="color:#000000;fill:url(#linearGradient3274);fill-opacity:1;fill-rule:nonzero;stroke:none;stroke-width:1;marker:none;visibility:visible;display:inline;overflow:visible;enable-background:accumulate" />
    <rect
       width="1"
       height="7"
       x="50.493164"
       y="59.213718"
       id="rect4326"
       style="color:#000000;fill:url(#linearGradient3272);fill-opacity:1;fill-rule:nonzero;stroke:none;stroke-width:1;marker:none;visibility:visible;display:inline;overflow:visible;enable-background:accumulate" />
    <rect
       width="1"
       height="7"
       x="54.493164"
       y="59.213718"
       id="rect4330"
       style="color:#000000;fill:url(#linearGradient3270);fill-opacity:1;fill-rule:nonzero;stroke:none;stroke-width:1;marker:none;visibility:visible;display:inline;overflow:visible;enable-background:accumulate" />
    <rect
       width="1"
       height="7"
       x="58.493164"
       y="59.213718"
       id="rect4334"
       style="color:#000000;fill:url(#linearGradient3268);fill-opacity:1;fill-rule:nonzero;stroke:none;stroke-width:1;marker:none;visibility:visible;display:inline;overflow:visible;enable-background:accumulate" />
    <rect
       width="1"
       height="7"
       x="62.493153"
       y="59.213718"
       id="rect4338"
       style="color:#000000;fill:url(#linearGradient3266);fill-opacity:1;fill-rule:nonzero;stroke:none;stroke-width:1;marker:none;visibility:visible;display:inline;overflow:visible;enable-background:accumulate" />
  </g>
</svg>
