<?xml version="1.0" encoding="UTF-8" standalone="no"?>
<svg
   xmlns:dc="http://purl.org/dc/elements/1.1/"
   xmlns:cc="http://creativecommons.org/ns#"
   xmlns:rdf="http://www.w3.org/1999/02/22-rdf-syntax-ns#"
   xmlns:svg="http://www.w3.org/2000/svg"
   xmlns="http://www.w3.org/2000/svg"
   xmlns:xlink="http://www.w3.org/1999/xlink"
   xmlns:sodipodi="http://sodipodi.sourceforge.net/DTD/sodipodi-0.dtd"
   xmlns:inkscape="http://www.inkscape.org/namespaces/inkscape"
   height="96"
   width="96"
   version="1.1"
   id="svg2"
   inkscape:version="0.48.4 r9939"
   sodipodi:docname="hicolor_categories_scalable_cs-desktop-effects.svg">
  <metadata
     id="metadata326">
    <rdf:RDF>
      <cc:Work
         rdf:about="">
        <dc:format>image/svg+xml</dc:format>
        <dc:type
           rdf:resource="http://purl.org/dc/dcmitype/StillImage" />
      </cc:Work>
    </rdf:RDF>
  </metadata>
  <sodipodi:namedview
     pagecolor="#ffffff"
     bordercolor="#666666"
     borderopacity="1"
     objecttolerance="10"
     gridtolerance="10"
     guidetolerance="10"
     inkscape:pageopacity="0"
     inkscape:pageshadow="2"
     inkscape:window-width="1920"
     inkscape:window-height="1024"
     id="namedview324"
     showgrid="false"
     inkscape:snap-object-midpoints="true"
     inkscape:snap-center="true"
     inkscape:zoom="2.4583333"
     inkscape:cx="-42.283365"
     inkscape:cy="25.406279"
     inkscape:window-x="0"
     inkscape:window-y="0"
     inkscape:window-maximized="1"
     inkscape:current-layer="svg2" />
  <defs
     id="defs4">
    <linearGradient
       id="b">
      <stop
         stop-color="#ffe375"
         offset="0"
         id="stop7" />
      <stop
         stop-color="#ffa600"
         offset="1"
         id="stop9" />
    </linearGradient>
    <linearGradient
       id="a"
       stop-color="#ffb800">
      <stop
         offset="0"
         id="stop12" />
      <stop
         stop-opacity="0"
         offset="1"
         id="stop14" />
    </linearGradient>
    <linearGradient
       id="f">
      <stop
         stop-color="#1a1a1a"
         offset="0"
         id="stop17" />
      <stop
         stop-color="#666"
         offset=".30357"
         id="stop19" />
      <stop
         offset="1"
         id="stop21" />
    </linearGradient>
    <linearGradient
       id="c">
      <stop
         offset="0"
         id="stop24" />
      <stop
         stop-opacity="0"
         offset="1"
         id="stop26" />
    </linearGradient>
    <linearGradient
       id="e"
       stop-color="#fff">
      <stop
         offset="0"
         id="stop29" />
      <stop
         stop-opacity="0"
         offset="1"
         id="stop31" />
    </linearGradient>
    <filter
       id="bi"
       height="1.0514"
       width="1.72"
       color-interpolation-filters="sRGB"
       y="-.025714"
       x="-0.36">
      <feGaussianBlur
         stdDeviation="0.3"
         id="feGaussianBlur34" />
    </filter>
    <clipPath
       id="bg">
      <rect
         rx="6"
         ry="6"
         height="84"
         width="84"
         y="6"
         x="6"
         fill="#fff"
         id="rect37" />
    </clipPath>
    <filter
       id="bh"
       height="1.384"
       width="1.384"
       color-interpolation-filters="sRGB"
       y="-.192"
       x="-.192">
      <feGaussianBlur
         stdDeviation="5.28"
         id="feGaussianBlur40" />
    </filter>
    <linearGradient
       id="bj"
       stop-color="#fff"
       y2="138.66"
       gradientUnits="userSpaceOnUse"
       x2="48"
       y1="20.221"
       x1="48">
      <stop
         offset="0"
         id="stop43" />
      <stop
         stop-opacity="0"
         offset="1"
         id="stop45" />
    </linearGradient>
    <linearGradient
       id="d"
       y2="7.0165"
       gradientUnits="userSpaceOnUse"
       x2="45.448"
       gradientTransform="matrix(1.0059 0 0 .99417 100 0)"
       y1="92.54"
       x1="45.448">
      <stop
         offset="0"
         id="stop48" />
      <stop
         stop-opacity=".58824"
         offset="1"
         id="stop50" />
    </linearGradient>
    <linearGradient
       id="bf"
       y2="51.636"
       xlink:href="#c"
       gradientUnits="userSpaceOnUse"
       x2="89.898"
       gradientTransform="translate(0,15)"
       y1="51.636"
       x1="23.205" />
    <linearGradient
       id="be"
       y2="44.224"
       xlink:href="#c"
       gradientUnits="userSpaceOnUse"
       x2="94.681"
       gradientTransform="matrix(.98006 -.19871 .19871 .98006 -12.276 20.87)"
       y1="64.485"
       x1="24.79" />
    <radialGradient
       id="aj"
       xlink:href="#b"
       gradientUnits="userSpaceOnUse"
       cy="31.602"
       cx="29.095"
       gradientTransform="matrix(1.0072,0.5815,-0.5815,1.0072,35.971,14.151)"
       r="7.2449" />
    <radialGradient
       id="ai"
       xlink:href="#a"
       gradientUnits="userSpaceOnUse"
       cy="32"
       cx="32"
       gradientTransform="matrix(1.163,0,0,1.163,9.621,25.621)"
       r="8" />
    <radialGradient
       id="ah"
       xlink:href="#b"
       gradientUnits="userSpaceOnUse"
       cy="31.602"
       cx="29.095"
       gradientTransform="matrix(1.5933,0.9199,-0.9199,1.5933,35.453,-33.859)"
       r="7.2449" />
    <radialGradient
       id="ag"
       xlink:href="#a"
       gradientUnits="userSpaceOnUse"
       cy="32"
       cx="32"
       gradientTransform="matrix(1.8398,0,0,1.8398,-6.2318,-15.715)"
       r="8" />
    <radialGradient
       id="af"
       xlink:href="#b"
       gradientUnits="userSpaceOnUse"
       cy="31.602"
       cx="29.095"
       gradientTransform="matrix(0.81937,0.47306,-0.47306,0.81937,43.084,-27.524)"
       r="7.2449" />
    <radialGradient
       id="ae"
       xlink:href="#a"
       gradientUnits="userSpaceOnUse"
       cy="32"
       cx="32"
       gradientTransform="matrix(0.94612,0,0,0.94612,21.648,-18.193)"
       r="8" />
    <radialGradient
       id="ad"
       xlink:href="#b"
       gradientUnits="userSpaceOnUse"
       cy="31.602"
       cx="29.095"
       gradientTransform="matrix(0.74704,0.4313,-0.4313,0.74704,53,-8.633)"
       r="7.2449" />
    <radialGradient
       id="ac"
       xlink:href="#a"
       gradientUnits="userSpaceOnUse"
       cy="32"
       cx="32"
       gradientTransform="matrix(0.8626,0,0,0.8626,33.456,-0.12601)"
       r="8" />
    <radialGradient
       id="ab"
       xlink:href="#b"
       gradientUnits="userSpaceOnUse"
       cy="31.602"
       cx="29.095"
       gradientTransform="matrix(0.34777,0.20078,-0.20078,0.34777,67.649,7.7831)"
       r="7.2449" />
    <radialGradient
       id="aa"
       xlink:href="#a"
       gradientUnits="userSpaceOnUse"
       cy="32"
       cx="32"
       gradientTransform="matrix(0.40157,0,0,0.40157,58.55,11.743)"
       r="8" />
    <radialGradient
       id="z"
       xlink:href="#b"
       gradientUnits="userSpaceOnUse"
       cy="31.602"
       cx="29.095"
       gradientTransform="matrix(0.34777,0.20078,-0.20078,0.34777,28.607,15.548)"
       r="7.2449" />
    <radialGradient
       id="y"
       xlink:href="#a"
       gradientUnits="userSpaceOnUse"
       cy="32"
       cx="32"
       gradientTransform="matrix(0.40157,0,0,0.40157,19.508,19.508)"
       r="8" />
    <radialGradient
       id="x"
       xlink:href="#b"
       gradientUnits="userSpaceOnUse"
       cy="31.602"
       cx="29.095"
       gradientTransform="matrix(0.6481,0.37418,-0.37418,0.6481,60.26,1.9243)"
       r="7.2449" />
    <radialGradient
       id="w"
       xlink:href="#a"
       gradientUnits="userSpaceOnUse"
       cy="32"
       cx="32"
       gradientTransform="matrix(0.74836,0,0,0.74836,43.305,9.3046)"
       r="8" />
    <radialGradient
       id="v"
       xlink:href="#b"
       gradientUnits="userSpaceOnUse"
       cy="31.602"
       cx="29.095"
       gradientTransform="matrix(0.76027,0.43894,-0.43894,0.76027,27.329,-19.994)"
       r="7.2449" />
    <radialGradient
       id="u"
       xlink:href="#a"
       gradientUnits="userSpaceOnUse"
       cy="32"
       cx="32"
       gradientTransform="matrix(0.87788,0,0,0.87788,7.439,-11.336)"
       r="8" />
    <radialGradient
       id="t"
       xlink:href="#b"
       gradientUnits="userSpaceOnUse"
       cy="31.602"
       cx="29.095"
       gradientTransform="matrix(0.41571,0.24001,-0.24001,0.41571,57.555,45.945)"
       r="7.2449" />
    <radialGradient
       id="s"
       xlink:href="#a"
       gradientUnits="userSpaceOnUse"
       cy="32"
       cx="32"
       gradientTransform="matrix(0.48002,0,0,0.48002,46.679,50.679)"
       r="8" />
    <radialGradient
       id="r"
       xlink:href="#b"
       gradientUnits="userSpaceOnUse"
       cy="31.602"
       cx="29.095"
       gradientTransform="matrix(0.41571,0.24001,-0.24001,0.41571,21.035,6.425)"
       r="7.2449" />
    <radialGradient
       id="q"
       xlink:href="#a"
       gradientUnits="userSpaceOnUse"
       cy="32"
       cx="32"
       gradientTransform="matrix(0.48002,0,0,0.48002,10.159,11.159)"
       r="8" />
    <radialGradient
       id="p"
       xlink:href="#b"
       gradientUnits="userSpaceOnUse"
       cy="31.602"
       cx="29.095"
       gradientTransform="matrix(0.9923,0.5729,-0.5729,0.9923,29.148,1.0573)"
       r="7.2449" />
    <radialGradient
       id="o"
       xlink:href="#a"
       gradientUnits="userSpaceOnUse"
       cy="32"
       cx="32"
       gradientTransform="matrix(1.1458,0,0,1.1458,3.1881,12.357)"
       r="8" />
    <radialGradient
       id="n"
       xlink:href="#b"
       gradientUnits="userSpaceOnUse"
       cy="31.602"
       cx="29.095"
       gradientTransform="matrix(0.41571,0.24001,-0.24001,0.41571,59.615,-2.101)"
       r="7.2449" />
    <radialGradient
       id="m"
       xlink:href="#a"
       gradientUnits="userSpaceOnUse"
       cy="32"
       cx="32"
       gradientTransform="matrix(0.48002,0,0,0.48002,48.739,2.633)"
       r="8" />
    <radialGradient
       id="l"
       xlink:href="#b"
       gradientUnits="userSpaceOnUse"
       cy="31.602"
       cx="29.095"
       gradientTransform="matrix(0.6481,0.37418,-0.37418,0.6481,21.26,10.34)"
       r="7.2449" />
    <radialGradient
       id="k"
       xlink:href="#a"
       gradientUnits="userSpaceOnUse"
       cy="32"
       cx="32"
       gradientTransform="matrix(0.74836,0,0,0.74836,4.3042,17.721)"
       r="8" />
    <radialGradient
       id="j"
       xlink:href="#b"
       gradientUnits="userSpaceOnUse"
       cy="31.602"
       cx="29.095"
       gradientTransform="matrix(0.97853,0.56495,-0.56495,0.97853,35.784,-20.654)"
       r="7.2449" />
    <radialGradient
       id="i"
       xlink:href="#a"
       gradientUnits="userSpaceOnUse"
       cy="32"
       cx="32"
       gradientTransform="matrix(1.1299,0,0,1.1299,10.184,-9.5105)"
       r="8" />
    <linearGradient
       id="bd"
       y2="69.688"
       xlink:href="#e"
       gradientUnits="userSpaceOnUse"
       x2="65.156"
       y1="16.125"
       x1="65.156" />
    <linearGradient
       id="bc"
       y2="69.688"
       gradientUnits="userSpaceOnUse"
       x2="65.156"
       y1="16.125"
       x1="65.156">
      <stop
         stop-color="#7cb7f2"
         offset="0"
         id="stop84" />
      <stop
         stop-color="#deecfc"
         stop-opacity="0"
         offset="1"
         id="stop86" />
    </linearGradient>
    <linearGradient
       id="bb"
       stop-color="#fff"
       y2="72.766"
       gradientUnits="userSpaceOnUse"
       x2="76.451"
       y1="8.0625"
       x1="76.451">
      <stop
         offset="0"
         id="stop89" />
      <stop
         stop-opacity="0"
         offset="1"
         id="stop91" />
    </linearGradient>
    <radialGradient
       id="h"
       stop-color="#fff"
       gradientUnits="userSpaceOnUse"
       cy="90.172"
       cx="48"
       gradientTransform="matrix(1.1573 0 0 .99591 -7.551 .19713)"
       r="42">
      <stop
         offset="0"
         id="stop94" />
      <stop
         stop-opacity="0"
         offset="1"
         id="stop96" />
    </radialGradient>
    <linearGradient
       id="ba"
       y2="83.295"
       gradientUnits="userSpaceOnUse"
       x2="43.179"
       gradientTransform="matrix(1.0294,0,0,1.0294,16.486505,-3.2423085)"
       y1="13"
       x1="43.179">
      <stop
         stop-color="#919191"
         offset="0"
         id="stop99" />
      <stop
         stop-color="#fdfdfd"
         offset="1"
         id="stop101" />
    </linearGradient>
    <linearGradient
       id="az"
       y2="63.893"
       xlink:href="#e"
       gradientUnits="userSpaceOnUse"
       x2="36.357"
       y1="6"
       x1="36.357"
       gradientTransform="translate(20.949153,10.779661)" />
    <linearGradient
       id="ay"
       y2="5.9877"
       gradientUnits="userSpaceOnUse"
       x2="48"
       y1="90"
       x1="48"
       gradientTransform="translate(10.983051,0.61016949)">
      <stop
         stop-color="#b4b4b4"
         offset="0"
         id="stop105" />
      <stop
         stop-color="#e6e6e6"
         offset="1"
         id="stop107" />
    </linearGradient>
    <radialGradient
       id="g"
       gradientUnits="userSpaceOnUse"
       cy="-15.871"
       cx="56.066"
       gradientTransform="matrix(-.0022597 -1.2346 1.3844 0 70.098 140.3)"
       r="35.938">
      <stop
         stop-color="#4490e6"
         offset="0"
         id="stop110"
         style="stop-color:#5791d3;stop-opacity:1;" />
      <stop
         stop-color="#103d8f"
         offset="1"
         id="stop112"
         style="stop-color:#3c62a5;stop-opacity:1;" />
    </radialGradient>
    <linearGradient
       id="ax"
       y2="6"
       xlink:href="#d"
       gradientUnits="userSpaceOnUse"
       x2="32.251"
       gradientTransform="translate(0,1)"
       y1="90"
       x1="32.251" />
    <linearGradient
       id="aw"
       y2="5.9996"
       xlink:href="#d"
       gradientUnits="userSpaceOnUse"
       x2="32.251"
       gradientTransform="matrix(1.0238 0 0 1.0119 -1.1429 .929)"
       y1="90"
       x1="32.251" />
    <linearGradient
       id="av"
       y2="90.239"
       xlink:href="#d"
       gradientUnits="userSpaceOnUse"
       x2="32.251"
       gradientTransform="matrix(1.0238,0,0,-1.0119,-1.1429,98.071)"
       y1="6.1317"
       x1="32.251" />
    <linearGradient
       id="au"
       y2="16"
       gradientUnits="userSpaceOnUse"
       x2="-32"
       gradientTransform="matrix(-0.5,-0.86603,-0.86603,0.5,108.10876,4.2492701)"
       y1="16"
       x1="-36">
      <stop
         stop-color="#ececec"
         stop-opacity="0"
         offset="0"
         id="stop118" />
      <stop
         stop-color="#ccc"
         offset=".23398"
         id="stop120" />
      <stop
         stop-color="#e6e6e6"
         offset=".50230"
         id="stop122" />
      <stop
         stop-color="#aaa"
         offset="1"
         id="stop124" />
    </linearGradient>
    <linearGradient
       id="at"
       gradientUnits="userSpaceOnUse"
       x2="-29"
       gradientTransform="matrix(0.5,0.86603,-0.86603,0.5,155.77823,55.654537)"
       y1="35.5"
       x1="-29">
      <stop
         stop-opacity=".76818"
         offset="0"
         id="stop127" />
      <stop
         stop-opacity="0"
         offset=".061763"
         id="stop129" />
      <stop
         stop-color="#fff"
         stop-opacity="0"
         offset=".93853"
         id="stop131" />
      <stop
         stop-color="#fff"
         offset="1"
         id="stop133" />
    </linearGradient>
    <linearGradient
       id="ar"
       y2="17.75"
       gradientUnits="userSpaceOnUse"
       x2="-25"
       gradientTransform="matrix(0.5,0.86603,-0.86603,0.5,182.52844,55.942174)"
       y1="17.75"
       x1="-33">
      <stop
         stop-color="#999"
         offset="0"
         id="stop136" />
      <stop
         stop-color="#e6e6e6"
         offset=".35268"
         id="stop138" />
      <stop
         stop-color="#1f1f1f"
         offset="1"
         id="stop140" />
    </linearGradient>
    <linearGradient
       id="ao"
       y2="74.234"
       xlink:href="#c"
       gradientUnits="userSpaceOnUse"
       x2="-29.237"
       gradientTransform="matrix(0.5,0.86603,-0.86603,0.5,155.77823,55.3669)"
       y1="35.764"
       x1="-29" />
    <linearGradient
       id="am"
       y2="56.094"
       xlink:href="#f"
       gradientUnits="userSpaceOnUse"
       x2="-26"
       gradientTransform="matrix(.5 .86603 -.86603 .5 106.88 63.996)"
       y1="56.094"
       x1="-32" />
    <linearGradient
       id="al"
       y2="-2.5"
       xlink:href="#c"
       gradientUnits="userSpaceOnUse"
       gradientTransform="translate(108.86 -60.563)"
       x2="-29"
       x1="-29" />
    <linearGradient
       id="ak"
       xlink:href="#f"
       gradientUnits="userSpaceOnUse"
       gradientTransform="translate(108.86 -60.563)"
       x2="-27"
       x1="-31" />
    <linearGradient
       inkscape:collect="always"
       xlink:href="#ButtonShadow-0"
       id="linearGradient3772"
       gradientUnits="userSpaceOnUse"
       gradientTransform="matrix(1.0238095,0,0,1.0119048,-1.1428571,-98.071429)"
       x1="32.251034"
       y1="6.1317081"
       x2="32.251034"
       y2="90.238609" />
    <linearGradient
       id="ButtonShadow-0"
       gradientTransform="matrix(1.0058652,0,0,0.994169,100,0)"
       x1="45.447727"
       y1="92.539597"
       x2="45.447727"
       y2="7.0165396"
       gradientUnits="userSpaceOnUse">
      <stop
         style="stop-color:#000000;stop-opacity:1;"
         offset="0"
         id="stop3750-8" />
      <stop
         style="stop-color:#000000;stop-opacity:0.58823532;"
         offset="1"
         id="stop3752-5" />
    </linearGradient>
    <linearGradient
       y2="5.9877"
       x2="48"
       y1="90"
       x1="48"
       gradientTransform="translate(5.02e-4,-0.0254995)"
       gradientUnits="userSpaceOnUse"
       id="linearGradient5229"
       xlink:href="#h-1-7"
       inkscape:collect="always" />
    <linearGradient
       x1="48"
       y1="90"
       x2="48"
       gradientUnits="userSpaceOnUse"
       y2="5.9877"
       id="h-1-7"
       gradientTransform="translate(12.275993,8.6489951)">
      <stop
         id="stop36-8"
         offset="0"
         stop-color="#b4b4b4" />
      <stop
         id="stop38-8"
         offset="1"
         stop-color="#e6e6e6" />
    </linearGradient>
    <linearGradient
       y2="90.238609"
       x2="32.251034"
       y1="6.1317081"
       x1="32.251034"
       gradientTransform="matrix(1.0238095,0,0,1.0119048,-1.1428571,-98.071429)"
       gradientUnits="userSpaceOnUse"
       id="linearGradient3734"
       xlink:href="#ButtonShadow-0"
       inkscape:collect="always" />
  </defs>
  <g
     fill="url(#av)"
     id="g146">
    <path
       opacity="0.08"
       d="m12 95.031c-5.5111 0-10.031-4.52-10.031-10.031v-71c0-5.5111 4.5202-10.031 10.031-10.031h72c5.5111 0 10.031 4.5202 10.031 10.031v71c0 5.5111-4.5202 10.031-10.031 10.031h-72z"
       id="path148" />
    <path
       opacity=".1"
       d="m12 94.031c-4.9716 0-9.0312-4.0596-9.0312-9.0312v-71c0-4.9718 4.0596-9.0314 9.0312-9.0314h72c4.9716 0 9.0312 4.0596 9.0312 9.0312v71c0 4.9716-4.0596 9.0312-9.0312 9.0312h-72z"
       id="path150" />
    <path
       opacity=".2"
       d="m12 93c-4.4091 0-8-3.591-8-8v-71c0-4.4091 3.5909-8 8-8h72c4.4091 0 8 3.5909 8 8v71c0 4.4091-3.5909 8-8 8h-72z"
       id="path152" />
  </g>
  <rect
     opacity=".3"
     rx="7"
     ry="7"
     height="85"
     width="86"
     y="7"
     x="5"
     fill="url(#aw)"
     id="rect154" />
  <rect
     opacity=".45"
     rx="6"
     ry="6"
     height="84"
     width="84"
     y="7"
     x="6"
     fill="url(#ax)"
     id="rect156" />
  <path
     d="m83.938 83.909v-71.869h-71.875v71.869h71.875z"
     id="path158"
     fill="url(#g)" />
  <rect
     opacity=".4"
     rx="3.0291"
     ry="2.383"
     height="10"
     width="72.536"
     y="74"
     x="11.786"
     fill="#fff"
     id="rect160" />
  <path
     opacity=".4"
     d="m12 90c-3.324 0-6-2.676-6-6v-72c0-0.33472 0.04135-0.6507 0.09375-0.96875 0.0487-0.2956 0.09704-0.59692 0.1875-0.875 0.0099-0.03 0.0209-0.063 0.0313-0.094 0.0989-0.2873 0.2349-0.547 0.375-0.812 0.1446-0.2735 0.3156-0.5356 0.5-0.7812 0.1844-0.2457 0.3738-0.4735 0.5937-0.6876 0.44-0.428 0.943-0.8145 1.5-1.0937 0.2786-0.1396 0.5735-0.2469 0.8748-0.3437-0.256 0.1002-0.4865 0.2362-0.7185 0.375-0.00741 0.0044-0.023866-0.0045-0.03125 0-0.031933 0.0193-0.062293 0.04251-0.09375 0.0625-0.1204 0.0767-0.23102 0.16351-0.34375 0.25-0.10617 0.0808-0.21328 0.16111-0.3125 0.25-0.1779 0.1614-0.3474 0.3453-0.5 0.5312-0.1075 0.1303-0.2183 0.2653-0.3124 0.4063-0.0251 0.0383-0.0385 0.0858-0.0626 0.125-0.0647 0.103-0.1302 0.2045-0.1874 0.3124-0.1011 0.1948-0.2057 0.4158-0.2813 0.625-0.008 0.0219-0.0236 0.0406-0.0313 0.0626-0.0318 0.0919-0.0358 0.1868-0.0624 0.2812-0.0304 0.1066-0.0704 0.203-0.0938 0.3125-0.0729 0.3415-0.125 0.6985-0.125 1.0625v72c0 2.7818 2.2182 5 5 5h72c2.7818 0 5-2.2182 5-5v-72c0-0.364-0.052-0.721-0.125-1.0625-0.044-0.2069-0.088-0.3977-0.156-0.5937-0.008-0.022-0.024-0.0407-0.031-0.0626-0.063-0.1737-0.139-0.3674-0.219-0.5312-0.042-0.0828-0.079-0.17-0.125-0.25-0.055-0.0972-0.127-0.1884-0.188-0.2812-0.094-0.141-0.205-0.276-0.312-0.4063-0.143-0.1745-0.303-0.347-0.469-0.5-0.011-0.0102-0.02-0.0211-0.031-0.0313-0.139-0.1255-0.285-0.2344-0.438-0.3437-0.102-0.0731-0.204-0.1534-0.312-0.2187-0.0074-0.0045-0.02384 0.0044-0.03125 0-0.23204-0.13873-0.46255-0.27478-0.71875-0.375 0.30153 0.0968 0.59646 0.20414 0.875 0.34375 0.55709 0.27922 1.0601 0.66569 1.5 1.0938 0.21997 0.21403 0.40937 0.44186 0.59375 0.6875s0.35541 0.50774 0.5 0.78125c0.14012 0.26505 0.27614 0.52473 0.375 0.8125 0.01041 0.03078 0.02133 0.06274 0.03125 0.09375 0.09046 0.27808 0.1388 0.5794 0.1875 0.875 0.053 0.318 0.094 0.634 0.094 0.969v72c0 3.324-2.676 6-6 6h-72z"
     fill="url(#h)"
     id="path176" />
  <path
     style="opacity:0.1;color:#000000;fill:#000000;fill-opacity:1;fill-rule:nonzero;stroke:none;stroke-width:1;marker:none;visibility:visible;display:inline;overflow:visible;enable-background:accumulate"
     d="m 17.0005,13.9745 c -1.662,0 -3,1.338 -3,3 l 0,61.999999 c 0,1.662 1.338,3.000001 3,3.000001 l 62,0 c 1.662,0 3,-1.338001 3,-3.000001 l 0,-61.999999 c 0,-1.662 -1.338,-3 -3,-3 l -62,0 z m 0,1.9375 62,0 c 0.61816,0 1.0625,0.444337 1.0625,1.0625 l 0,61.999999 c 0,0.618163 -0.44434,1.0625 -1.0625,1.0625 l -62,0 c -0.61816,0 -1.0625,-0.444337 -1.0625,-1.0625 l 0,-61.999999 c 0,-0.618163 0.44434,-1.0625 1.0625,-1.0625 z"
     id="rect3981"
     inkscape:connector-curvature="0" />
  <path
     style="fill:url(#linearGradient5229);display:inline;enable-background:new"
     id="path73"
     d="m 12.000502,5.9745005 c -3.324,0 -6,2.676 -6,6.0000005 V 83.9745 c 0,3.324 2.676,6 6,6 h 71.999996 c 3.324,0 6,-2.676 6,-6 V 11.974501 c 0,-3.3240005 -2.676,-6.0000005 -6,-6.0000005 H 12.000502 z m 5,8.0000005 h 1 59.999996 1 c 1.6838,0 3,1.3162 3,3 v 1 59.999995 1 c 0,1.683801 -1.3162,3 -3,3 h -1 -59.999996 -1 c -1.6838,0 -3,-1.316199 -3,-3 v -1 -59.999995 -1 c 0,-1.6838 1.3162,-3 3,-3 z"
     inkscape:connector-curvature="0" />
  <g
     style="color:#000000"
     id="g188"
     transform="translate(-4.6415,5.841)">
    <path
       d="m 55.38,26.646 a 9.0392,9.0392 0 0 1 -18.078,0 9.0392,9.0392 0 1 1 18.078,0 z"
       id="path190"
       style="fill:url(#i)"
       inkscape:connector-curvature="0" />
    <path
       d="m 46.39,15 -2.3094,9.3862 -9.405,2.3085 9.405,2.2111 2.3203,9.5209 2.1993,-9.5209 9.5327,-2.2043 L 48.6002,24.3862 46.3899,15 z"
       id="path192"
       inkscape:connector-curvature="0"
       style="opacity:0.1;fill:#ffcc00" />
    <path
       d="m 46.401,37.29 -1.6959,-8.8517 -8.8866,-1.7306 8.8536,-1.608 1.7287,-8.9743 1.6263,8.8517 8.9561,1.7306 -8.9213,1.8351 -1.661,8.7473 z"
       id="path194"
       inkscape:connector-curvature="0"
       style="opacity:0.2;fill:#ffcc00" />
    <path
       d="m 46.401,36.16 -1.0695,-8.383 -8.383,-1.0695 8.383,-1.0695 1.0695,-8.383 1.0695,8.383 8.383,1.0695 -8.383,1.0695 -1.0695,8.383 z"
       id="path196"
       style="fill:url(#j)"
       inkscape:connector-curvature="0" />
    <path
       d="m 34.239,41.668 a 5.987,5.987 0 0 1 -11.974,0 5.987,5.987 0 1 1 11.974,0 z"
       id="path198"
       style="fill:url(#k)"
       inkscape:connector-curvature="0" />
    <path
       d="m 28.284,33.955 -1.5295,6.2167 -6.2291,1.529 6.2292,1.4645 1.5368,6.3059 1.4567,-6.3059 6.3138,-1.46 -6.3138,-1.5335 -1.4639,-6.2167 z"
       id="path200"
       inkscape:connector-curvature="0"
       style="opacity:0.1;fill:#ffcc00" />
    <path
       d="m 28.292,48.717 -1.1232,-5.8627 -5.8858,-1.1462 5.864,-1.065 1.1449,-5.9439 1.0771,5.8627 5.9319,1.1462 -5.9088,1.2154 -1.1001,5.7936 z"
       id="path202"
       inkscape:connector-curvature="0"
       style="opacity:0.2;fill:#ffcc00" />
    <path
       d="m 28.292,47.969 -0.70833,-5.5523 -5.5523,-0.70833 5.5523,-0.70833 0.70833,-5.5523 0.70833,5.5523 5.5523,0.70833 -5.5523,0.70833 -0.70833,5.5523 z"
       id="path204"
       style="fill:url(#l)"
       inkscape:connector-curvature="0" />
    <path
       d="m 67.36,43.159 a 14.7185,14.7185 0 0 1 -29.437,0 14.7185,14.7185 0 1 1 29.437,0 z"
       id="path206"
       style="fill:url(#ag)"
       inkscape:connector-curvature="0" />
    <path
       d="m 52.721,24.195 -3.7603,15.283 -15.314,3.7589 15.314,3.6003 3.7781,15.503 L 56.32,46.8372 71.842,43.2479 56.32,39.478 52.7211,24.195 z"
       id="path208"
       inkscape:connector-curvature="0"
       style="opacity:0.1;fill:#ffcc00" />
    <path
       d="M 52.74,60.489 49.978,46.076 35.509,43.258 49.925,40.64 52.74,26.027 55.388,40.44 69.971,43.258 55.444,46.246 52.74,60.489 z"
       id="path210"
       inkscape:connector-curvature="0"
       style="opacity:0.2;fill:#ffcc00" />
    <path
       d="m 52.74,58.649 -1.742,-13.65 -13.65,-1.741 13.65,-1.741 1.742,-13.65 1.7414,13.65 13.65,1.7414 -13.65,1.7414 -1.7414,13.65 z"
       id="path212"
       style="fill:url(#ah)"
       inkscape:connector-curvature="0" />
    <path
       d="m 56.141,62.837 a 9.304,9.304 0 0 1 -18.608,0 9.304,9.304 0 1 1 18.608,0 z"
       id="path214"
       style="fill:url(#ai)"
       inkscape:connector-curvature="0" />
    <path
       d="m 46.887,50.85 -2.377,9.6612 -9.6805,2.3761 9.6805,2.2759 2.3882,9.7998 2.2638,-9.7998 9.812,-2.2689 -9.812,-2.3831 -2.275,-9.6612 z"
       id="path216"
       inkscape:connector-curvature="0"
       style="opacity:0.1;fill:#ffcc00" />
    <path
       d="m 46.899,73.792 -1.7456,-9.111 -9.1469,-1.7813 9.113,-1.6551 1.7793,-9.2372 1.674,9.111 9.2185,1.7813 -9.1827,1.8888 -1.7097,9.0036 z"
       id="path218"
       inkscape:connector-curvature="0"
       style="opacity:0.2;fill:#ffcc00" />
    <path
       d="m 46.899,72.629 -1.1008,-8.6286 -8.6286,-1.1008 8.6286,-1.1008 1.1008,-8.6286 1.1008,8.6286 8.6286,1.1008 -8.6286,1.1008 -1.1008,8.6286 z"
       id="path220"
       style="fill:url(#aj)"
       inkscape:connector-curvature="0" />
    <path
       d="m 67.94,17.994 a 3.8402,3.8402 0 0 1 -7.6803,0 3.8402,3.8402 0 1 1 7.6803,0 z"
       id="path222"
       style="fill:url(#m)"
       inkscape:connector-curvature="0" />
    <path
       d="m 64.12,13.046 -0.9811,3.9876 -3.9956,0.98073 3.9956,0.93936 0.98573,4.0448 0.93436,-4.0448 4.0498,-0.93648 L 65.05899,17.0336 64.12,13.046 z"
       id="path224"
       inkscape:connector-curvature="0"
       style="opacity:0.1;fill:#ffcc00" />
    <path
       d="m 64.125,22.515 -0.72046,-3.7605 -3.7753,-0.73521 3.7613,-0.68312 0.73439,-3.8126 0.69092,3.7605 3.8049,0.7352 -3.7901,0.77959 -0.70566,3.7162 z"
       id="path226"
       inkscape:connector-curvature="0"
       style="opacity:0.2;fill:#ffcc00" />
    <path
       d="m 64.125,22.035 -0.45434,-3.5614 -3.5614,-0.45434 3.5614,-0.45434 0.45434,-3.5614 0.45434,3.5614 3.5614,0.45434 -3.5614,0.45434 -0.45434,3.5614 z"
       id="path228"
       style="fill:url(#n)"
       inkscape:connector-curvature="0" />
    <path
       d="m 49.02,49.023 a 9.1665,9.1665 0 0 1 -18.333,0 9.1665,9.1665 0 1 1 18.333,0 z"
       id="path230"
       style="fill:url(#o)"
       inkscape:connector-curvature="0" />
    <path
       d="m 39.903,37.213 -2.3419,9.5183 -9.5373,2.341 9.5373,2.2422 2.3529,9.6548 2.2303,-9.6548 9.6669,-2.2354 -9.6669,-2.3479 -2.2414,-9.5183 z"
       id="path232"
       inkscape:connector-curvature="0"
       style="opacity:0.1;fill:#ffcc00" />
    <path
       d="m 39.915,59.816 -1.7197,-8.9762 -9.0116,-1.7549 8.9782,-1.6306 1.753,-9.1006 1.6492,8.9763 9.0821,1.7549 -9.0469,1.8609 -1.6844,8.8704 z"
       id="path234"
       inkscape:connector-curvature="0"
       style="opacity:0.2;fill:#ffcc00" />
    <path
       d="M 39.915,58.67 38.8305,50.169 30.3295,49.0845 38.8305,48 39.915,39.499 40.9995,48 l 8.501,1.0845 -8.501,1.0845 -1.0845,8.501 z"
       id="path236"
       style="fill:url(#p)"
       inkscape:connector-curvature="0" />
    <path
       d="m 29.36,26.52 a 3.8402,3.8402 0 0 1 -7.6803,0 3.8402,3.8402 0 1 1 7.6803,0 z"
       id="path238"
       style="fill:url(#q)"
       inkscape:connector-curvature="0" />
    <path
       d="m 25.54,21.572 -0.9811,3.9876 -3.9956,0.98073 3.9956,0.93936 0.98573,4.0448 0.93436,-4.0448 4.0498,-0.93648 L 26.47899,25.5596 25.54,21.572 z"
       id="path240"
       inkscape:connector-curvature="0"
       style="opacity:0.1;fill:#ffcc00" />
    <path
       d="m 25.545,31.041 -0.72046,-3.7605 -3.7753,-0.73521 3.7613,-0.68312 0.73439,-3.8126 0.69092,3.7605 3.8049,0.7352 -3.7901,0.77959 -0.70566,3.7162 z"
       id="path242"
       inkscape:connector-curvature="0"
       style="opacity:0.2;fill:#ffcc00" />
    <path
       d="m 25.545,30.561 -0.45434,-3.5614 -3.5614,-0.45434 3.5614,-0.45434 0.45434,-3.5614 0.45434,3.5614 3.5614,0.45434 -3.5614,0.45434 -0.45434,3.5614 z"
       id="path244"
       style="fill:url(#r)"
       inkscape:connector-curvature="0" />
    <path
       d="m 65.88,66.04 a 3.8402,3.8402 0 0 1 -7.6803,0 3.8402,3.8402 0 1 1 7.6803,0 z"
       id="path246"
       style="fill:url(#s)"
       inkscape:connector-curvature="0" />
    <path
       d="m 62.06,61.092 -0.9811,3.9876 -3.9956,0.98073 3.9956,0.93936 0.98573,4.0448 0.93436,-4.0448 4.0498,-0.93648 L 62.99899,65.0796 62.06,61.092 z"
       id="path248"
       inkscape:connector-curvature="0"
       style="opacity:0.1;fill:#ffcc00" />
    <path
       d="m 62.065,70.561 -0.72046,-3.7605 -3.7753,-0.73521 3.7613,-0.68312 0.73439,-3.8126 0.69092,3.7605 3.8049,0.7352 -3.7901,0.77959 -0.70566,3.7162 z"
       id="path250"
       inkscape:connector-curvature="0"
       style="opacity:0.2;fill:#ffcc00" />
    <path
       d="m 62.065,70.081 -0.45434,-3.5614 -3.5614,-0.45434 3.5614,-0.45434 0.45434,-3.5614 0.45434,3.5614 3.5614,0.45434 -3.5614,0.45434 -0.45434,3.5614 z"
       id="path252"
       style="fill:url(#t)"
       inkscape:connector-curvature="0" />
    <path
       d="m 42.554,16.756 a 7.023,7.023 0 0 1 -14.046,0 7.023,7.023 0 1 1 14.046,0 z"
       id="path254"
       style="fill:url(#u)"
       inkscape:connector-curvature="0" />
    <path
       d="m 35.569,7.7077 -1.7943,7.2927 -7.3072,1.7936 7.3072,1.7179 1.8027,7.3973 1.7088,-7.3973 7.4065,-1.7127 -7.4065,-1.7989 -1.7173,-7.2927 z"
       id="path256"
       inkscape:connector-curvature="0"
       style="opacity:0.1;fill:#ffcc00" />
    <path
       d="m 35.578,25.026 -1.3176,-6.8773 -6.9044,-1.3446 6.8789,-1.2493 1.3431,-6.9726 1.2636,6.8774 6.9585,1.3446 -6.9315,1.4258 -1.2905,6.7963 z"
       id="path258"
       inkscape:connector-curvature="0"
       style="opacity:0.2;fill:#ffcc00" />
    <path
       d="m 35.578,24.148 -0.83092,-6.5132 -6.5132,-0.83092 6.5132,-0.83092 0.83092,-6.5132 0.83092,6.5132 6.5132,0.83092 -6.5132,0.83092 -0.83092,6.5132 z"
       id="path260"
       style="fill:url(#v)"
       inkscape:connector-curvature="0" />
    <path
       d="m 73.239,33.252 a 5.987,5.987 0 0 1 -11.974,0 5.987,5.987 0 1 1 11.974,0 z"
       id="path262"
       style="fill:url(#w)"
       inkscape:connector-curvature="0" />
    <path
       d="m 67.285,25.539 -1.5295,6.2167 -6.2291,1.529 6.2292,1.4645 1.5368,6.3059 1.4567,-6.3059 6.3138,-1.46 -6.3138,-1.5335 -1.4639,-6.2167 z"
       id="path264"
       inkscape:connector-curvature="0"
       style="opacity:0.1;fill:#ffcc00" />
    <path
       d="m 67.292,40.301 -1.1232,-5.8627 -5.8858,-1.1462 5.864,-1.065 1.1449,-5.9439 1.0771,5.8627 5.9319,1.1462 -5.9088,1.2154 -1.1001,5.7936 z"
       id="path266"
       inkscape:connector-curvature="0"
       style="opacity:0.2;fill:#ffcc00" />
    <path
       d="m 67.292,39.553 -0.70833,-5.5523 -5.5523,-0.70833 5.5523,-0.70833 0.70833,-5.5523 0.70833,5.5523 5.5523,0.70833 -5.5523,0.70833 -0.70833,5.5523 z"
       id="path268"
       style="fill:url(#x)"
       inkscape:connector-curvature="0" />
    <path
       d="m 35.571,32.359 a 3.2126,3.2126 0 0 1 -6.4251,0 3.2126,3.2126 0 1 1 6.4251,0 z"
       id="path270"
       style="fill:url(#y)"
       inkscape:connector-curvature="0" />
    <path
       d="m 32.376,28.22 -0.82076,3.3359 -3.3426,0.82045 3.3426,0.78584 0.82463,3.3837 0.78165,-3.3837 3.388,-0.78343 -3.388,-0.82286 -0.78553,-3.3359 z"
       id="path272"
       inkscape:connector-curvature="0"
       style="opacity:0.1;fill:#ffcc00" />
    <path
       d="m 32.38,36.141 -0.60272,-3.1459 -3.1583,-0.61506 3.1466,-0.57148 0.61437,-3.1895 0.578,3.1459 3.183,0.61505 -3.1707,0.65218 -0.59033,3.1088 z"
       id="path274"
       inkscape:connector-curvature="0"
       style="opacity:0.2;fill:#ffcc00" />
    <path
       d="m 32.38,35.74 -0.38009,-2.9794 -2.9794,-0.38009 2.9794,-0.38009 0.38009,-2.9794 0.38009,2.9794 2.9794,0.38009 -2.9794,0.38009 L 32.38,35.74 z"
       id="path276"
       style="fill:url(#z)"
       inkscape:connector-curvature="0" />
    <path
       d="m 74.613,24.594 a 3.2126,3.2126 0 0 1 -6.4251,0 3.2126,3.2126 0 1 1 6.4251,0 z"
       id="path278"
       style="fill:url(#aa)"
       inkscape:connector-curvature="0" />
    <path
       d="m 71.418,20.455 -0.82076,3.3359 -3.3426,0.82045 3.3426,0.78584 0.82463,3.3837 0.78165,-3.3837 3.388,-0.78343 -3.388,-0.82286 -0.78553,-3.3359 z"
       id="path280"
       inkscape:connector-curvature="0"
       style="opacity:0.1;fill:#ffcc00" />
    <path
       d="m 71.422,28.376 -0.60272,-3.1459 -3.1583,-0.61506 3.1466,-0.57148 0.61437,-3.1895 0.578,3.1459 3.183,0.61504 -3.1707,0.65218 -0.59033,3.1088 z"
       id="path282"
       inkscape:connector-curvature="0"
       style="opacity:0.2;fill:#ffcc00" />
    <path
       d="m 71.422,27.975 -0.38009,-2.9794 -2.9794,-0.38009 2.9794,-0.38009 0.38009,-2.9794 0.38009,2.9794 2.9794,0.38009 -2.9794,0.38009 -0.38009,2.9794 z"
       id="path284"
       style="fill:url(#ab)"
       inkscape:connector-curvature="0" />
    <path
       d="m 67.96,27.477 a 6.901,6.901 0 0 1 -13.802,0 6.901,6.901 0 1 1 13.802,0 z"
       id="path286"
       style="fill:url(#ac)"
       inkscape:connector-curvature="0" />
    <path
       d="m 61.097,18.586 -1.763,7.1657 -7.18,1.7624 7.1801,1.688 1.7714,7.2685 1.679,-7.2685 7.2776,-1.6829 -7.2776,-1.7676 -1.6874,-7.1657 z"
       id="path288"
       inkscape:connector-curvature="0"
       style="opacity:0.1;fill:#ffcc00" />
    <path
       d="m 61.106,35.603 -1.2947,-6.7576 -6.7843,-1.3212 6.7591,-1.2276 1.3197,-6.8513 1.2416,6.7577 6.8374,1.3212 -6.8108,1.4009 -1.2681,6.678 z"
       id="path290"
       inkscape:connector-curvature="0"
       style="opacity:0.2;fill:#ffcc00" />
    <path
       d="m 61.106,34.74 -0.81646,-6.3999 -6.3999,-0.81646 6.3999,-0.81646 0.81646,-6.3999 0.81646,6.3999 6.3999,0.81646 -6.3999,0.81646 L 61.106,34.74 z"
       id="path292"
       style="fill:url(#ad)"
       inkscape:connector-curvature="0" />
    <path
       d="m 59.493,12.083 a 7.569,7.569 0 0 1 -15.138,0 7.569,7.569 0 1 1 15.138,0 z"
       id="path294"
       style="fill:url(#ae)"
       inkscape:connector-curvature="0" />
    <path
       d="m 51.965,2.3308 -1.9337,7.8596 -7.8752,1.933 7.8753,1.8515 1.9429,7.9723 1.8416,-7.9723 7.9822,-1.8458 -7.983,-1.938 -1.85,-7.8592 z"
       id="path296"
       inkscape:connector-curvature="0"
       style="opacity:0.1;fill:#ffcc00" />
    <path
       d="m 51.974,20.995 -1.42,-7.4119 -7.4411,-1.4491 7.4136,-1.3464 1.4475,-7.5146 1.3618,7.4119 7.4994,1.4491 -7.4703,1.5366 -1.3909,7.3246 z"
       id="path298"
       inkscape:connector-curvature="0"
       style="opacity:0.2;fill:#ffcc00" />
    <path
       d="m 51.974,20.049 -0.89551,-7.0195 -7.0195,-0.89551 7.0195,-0.89551 0.89551,-7.0195 0.89551,7.0195 7.0195,0.89551 -7.0195,0.89551 -0.89551,7.0195 z"
       id="path300"
       style="fill:url(#af)"
       inkscape:connector-curvature="0" />
  </g>
</svg>
