<?xml version="1.0" encoding="UTF-8" standalone="no"?>
<svg
   xmlns:dc="http://purl.org/dc/elements/1.1/"
   xmlns:cc="http://creativecommons.org/ns#"
   xmlns:rdf="http://www.w3.org/1999/02/22-rdf-syntax-ns#"
   xmlns:svg="http://www.w3.org/2000/svg"
   xmlns="http://www.w3.org/2000/svg"
   xmlns:xlink="http://www.w3.org/1999/xlink"
   xmlns:sodipodi="http://sodipodi.sourceforge.net/DTD/sodipodi-0.dtd"
   xmlns:inkscape="http://www.inkscape.org/namespaces/inkscape"
   height="96"
   width="96"
   version="1.1"
   id="svg2"
   inkscape:version="0.48.4 r9939"
   sodipodi:docname="default-applications.svg">
  <metadata
     id="metadata115">
    <rdf:RDF>
      <cc:Work
         rdf:about="">
        <dc:format>image/svg+xml</dc:format>
        <dc:type
           rdf:resource="http://purl.org/dc/dcmitype/StillImage" />
      </cc:Work>
    </rdf:RDF>
  </metadata>
  <sodipodi:namedview
     pagecolor="#ffffff"
     bordercolor="#666666"
     borderopacity="1"
     objecttolerance="10"
     gridtolerance="10"
     guidetolerance="10"
     inkscape:pageopacity="0"
     inkscape:pageshadow="2"
     inkscape:window-width="1918"
     inkscape:window-height="1024"
     id="namedview113"
     showgrid="false"
     inkscape:snap-object-midpoints="true"
     inkscape:snap-center="true"
     inkscape:zoom="3.4766083"
     inkscape:cx="163.25521"
     inkscape:cy="-31.389784"
     inkscape:window-x="0"
     inkscape:window-y="0"
     inkscape:window-maximized="1"
     inkscape:current-layer="svg2" />
  <defs
     id="defs4">
    <linearGradient
       id="e"
       stop-color="#fff">
      <stop
         offset="0"
         id="stop7" />
      <stop
         stop-opacity="0"
         offset="1"
         id="stop9" />
    </linearGradient>
    <filter
       id="l"
       height="1.384"
       width="1.384"
       color-interpolation-filters="sRGB"
       y="-.192"
       x="-.192">
      <feGaussianBlur
         stdDeviation="5.28"
         id="feGaussianBlur12" />
    </filter>
    <linearGradient
       id="x"
       y2="138.66"
       xlink:href="#e"
       gradientUnits="userSpaceOnUse"
       x2="48"
       y1="20.221"
       x1="48" />
    <clipPath
       id="f">
      <rect
         rx="6"
         ry="6"
         height="84"
         width="84"
         y="6"
         x="6"
         fill="#fff"
         id="rect16" />
    </clipPath>
    <linearGradient
       id="y"
       y2="5.9877"
       gradientUnits="userSpaceOnUse"
       x2="48"
       y1="90"
       x1="48">
      <stop
         stop-color="#afafaf"
         offset="0"
         id="stop19" />
      <stop
         stop-color="#d8d8d8"
         offset="1"
         id="stop21" />
    </linearGradient>
    <clipPath
       id="h">
      <path
         d="m112 6c-3.324 0-6 2.676-6 6v23.719c4.1648 5.5909 10.839 9.2188 18.344 9.2188 12.613 0 22.844-10.231 22.844-22.844 0-6.2749-2.527-11.964-6.625-16.094h-7.3438c5.7812 3.1123 9.7188 9.2251 9.7188 16.25 0 10.182-8.256 18.438-18.438 18.438s-18.438-8.256-18.438-18.438c0-7.0249 3.9376-13.138 9.7188-16.25h-3.78zm34.375 0 0.46875 0.59375 0.5625-0.40625 0.5-0.1875h-1.5312zm5.9688 0 0.40625 0.75-1.6562 2.1562-1.4375 1.1875-0.625 0.28125 1.0625 2.5625 0.65625-0.25 1.8438-0.15625 2.7188 0.34375 0.4375 1.7188-2.1562 1.6875-1.6875 0.75-0.6875 0.125 0.375 2.75 0.6875-0.0625 1.8125 0.3125 2.5312 1.0625v1.7812l-2.5312 1.0312-1.8125 0.3125-0.6875-0.0625-0.375 2.75 0.6875 0.125 1.6875 0.75 2.1562 1.6875-0.4375 1.7188-2.7188 0.375-1.85-0.186-0.65625-0.21875-1.0625 2.5625 0.625 0.25 1.4375 1.1875 1.6562 2.1875-0.87 1.531-2.72-0.344-1.75-0.656-0.5625-0.375-1.6875 2.1875 0.53125 0.4375 1.0625 1.5 1.0625 2.5312-1.25 1.2812-2.57-1.062-1.5-1.0625-0.4375-0.53125-2.1875 1.6875 0.375 0.5625 0.65625 1.75 0.34375 2.7188-1.5312 0.875-2.1875-1.6562-1.1562-1.4375-0.3125-0.625-2.5312 1.0625 0.21875 0.65625 0.1875 1.8438-0.375 2.7188-1.7188 0.46875-1.6562-2.1875-0.78125-1.6875-0.125-0.6875-2.7188 0.375 0.0625 0.65625-0.3125 1.8438-1.0625 2.5312h-1.7812l-1.0625-2.5312-0.29-1.844 0.0625-0.65625-2.75-0.375-0.125 0.6875-0.75 1.6875-1.6875 2.1875-1.7188-0.46875-0.375-2.7188 0.15625-1.8438 0.25-0.65625-2.5312-1.0625-0.3125 0.625-1.1875 1.4375-2.15 1.656-1.5625-0.875 0.375-2.7188 0.625-1.75 0.40625-0.5625-2.1875-1.6875-0.4375 0.53125-0.22 0.157v40.406c0 3.324 2.676 6 6 6h25.875l-0.25-0.40625 1.8438-2.4375 1.5938-1.2812 0.65625-0.34375-1.1562-2.8125-0.71875 0.25-2.0312 0.21875-3-0.40625-0.53125-1.9062 2.4062-1.875 1.875-0.8125 0.75-0.15625-0.4-3.032-0.75 0.0625-2.0312-0.34375-2.8125-1.1562v-1.9688l2.8125-1.1875 2.0312-0.3125 0.75 0.0625 0.40625-3.0312-0.75-0.15625-1.875-0.84375-2.4062-1.8438 0.53125-1.9062 3-0.40625 2.0312 0.1875 0.71875 0.25 1.1562-2.8125-0.65625-0.3125-1.5938-1.3125-1.8438-2.4062 1-1.7188 3 0.40625 1.9062 0.71875 0.625 0.4375 1.875-2.4375-0.59375-0.5-1.19-1.658-1.16-2.812 1.41-1.375 2.8125 1.125 1.6562 1.2188 0.5 0.5625 2.4062-1.8438-0.4375-0.65625-0.6875-1.875-0.40625-3.0312 1.6875-1 2.4375 1.8438 1.3125 1.5938 0.3125 0.6875 2.8125-1.1875-0.25-0.6875-0.1875-2.0625 0.40625-3 1.875-0.5 1.875 2.4062 0.84375 1.875 0.125 0.71875 3.0312-0.375-0.0625-0.78125 0.34375-2 1.1875-2.8125h1.9688l1.1562 2.8125 0.34375 2-0.0625 0.78125 3.0312 0.375 0.125-0.71875 0.84375-1.875 1.875-2.4062 1.875 0.5 0.4375 3-0.21875 2.0625-0.25 0.6875 2.8125 1.1875 0.34375-0.6875 1.2812-1.5938 2.4062-1.8438 1.7188 1-0.375 3.0312-0.75 1.875-0.40625 0.65625 2.4062 1.8438 0.5-0.5625 0.84-0.625v-36.344c0-3.324-2.676-6-6-6h-31.66zm-27.85 2.625c-7.5315 0-13.656 6.0935-13.656 13.625s6.1247 13.656 13.656 13.656c7.5315 0 13.625-6.1247 13.625-13.656 0-7.5315-6.0935-13.625-13.625-13.625zm44.562 38.531c-5.7458 0-11.052 1.9079-15.312 5.125l8.1562 8.7812c2.0761-1.2932 4.5319-2.0312 7.1562-2.0312 1.3235 0 2.603 0.17696 3.8125 0.53125l5.5-10.625c-2.8824-1.1353-6.0278-1.7812-9.3125-1.7812zm13.906 4.1562-5.5 10.656c3.0873 2.4513 5.1058 6.2039 5.1562 10.438l7.37 1.344v-15.562c-1.8742-2.718-4.2632-5.0613-7.0312-6.875zm-62.656 2.1562h1.2188l0.9375 2.0938 0.0625 0.71875-0.1875 1.2812 2.2188 0.59375 0.46875-1.1875 0.4375-0.59375 1.875-1.3125 1.0625 0.625-0.25 2.25-0.28125 0.6875-0.8125 0.96875 1.625 1.6562 1-0.78125 0.6875-0.3125 2.25-0.21875 0.625 1.0625-1.3438 1.8438-0.59375 0.4375-1.1875 0.46875 0.59375 2.2188 1.25-0.1875 0.75 0.09375 2.0625 0.9375v1.25l-2.0938 0.9375-0.71875 0.0625-1.25-0.1875-0.625 2.2188 1.1875 0.46875 0.59375 0.4375 1.3438 1.8438-0.625 1.0625-2.2812-0.21875-0.65625-0.3125-1-0.78125-1.625 1.625 0.78125 1 0.28125 0.65625 0.21875 2.2812-1.0625 0.59375-1.8438-1.3125-0.4375-0.625-0.46875-1.1562-2.2188 0.5625 0.1875 1.2812-0.0625 0.71875-0.96875 2.0938h-1.2188l-0.9375-2.0938-0.0625-0.75 0.1875-1.25-2.2188-0.59375-0.5 1.1875-0.40625 0.59375-1.875 1.3125-1.0625-0.625 0.21875-2.25 0.3125-0.6875 0.8125-1-1.625-1.625-1 0.78125-0.6875 0.3125-2.2812 0.21875-0.59375-1.0625 1.3438-1.875 0.59375-0.40625 1.1875-0.46875-0.59375-2.2188-1.25 0.15625-0.75-0.0625-2.0625-0.9375v-1.25l2.0625-0.9375 0.75-0.0625 1.25 0.1875 0.59375-2.2188-1.1562-0.46875-0.59375-0.4375-1.3438-1.8438 0.625-1.0625 2.2812 0.21875 0.65625 0.3125 1 0.78125 1.625-1.625-0.78125-1-0.32-0.656-0.21-2.281 1.09-0.625 1.8438 1.3438 0.4375 0.59375 0.4375 1.1875 2.25-0.59375-0.1875-1.25 0.0625-0.71875 0.96875-2.0938zm29.625 2.3438c-3.9326 4.4748-6.3125 10.329-6.3125 16.75 0 2.8687 0.49734 5.614 1.375 8.1875l10.906-4.9688c-0.25-1.025-0.41-2.117-0.41-3.219 0-2.9834 0.9581-5.7295 2.5938-7.9688l-8.15-8.781zm-29.094 8.375c-1.8132 0-3.2812 1.4681-3.2812 3.2812s1.4681 3.2812 3.2812 3.2812c1.8132 0 3.2812-1.4681 3.2812-3.2812s-1.4681-3.2812-3.2812-3.2812zm48.219 3.2812c-2.7895 0-5.0312 2.2418-5.0312 5.0312 0 2.7895 2.2418 5.0625 5.0312 5.0625 2.7895 0 5.0625-2.273 5.0625-5.0625s-2.273-5.0312-5.0625-5.0312zm12.62 10.032c-1.4499 3.7088-4.4932 6.6216-8.2812 7.9062l0.62 4.594h9.97c3.324 0 6-2.676 6-6v-4.969l-8.31-1.531zm-23.625 2.9688-10.906 5c0.96641 1.6366 2.111 3.156 3.4062 4.5312h18.25l-0.53125-3.9062c-4.2039-0.24279-7.9024-2.4075-10.219-5.625zm-13.9 9.281-0.35 0.25h0.53125l-0.1875-0.25z"
         fill="#fff"
         id="path24" />
    </clipPath>
    <linearGradient
       id="z"
       y2="5.597"
       gradientUnits="userSpaceOnUse"
       x2="57.518"
       gradientTransform="matrix(1.0172,0,0,1.0172,121.54067,17.811854)"
       y1="90"
       x1="57.518">
      <stop
         stop-color="#969696"
         offset="0"
         id="stop27" />
      <stop
         stop-color="#d2d2d2"
         offset="1"
         id="stop29" />
    </linearGradient>
    <clipPath
       id="i">
      <path
         d="m115.78 6c-5.7812 3.1123-9.7188 9.2251-9.7188 16.25 0 10.182 8.256 18.438 18.438 18.438s18.438-8.256 18.438-18.438c0-7.0249-3.9376-13.138-9.7188-16.25h-17.438zm24.781 0c4.098 4.1293 6.625 9.8189 6.625 16.094 0 12.613-10.231 22.844-22.844 22.844-7.5048 0.000001-14.179-3.6278-18.344-9.2188v7.875l0.21875-0.15625 0.4375-0.53125 2.1875 1.6875-0.40625 0.5625-0.625 1.75-0.375 2.7188 1.5625 0.875 2.1562-1.6562 1.1875-1.4375 0.3125-0.625 2.5312 1.0625-0.25 0.65625-0.15625 1.8438 0.375 2.7188 1.7188 0.46875 1.6875-2.1875 0.75-1.6875 0.125-0.6875 2.75 0.375-0.07 0.656 0.28125 1.8438 1.0625 2.5312h1.7812l1.0625-2.5312 0.31-1.844-0.0625-0.65625 2.7188-0.375 0.125 0.6875 0.78125 1.6875 1.6562 2.1875 1.7188-0.46875 0.375-2.7188-0.18-1.844-0.21875-0.65625 2.5312-1.0625 0.3125 0.625 1.1562 1.4375 2.1875 1.6562 1.5312-0.875-0.34375-2.7188-0.65625-1.75-0.375-0.5625 2.1875-1.6875 0.4375 0.53125 1.5 1.0625 2.5625 1.0625 1.25-1.2812-1.0625-2.5312-1.0625-1.5-0.53125-0.4375 1.6875-2.1875 0.5625 0.375 1.75 0.65625 2.72 0.344 0.875-1.5312-1.6562-2.1875-1.4375-1.1875-0.625-0.25 1.0625-2.5625 0.65625 0.21875 1.8438 0.1875 2.7188-0.375 0.4375-1.7188-2.1562-1.6875-1.6875-0.75-0.6875-0.125 0.375-2.75 0.6875 0.0625 1.8125-0.3125 2.52-1.032v-1.7812l-2.5312-1.0625-1.8125-0.3125-0.6875 0.0625-0.375-2.75 0.6875-0.125 1.6875-0.75 2.1562-1.6875-0.4375-1.7188-2.7188-0.34375-1.8438 0.15625-0.65625 0.25-1.0625-2.5625 0.625-0.28125 1.4375-1.1875 1.66-2.156-0.41-0.75h-4.4375l-0.5 0.1875-0.5625 0.40625-0.46-0.5938h-5.82zm-16.06 2.625c7.5315 0 13.625 6.0935 13.625 13.625s-6.0935 13.656-13.625 13.656-13.656-6.1247-13.656-13.656c0-7.5315 6.1247-13.625 13.656-13.625zm43.594 28.219-1.1875 2.8125-0.34375 2 0.0625 0.78125-3.0312 0.375-0.125-0.71875-0.84375-1.875-1.875-2.4062-1.875 0.5-0.40625 3 0.1875 2.0625 0.25 0.6875-2.8125 1.1875-0.3125-0.6875-1.3125-1.5938-2.4375-1.8438-1.6875 1 0.40625 3.0312 0.6875 1.875 0.4375 0.65625-2.4062 1.8438-0.5-0.5625-1.65-1.218-2.81-1.125-1.41 1.375 1.1562 2.8125 1.1875 1.6562 0.59375 0.5-1.875 2.4375-0.625-0.4375-1.9062-0.71875-3-0.40625-1 1.7188 1.8438 2.4062 1.5938 1.3125 0.65625 0.3125-1.1562 2.8125-0.71875-0.25-2.0312-0.1875-3 0.40625-0.53125 1.9062 2.4062 1.8438 1.875 0.84375 0.75 0.15625-0.40625 3.0312-0.75-0.0625-2.0312 0.3125-2.8125 1.1875v1.9688l2.8125 1.1562 2.0312 0.34375 0.75-0.0625 0.40625 3.0312-0.75 0.15625-1.875 0.8125-2.4062 1.875 0.53125 1.9062 3 0.40625 2.0312-0.21875 0.71875-0.25 1.1562 2.8125-0.65625 0.34375-1.5938 1.2812-1.8438 2.4375 0.25 0.40625h5.9375l0.34375-0.25 0.1875 0.25h6.2188c-1.2952-1.3752-2.4398-2.8946-3.4062-4.5312l10.906-5c2.3164 3.2175 6.0148 5.3822 10.219 5.625l0.53 3.91h5.2188l-0.625-4.5938c3.788-1.2847 6.8314-4.1975 8.2812-7.9062l8.32 1.531v-5.281l-7.38-1.344c-0.0504-4.2336-2.069-7.9862-5.1562-10.438l5.5-10.656c2.768 1.8137 5.157 4.157 7.0312 6.875v-9.8438l-0.84375 0.625-0.5 0.5625-2.4062-1.8438 0.40625-0.65625 0.75-1.875 0.375-3.0312-1.7188-1-2.4062 1.8438-1.2812 1.5938-0.34375 0.6875-2.8125-1.1875 0.25-0.6875 0.21875-2.0625-0.4375-3-1.875-0.5-1.875 2.4062-0.84375 1.875-0.125 0.71875-3.0312-0.375 0.0625-0.78125-0.34375-2-1.1562-2.8125h-1.9688zm0.96875 10.312c3.2847 0 6.4301 0.64595 9.3125 1.7812l-5.5 10.625c-1.2094-0.35429-2.489-0.53125-3.8125-0.53125-2.6243 0-5.0802 0.73807-7.1562 2.0312l-8.15-8.781c4.2606-3.2171 9.5667-5.125 15.312-5.125zm-48.75 6.3125-0.96875 2.0938-0.0625 0.71875 0.1875 1.25-2.25 0.59375-0.4375-1.1875-0.4375-0.59375-1.84-1.344-1.0938 0.625 0.21875 2.2812 0.3125 0.65625 0.78125 1-1.625 1.625-1-0.78125-0.65625-0.3125-2.2812-0.21875-0.625 1.0625 1.3438 1.8438 0.59375 0.4375 1.1562 0.46875-0.59375 2.2188-1.25-0.1875-0.75 0.0625-2.0625 0.9375v1.25l2.0625 0.9375 0.75 0.0625 1.25-0.15625 0.59375 2.2188-1.1875 0.46875-0.59375 0.40625-1.3438 1.875 0.59375 1.0625 2.2812-0.21875 0.6875-0.3125 1-0.78125 1.625 1.625-0.8125 1-0.3125 0.6875-0.21875 2.25 1.0625 0.625 1.875-1.3125 0.40625-0.59375 0.5-1.1875 2.2188 0.59375-0.1875 1.25 0.0625 0.75 0.9375 2.0938h1.2188l0.96875-2.0938 0.0625-0.71875-0.1875-1.2812 2.2188-0.5625 0.46875 1.1562 0.4375 0.625 1.8438 1.3125 1.0625-0.59375-0.21875-2.2812-0.28125-0.65625-0.78125-1 1.625-1.625 1 0.78125 0.65625 0.3125 2.2812 0.21875 0.625-1.0625-1.34-1.844-0.59375-0.4375-1.1875-0.46875 0.625-2.2188 1.25 0.1875 0.71875-0.0625 2.0938-0.9375v-1.25l-2.0625-0.9375-0.75-0.09375-1.25 0.1875-0.59375-2.2188 1.1875-0.46875 0.59375-0.4375 1.34-1.844-0.625-1.0625-2.25 0.21875-0.6875 0.3125-1 0.78125-1.625-1.6562 0.8125-0.96875 0.28125-0.6875 0.25-2.25-1.0625-0.625-1.875 1.3125-0.4375 0.59375-0.46875 1.1875-2.2188-0.59375 0.1875-1.2812-0.0625-0.71875-0.9375-2.0938h-1.2188zm29.625 2.3438 8.1562 8.7812c-1.64 2.24-2.6 4.986-2.6 7.969 0 1.1014 0.15791 2.1934 0.40625 3.2188l-10.91 4.969c-0.87766-2.5735-1.375-5.3188-1.375-8.1875 0-6.4208 2.3799-12.275 6.3125-16.75zm-29.094 8.375c1.8132 0 3.2812 1.4681 3.2812 3.2812s-1.4681 3.2812-3.2812 3.2812c-1.8132 0-3.2812-1.4681-3.2812-3.2812s1.4681-3.2812 3.2812-3.2812zm48.219 3.2812c2.7895 0 5.0625 2.2418 5.0625 5.0312 0 2.7895-2.273 5.0625-5.0625 5.0625s-5.0312-2.273-5.0312-5.0625 2.2418-5.0312 5.0312-5.0312z"
         fill="#fff"
         id="path32" />
    </clipPath>
    <filter
       id="o"
       color-interpolation-filters="sRGB">
      <feGaussianBlur
         stdDeviation="0.42"
         id="feGaussianBlur35" />
    </filter>
    <filter
       id="p"
       height="1.24"
       width="1.24"
       color-interpolation-filters="sRGB"
       y="-.12"
       x="-.12">
      <feGaussianBlur
         stdDeviation="4.2"
         id="feGaussianBlur38" />
    </filter>
    <linearGradient
       id="c"
       y2="7.0165"
       gradientUnits="userSpaceOnUse"
       x2="45.448"
       gradientTransform="matrix(1.0059 0 0 .99417 100 0)"
       y1="92.54"
       x1="45.448">
      <stop
         offset="0"
         id="stop41" />
      <stop
         stop-opacity=".58824"
         offset="1"
         id="stop43" />
    </linearGradient>
    <linearGradient
       id="w"
       stop-color="#fff"
       y2="74.185"
       gradientUnits="userSpaceOnUse"
       x2="52.821"
       y1="32.81"
       x1="52.821"
       gradientTransform="matrix(1.1250577,0,0,1.1250577,-6.0032471,-6.691798)">
      <stop
         offset="0"
         id="stop46" />
      <stop
         stop-opacity="0"
         offset="1"
         id="stop48" />
    </linearGradient>
    <linearGradient
       id="v"
       y2="18.702"
       gradientUnits="userSpaceOnUse"
       x2="48.714"
       y1="76.203"
       x1="48.714"
       gradientTransform="matrix(1.1250577,0,0,1.1250577,-6.0032471,-6.691798)">
      <stop
         stop-color="#dcdcdc"
         offset="0"
         id="stop51" />
      <stop
         stop-color="#f0f0f0"
         offset="1"
         id="stop53" />
    </linearGradient>
    <linearGradient
       id="u"
       y2="4.9937"
       gradientUnits="userSpaceOnUse"
       x2="10.541"
       gradientTransform="matrix(6.2941355,0.33168952,-0.33157701,6.295373,-16.103002,-20.401751)"
       y1="15.373"
       x1="11.087">
      <stop
         stop-color="#ff9604"
         offset="0"
         id="stop56" />
      <stop
         stop-color="#fff580"
         offset="1"
         id="stop58" />
    </linearGradient>
    <radialGradient
       id="g"
       xlink:href="#e"
       gradientUnits="userSpaceOnUse"
       cy="90.172"
       cx="48"
       gradientTransform="matrix(1.1573 0 0 .99591 -7.551 .19713)"
       r="42" />
    <linearGradient
       id="t"
       y2="63.893"
       xlink:href="#e"
       gradientUnits="userSpaceOnUse"
       x2="36.357"
       y1="6"
       x1="36.357" />
    <linearGradient
       id="s"
       y2="6"
       xlink:href="#c"
       gradientUnits="userSpaceOnUse"
       x2="32.251"
       gradientTransform="translate(6.3362e-7 1)"
       y1="90"
       x1="32.251" />
    <linearGradient
       id="r"
       y2="5.9996"
       xlink:href="#c"
       gradientUnits="userSpaceOnUse"
       x2="32.251"
       gradientTransform="matrix(1.0238 0 0 1.0119 -1.1429 .929)"
       y1="90"
       x1="32.251" />
    <linearGradient
       id="q"
       y2="90.239"
       xlink:href="#c"
       gradientUnits="userSpaceOnUse"
       x2="32.251"
       gradientTransform="matrix(1.0238,0,0,-1.0119,-1.1429,98.071)"
       y1="6.1317"
       x1="32.251" />
  </defs>
  <g
     fill="url(#q)"
     id="g65">
    <path
       opacity="0.08"
       d="m12 95.031c-5.5111 0-10.031-4.52-10.031-10.031v-71c0-5.5111 4.5202-10.031 10.031-10.031h72c5.5111 0 10.031 4.5202 10.031 10.031v71c0 5.5111-4.5202 10.031-10.031 10.031h-72z"
       id="path67" />
    <path
       opacity=".1"
       d="m12 94.031c-4.9716 0-9.0312-4.0596-9.0312-9.0312v-71c0-4.9718 4.0596-9.0314 9.0312-9.0314h72c4.9716 0 9.0312 4.0596 9.0312 9.0312v71c0 4.9716-4.0596 9.0312-9.0312 9.0312h-72z"
       id="path69" />
    <path
       opacity=".2"
       d="m12 93c-4.4091 0-8-3.591-8-8v-71c0-4.4091 3.5909-8 8-8h72c4.4091 0 8 3.5909 8 8v71c0 4.4091-3.5909 8-8 8h-72z"
       id="path71" />
  </g>
  <rect
     opacity=".3"
     rx="7"
     ry="7"
     height="85"
     width="86"
     y="7"
     x="5"
     fill="url(#r)"
     id="rect73" />
  <rect
     rx="6"
     ry="6"
     height="84"
     width="84"
     y="7"
     x="6"
     id="rect75"
     fill="url(#s)"
     opacity=".45" />
  <rect
     rx="6"
     ry="6"
     height="84"
     width="84"
     y="6"
     x="6"
     id="rect77"
     fill="url(#y)" />
  <rect
     clip-path="url(#f)"
     rx="12"
     ry="12"
     height="66"
     width="66"
     y="15"
     x="15"
     id="rect85"
     style="opacity:0.1;fill:url(#x);stroke:#ffffff;stroke-width:0.5;stroke-linecap:round;filter:url(#l)"
     transform="translate(2e-4,-1.2967825)" />
  <path
     d="m12 6c-3.324 0-6 2.676-6 6v72c0 0.33472 0.04135 0.6507 0.09375 0.96875 0.0487 0.2956 0.09704 0.59692 0.1875 0.875 0.00988 0.03038 0.020892 0.0636 0.03125 0.09375 0.098865 0.28777 0.23488 0.54745 0.375 0.8125 0.14459 0.27351 0.31562 0.53562 0.5 0.78125 0.18438 0.24564 0.37378 0.47347 0.59375 0.6875 0.43995 0.42806 0.94291 0.81453 1.5 1.0938 0.27854 0.13961 0.57347 0.24695 0.875 0.34375-0.2562-0.10022-0.48671-0.23627-0.71875-0.375-0.00741-0.0044-0.023866 0.0045-0.03125 0-0.0319-0.019-0.0622-0.042-0.0937-0.062-0.1204-0.077-0.231-0.164-0.3437-0.25-0.1062-0.081-0.2133-0.161-0.3126-0.25-0.1778-0.162-0.3473-0.346-0.4999-0.531-0.1075-0.131-0.2183-0.266-0.3124-0.407-0.0251-0.038-0.0385-0.086-0.0626-0.125-0.0647-0.103-0.1302-0.204-0.1874-0.312-0.1011-0.195-0.2057-0.416-0.2813-0.625-0.008-0.022-0.0236-0.041-0.0313-0.063-0.0318-0.092-0.0358-0.187-0.0624-0.281-0.0304-0.107-0.0704-0.203-0.0938-0.313-0.0729-0.341-0.125-0.698-0.125-1.062v-72c0-2.782 2.2182-5 5-5h72c2.7818 0 5 2.2182 5 5v72c0 0.3643-0.05212 0.72099-0.125 1.0625-0.04415 0.20689-0.08838 0.39766-0.15625 0.59375-0.0077 0.02195-0.0233 0.04069-0.03125 0.0625-0.06274 0.17374-0.13838 0.36745-0.21875 0.53125-0.04158 0.0828-0.07904 0.16995-0.125 0.25-0.0546 0.09721-0.12677 0.18835-0.1875 0.28125-0.09411 0.14096-0.20492 0.276-0.3125 0.40625-0.14317 0.17445-0.30314 0.347-0.46875 0.5-0.01117 0.0102-0.01998 0.02115-0.03125 0.03125-0.13839 0.12556-0.28509 0.23444-0.4375 0.34375-0.10257 0.07315-0.20432 0.15336-0.3125 0.21875-0.0074 0.0045-0.02384-0.0044-0.03125 0-0.23204 0.13873-0.46255 0.27478-0.71875 0.375 0.30153-0.0968 0.59646-0.20414 0.875-0.34375 0.55709-0.27922 1.0601-0.66569 1.5-1.0938 0.21997-0.21403 0.40937-0.44186 0.59375-0.6875s0.35541-0.50774 0.5-0.78125c0.14012-0.26505 0.27614-0.52473 0.375-0.8125 0.01041-0.03078 0.02133-0.06274 0.03125-0.09375 0.09046-0.27808 0.1388-0.5794 0.1875-0.875 0.053-0.318 0.094-0.634 0.094-0.969v-72c0-3.324-2.676-6-6-6h-72z"
     id="path87"
     fill="url(#t)"
     opacity=".5" />
  <path
     d="m12 90c-3.324 0-6-2.676-6-6v-72c0-0.33472 0.04135-0.6507 0.09375-0.96875 0.0487-0.2956 0.09704-0.59692 0.1875-0.875 0.0099-0.03 0.0209-0.063 0.0313-0.094 0.0989-0.2873 0.2349-0.547 0.375-0.812 0.1446-0.2735 0.3156-0.5356 0.5-0.7812 0.1844-0.2457 0.3738-0.4735 0.5937-0.6876 0.44-0.428 0.943-0.8145 1.5-1.0937 0.2786-0.1396 0.5735-0.2469 0.8748-0.3437-0.256 0.1002-0.4865 0.2362-0.7185 0.375-0.00741 0.0044-0.023866-0.0045-0.03125 0-0.031933 0.0193-0.062293 0.04251-0.09375 0.0625-0.1204 0.0767-0.23102 0.16351-0.34375 0.25-0.10617 0.0808-0.21328 0.16111-0.3125 0.25-0.1779 0.1614-0.3474 0.3453-0.5 0.5312-0.1075 0.1303-0.2183 0.2653-0.3124 0.4063-0.0251 0.0383-0.0385 0.0858-0.0626 0.125-0.0647 0.103-0.1302 0.2045-0.1874 0.3124-0.1011 0.1948-0.2057 0.4158-0.2813 0.625-0.008 0.0219-0.0236 0.0406-0.0313 0.0626-0.0318 0.0919-0.0358 0.1868-0.0624 0.2812-0.0304 0.1066-0.0704 0.203-0.0938 0.3125-0.0729 0.3415-0.125 0.6985-0.125 1.0625v72c0 2.7818 2.2182 5 5 5h72c2.7818 0 5-2.2182 5-5v-72c0-0.364-0.052-0.721-0.125-1.0625-0.044-0.2069-0.088-0.3977-0.156-0.5937-0.008-0.022-0.024-0.0407-0.031-0.0626-0.063-0.1737-0.139-0.3674-0.219-0.5312-0.042-0.0828-0.079-0.17-0.125-0.25-0.055-0.0972-0.127-0.1884-0.188-0.2812-0.094-0.141-0.205-0.276-0.312-0.4063-0.143-0.1745-0.303-0.347-0.469-0.5-0.011-0.0102-0.02-0.0211-0.031-0.0313-0.139-0.1255-0.285-0.2344-0.438-0.3437-0.102-0.0731-0.204-0.1534-0.312-0.2187-0.0074-0.0045-0.02384 0.0044-0.03125 0-0.23204-0.13873-0.46255-0.27478-0.71875-0.375 0.30153 0.0968 0.59646 0.20414 0.875 0.34375 0.55709 0.27922 1.0601 0.66569 1.5 1.0938 0.21997 0.21403 0.40937 0.44186 0.59375 0.6875s0.35541 0.50774 0.5 0.78125c0.14012 0.26505 0.27614 0.52473 0.375 0.8125 0.01041 0.03078 0.02133 0.06274 0.03125 0.09375 0.09046 0.27808 0.1388 0.5794 0.1875 0.875 0.053 0.318 0.094 0.634 0.094 0.969v72c0 3.324-2.676 6-6 6h-72z"
     id="path89"
     fill="url(#g)"
     opacity=".2" />
  <path
     d="m 47.190609,12.118043 c 0.0051,-3.52e-4 -0.09669,0.03064 -0.140633,0.03516 -0.01046,0.0011 -0.03635,1.67e-4 -0.03516,0 -0.04872,0.0099 -0.254443,0.03727 -0.246106,0.03516 0.0094,-0.0024 -0.290445,0.07375 -0.281265,0.07032 0.0092,-0.0035 -0.254859,0.145053 -0.246106,0.140632 0.0088,-0.0044 -0.254319,0.145987 -0.246106,0.140632 0.0082,-0.0054 -0.21852,0.146854 -0.210949,0.140632 0.0075,-0.0062 -0.2178,0.217969 -0.210948,0.210949 0.0069,-0.007 -0.181832,0.218677 -0.17579,0.210948 0.0061,-0.0078 -0.180943,0.219296 -0.17579,0.210948 a 1.4021595,1.4021595 0 0 0 0,0.03516 c -2.338433,3.906763 -4.214017,7.984535 -6.258134,11.77823 -0.01458,0.02706 -0.05572,0.04329 -0.07032,0.07032 a 1.4021595,1.4021595 0 0 0 -0.03488,0.03375 1.4021595,1.4021595 0 0 0 -0.07088,0.175509 1.4021595,1.4021595 0 0 0 -0.03488,0.03488 l -4.008019,7.664456 c -7.178093,1.276491 -14.377112,2.53453 -21.551606,3.832172 0.0062,-0.0011 -0.181854,0.03672 -0.17579,0.03516 0.0061,-0.0016 -0.18173,0.03715 -0.17579,0.03516 0.006,-0.002 -0.181573,0.07272 -0.17579,0.07032 0.0057,-0.0024 -0.146235,0.07312 -0.140633,0.07032 0.0056,-0.0028 -0.181179,0.108658 -0.17579,0.105474 0.0054,-0.0031 -0.145785,0.07387 -0.140632,0.07032 0.0052,-0.0036 -0.145526,0.10939 -0.140632,0.105475 0.0043,-0.0034 -0.116106,0.0846 -0.140632,0.105474 v 0.03516 c -1.238127,1.138671 -1.390572,2.734678 -0.984426,3.972804 0.229861,0.700686 0.719801,1.08181 1.16016,1.511852 a 1.4021595,1.4021595 0 0 0 0,0.03516 1.4021595,1.4021595 0 0 0 0.316422,0.562529 l 14.238731,14.731506 c -0.995564,7.156492 -2.04918,14.307359 -2.988379,21.516729 0.0011,-0.009 -2.26e-4,0.255186 0,0.246107 2.26e-4,-0.0091 6.97e-4,0.29031 0,0.281264 -6.96e-4,-0.009 0.03677,0.255039 0.03516,0.246107 -0.0016,-0.0089 0.07282,0.254825 0.07032,0.246106 a 1.4021595,1.4021595 0 0 0 0,0.03516 c 0.281265,0.924797 0.853919,1.622333 1.723589,2.075731 0.737284,0.38441 1.487439,0.45719 2.039167,0.421897 0.725809,-0.04642 1.204824,-0.372203 1.722688,-0.632845 0.0093,-0.0047 0.02591,0.0047 0.03516,0 a 1.4021595,1.4021595 0 0 0 0.703161,-0.210386 l 0.03516,-0.03516 0.140632,-0.07032 17.966047,-8.754074 c 6.3433,3.108084 12.716527,6.250933 19.125981,9.316828 0.03785,0.01811 0.06762,0.05221 0.105474,0.07032 0.01775,0.0097 0.03671,0.03594 0.03516,0.03516 -0.0055,-0.0028 0.181506,0.07269 0.175791,0.07032 a 1.4021595,1.4021595 0 0 0 0.105755,0.03488 c 1.614008,0.50739 3.183351,-0.114666 4.043233,-1.37122 0.548915,-0.802133 0.615834,-1.737764 0.492212,-2.601696 a 1.4021595,1.4021595 0 0 0 0,-0.527371 l -2.917275,-20.56718 c 5.007857,-5.135214 10.141159,-10.240613 15.118527,-15.504421 0.02864,-0.0303 0.04168,-0.07516 0.07032,-0.105474 0.03593,-0.03528 0.07269,-0.07286 0.07032,-0.07032 -0.0054,0.0059 0.145492,-0.182046 0.140632,-0.175791 -0.0048,0.0063 0.14493,-0.18245 0.140632,-0.17579 -0.0043,0.0066 0.109153,-0.182811 0.105474,-0.17579 a 1.4021595,1.4021595 0 0 0 0.07032,-0.105474 c 0.628761,-1.428824 0.27519,-2.981516 -0.703161,-4.008019 -0.632282,-0.664909 -1.409697,-0.88092 -2.14436,-0.98555 a 1.4021595,1.4021595 0 0 0 -0.49165,-0.175509 L 61.327521,33.142109 c -3.42355,-6.42183 -6.776222,-12.935914 -10.301028,-19.371244 4.58e-4,8.87e-4 0.0044,-0.02725 0,-0.03516 -0.01754,-0.03166 -0.07234,-0.108917 -0.07032,-0.105474 0.0026,0.0043 -0.07308,-0.109637 -0.07032,-0.105475 0.0028,0.0042 -0.07332,-0.144626 -0.07032,-0.140632 0.003,0.0041 -0.07353,-0.109299 -0.07032,-0.105474 a 1.4021595,1.4021595 0 0 0 -0.036,-0.03488 c -0.778526,-0.868542 -1.773076,-1.044051 -2.355856,-1.090179 -0.219814,-0.01756 -0.395458,-0.03084 -0.527371,-0.03516 -0.131913,-0.0043 -0.373283,-0.03687 -0.105474,0 v 0.03516 c -0.04394,-0.0045 -0.145661,-0.03551 -0.140632,-0.03516 0.0062,4.36e-4 -0.217193,0 -0.210949,0 0.0062,0 -0.182023,4.36e-4 -0.17579,0 z"
     id="path91"
     inkscape:connector-curvature="0"
     style="opacity:0.05" />
  <path
     d="m 47.225484,13.524365 a 1.1342832,1.1342832 0 0 0 -0.808635,0.52737 c -2.344058,3.916101 -4.265319,8.095803 -6.398766,12.024618 a 1.1342832,1.1342832 0 0 0 -0.03516,0 l -4.324722,8.296175 c -7.402992,1.318793 -14.830511,2.601246 -22.21989,3.937702 a 1.1342832,1.1342832 0 0 0 -0.562529,0.281265 c -0.745452,0.673583 -0.846572,1.772641 -0.597687,2.53138 0.217856,0.66411 0.665269,1.119713 1.195374,1.511852 l -0.03488,0.03488 14.731506,15.223156 c -1.022677,7.389379 -2.127484,14.768633 -3.093909,22.185014 a 1.1342832,1.1342832 0 0 0 0.03488,0.456773 c 0.160659,0.528192 0.568762,1.030643 1.019584,1.26569 0.450822,0.235047 0.901171,0.271668 1.300792,0.246106 0.728531,-0.0466 1.317105,-0.337359 1.828218,-0.668003 v 0.03516 l 0.175791,-0.105474 18.738961,-9.141094 c 6.592726,3.224753 13.159801,6.53186 19.794266,9.703623 a 1.1342832,1.1342832 0 0 0 0.140632,0.07032 c 0.937443,0.294698 1.99034,-0.15591 2.461064,-0.843793 0.417351,-0.609871 0.446592,-1.37122 0.210948,-2.109483 h 0.07032 L 67.828049,57.681249 C 73.018053,52.347801 78.343175,47.079718 83.473101,41.649177 a 1.1342832,1.1342832 0 0 0 0.247512,-0.316142 c 0.378021,-0.860669 0.140633,-1.870971 -0.421896,-2.461626 -0.48265,-0.506276 -1.193687,-0.664909 -1.897972,-0.668284 l 0.03488,-0.105756 -21.02508,-3.691314 C 56.863236,27.768214 53.419434,21.021243 49.793373,14.401403 A 1.1342832,1.1342832 0 0 0 49.652741,14.190455 C 49.229832,13.719393 48.626283,13.587964 48.246419,13.55761 47.866554,13.52726 47.603775,13.53078 47.543258,13.52245 a 1.1342832,1.1342832 0 0 0 -0.316423,0 z"
     id="path93"
     inkscape:connector-curvature="0"
     style="opacity:0.1" />
  <path
     d="m 47.396494,14.647172 c -2.304231,3.84961 -4.224817,8.003548 -6.379752,11.97174 -1.524679,2.919074 -3.049244,5.838037 -4.573922,8.757111 -7.593015,1.35457 -15.220907,2.683263 -22.792545,4.052571 -0.814227,0.73572 -0.187255,1.973126 0.611559,2.468602 5.033058,5.198329 10.066004,10.396771 15.0994,15.59555 -1.044594,7.573326 -2.1816,15.138777 -3.168838,22.717166 0.334198,1.098709 1.894485,0.652173 2.577732,0.168275 6.47032,-3.155 12.940414,-6.310112 19.410621,-9.465111 6.767448,3.304857 13.507443,6.707594 20.291541,9.95136 1.007051,0.31658 1.653385,-0.808466 1.25354,-1.688374 C 68.700901,71.880063 67.67485,64.584064 66.649922,57.288064 71.97032,51.809033 77.424599,46.434632 82.661743,40.891473 83.087016,39.925048 82.202719,39.102631 81.236295,39.221887 74.062927,37.953947 66.888434,36.686007 59.715066,35.419192 56.068754,28.609218 52.521447,21.730615 48.813257,14.962267 48.445363,14.552746 47.878334,14.713629 47.396809,14.647251 z"
     id="path95"
     inkscape:connector-curvature="0"
     style="opacity:0.15" />
  <path
     d="M 14.247793,40.23661 37.152843,36.279107 48.003575,15.719802 58.849243,36.285858 81.753169,40.255961 65.544463,56.922567 68.845157,79.936748 47.988837,69.671721 27.128017,79.923247 30.443562,56.916941 14.247231,40.236835 z"
     id="path97"
     inkscape:connector-curvature="0"
     style="opacity:0.3" />
  <path
     d="M 14.247793,39.111553 37.152843,35.15405 48.003575,14.594745 58.849243,35.1608 81.753169,39.130904 65.544463,55.797509 68.845157,78.81169 47.988837,68.546663 27.128017,78.798189 30.443562,55.791884 14.247231,39.111778 z"
     id="path99"
     style="fill:url(#u)"
     inkscape:connector-curvature="0" />
  <g
     id="g101"
     transform="matrix(1.1250577,0,0,1.1250577,-6.0032471,-6.691798)"
     style="fill:#aa4400">
    <path
       d="M 48,23.728 40.001,38.921 23.067,41.856 35.04,54.167 32.573,71.179 48,63.595 63.401,71.179 60.96,54.167 72.933,41.856 56.025,38.921 48,23.728 z m 0.02598,4.0516 6.3631,12.129 a 1.8459,1.8456 1.5484 0 0 1.2467,0.96096 l 13.583,2.3115 -9.5577,9.6876 a 1.8459,1.8456 1.5484 0 0 -0.49347,1.4285 l 1.896,13.66 -12.207,-6.025 a 1.8459,1.8456 1.5484 0 0 -1.6103,0.05194 l -12.259,5.921 1.87,-13.453 a 1.8459,1.8456 1.5484 0 0 -0.49347,-1.4804 l -9.5317,-9.8434 13.531,-2.4933 a 1.8459,1.8456 1.5484 0 0 1.3505,-0.93499 l 6.3112,-11.921 z"
       id="path103"
       inkscape:connector-curvature="0"
       style="opacity:0.1" />
    <path
       d="M 48,22.299 39.519,38.408 21.566,41.519 34.26,54.571 31.644,72.607 48,64.567 64.329,72.607 61.74,54.571 74.434,41.519 56.509,38.408 48,22.299 z m 0.02754,4.2956 6.7463,12.859 a 1.9571,1.9567 1.5484 0 0 1.3217,1.0188 l 14.401,2.4507 -10.133,10.271 a 1.9571,1.9567 1.5484 0 0 -0.52318,1.5145 l 2.0101,14.484 -12.942,-6.3883 a 1.9571,1.9567 1.5484 0 0 -1.7072,0.05507 l -12.997,6.2782 1.9826,-14.264 a 1.9571,1.9567 1.5484 0 0 -0.524,-1.571 l -10.106,-10.436 14.346,-2.643 a 1.9571,1.9567 1.5484 0 0 1.4319,-0.99129 l 6.6912,-12.639 z"
       id="path105"
       inkscape:connector-curvature="0"
       style="opacity:0.2" />
    <path
       d="M 48,20.513 38.917,37.765 19.689,41.098 33.284,55.076 30.483,74.393 48,65.782 65.488,74.393 62.716,55.076 76.311,41.098 57.113,37.765 48,20.513 z m 0.02949,4.6005 7.2252,13.772 a 2.096,2.0956 1.5484 0 0 1.4156,1.0912 l 15.424,2.6247 -10.853,11 a 2.096,2.0956 1.5484 0 0 -0.56032,1.622 l 2.1528,15.512 -13.861,-6.8418 a 2.096,2.0956 1.5484 0 0 -1.8284,0.05898 l -13.92,6.724 2.123,-15.276 a 2.096,2.0956 1.5484 0 0 -0.56,-1.681 l -10.823,-11.177 15.365,-2.831 a 2.096,2.0956 1.5484 0 0 1.5335,-1.0617 l 7.1662,-13.536 z"
       id="path107"
       inkscape:connector-curvature="0"
       style="opacity:0.4" />
  </g>
  <path
     d="M 47.999525,14.578544 37.170844,35.146849 14.247793,39.119428 30.455375,55.783783 27.116203,78.81259 47.999525,68.546438 68.84797,78.81259 65.543675,55.783783 81.751256,39.119428 58.863083,35.146849 47.999525,14.578544 z m 0.03516,5.484656 8.613667,16.419093 a 2.4988657,2.4983032 1.5484 0 0 1.687587,1.300792 l 18.387941,3.12901 -12.938164,13.113673 a 2.4988657,2.4983032 1.5484 0 0 -0.667159,1.935099 l 2.566482,18.493699 -16.524848,-8.156668 a 2.4988657,2.4983032 1.5484 0 0 -2.179799,0.07032 L 30.38579,74.384254 32.91717,56.17182 A 2.4988657,2.4983032 1.5484 0 0 32.248885,54.168088 L 19.345598,40.842904 37.662663,37.467731 a 2.4988657,2.4983032 1.5484 0 0 1.828218,-1.26569 l 8.543464,-16.137828 z"
     id="path109"
     style="fill:url(#v)"
     inkscape:connector-curvature="0" />
  <path
     d="M 47.999525,14.578544 37.170844,35.146849 14.247793,39.119428 30.455375,55.783783 27.116203,78.81259 47.999525,68.546438 68.84797,78.81259 65.543675,55.783783 81.751256,39.119428 58.863083,35.146849 47.999525,14.578544 z m 0.03516,1.933749 10.019989,19.091105 a 0.81842325,0.81826574 1.5484 0 0 0.210949,0.17579 0.81842325,0.81826574 1.5484 0 0 0.17579,0.210948 0.81842325,0.81826574 1.5484 0 0 0.210948,0.03516 0.81842325,0.81826574 1.5484 0 0 0.17579,0 l 21.306344,3.69154 -15.188281,15.363788 a 0.81842325,0.81826574 1.5484 0 0 -0.210948,0.17579 0.81842325,0.81826574 1.5484 0 0 -0.03516,0.210949 0.81842325,0.81826574 1.5484 0 0 0,0.210948 0.81842325,0.81826574 1.5484 0 0 0,0.17579 l 2.989278,21.481853 -19.195735,-9.493237 a 0.81842325,0.81826574 1.5484 0 0 -0.210948,-0.03516 0.81842325,0.81826574 1.5484 0 0 -0.210948,0 0.81842325,0.81826574 1.5484 0 0 -0.175791,0 0.81842325,0.81826574 1.5484 0 0 -0.210948,-0.03516 L 28.277769,77.229858 31.16073,55.853761 a 0.81842325,0.81826574 1.5484 0 0 0,-0.17579 0.81842325,0.81826574 1.5484 0 0 0.03488,-0.211511 0.81842325,0.81826574 1.5484 0 0 -0.210386,-0.211511 L 16.043329,39.679651 37.349672,35.882581 a 0.81842325,0.81826574 1.5484 0 0 0.175791,0 0.81842325,0.81826574 1.5484 0 0 0.210385,-0.174384 0.81842325,0.81826574 1.5484 0 0 0.210386,-0.211511 L 48.036652,16.511337 z"
     id="path111"
     style="fill:url(#w)"
     inkscape:connector-curvature="0" />
</svg>
