<?xml version="1.0" encoding="UTF-8" standalone="no"?>
<svg
   xmlns:dc="http://purl.org/dc/elements/1.1/"
   xmlns:cc="http://creativecommons.org/ns#"
   xmlns:rdf="http://www.w3.org/1999/02/22-rdf-syntax-ns#"
   xmlns:svg="http://www.w3.org/2000/svg"
   xmlns="http://www.w3.org/2000/svg"
   xmlns:xlink="http://www.w3.org/1999/xlink"
   xmlns:sodipodi="http://sodipodi.sourceforge.net/DTD/sodipodi-0.dtd"
   xmlns:inkscape="http://www.inkscape.org/namespaces/inkscape"
   height="96"
   width="96"
   version="1.1"
   id="svg2"
   inkscape:version="0.48.4 r9939"
   sodipodi:docname="default-applications.svg">
  <metadata
     id="metadata115">
    <rdf:RDF>
      <cc:Work
         rdf:about="">
        <dc:format>image/svg+xml</dc:format>
        <dc:type
           rdf:resource="http://purl.org/dc/dcmitype/StillImage" />
      </cc:Work>
    </rdf:RDF>
  </metadata>
  <sodipodi:namedview
     pagecolor="#ffffff"
     bordercolor="#666666"
     borderopacity="1"
     objecttolerance="10"
     gridtolerance="10"
     guidetolerance="10"
     inkscape:pageopacity="0"
     inkscape:pageshadow="2"
     inkscape:window-width="1918"
     inkscape:window-height="1024"
     id="namedview113"
     showgrid="false"
     inkscape:snap-center="true"
     inkscape:snap-object-midpoints="true"
     inkscape:zoom="4.9166666"
     inkscape:cx="68.005969"
     inkscape:cy="5.9347947"
     inkscape:window-x="0"
     inkscape:window-y="0"
     inkscape:window-maximized="1"
     inkscape:current-layer="svg2" />
  <defs
     id="defs4">
    <linearGradient
       id="e"
       stop-color="#fff">
      <stop
         offset="0"
         id="stop7" />
      <stop
         stop-opacity="0"
         offset="1"
         id="stop9" />
    </linearGradient>
    <filter
       id="l"
       height="1.384"
       width="1.384"
       color-interpolation-filters="sRGB"
       y="-.192"
       x="-.192">
      <feGaussianBlur
         stdDeviation="5.28"
         id="feGaussianBlur12" />
    </filter>
    <linearGradient
       id="x"
       y2="138.66"
       xlink:href="#e"
       gradientUnits="userSpaceOnUse"
       x2="48"
       y1="20.221"
       x1="48" />
    <clipPath
       id="f">
      <rect
         rx="6"
         ry="6"
         height="84"
         width="84"
         y="6"
         x="6"
         fill="#fff"
         id="rect16" />
    </clipPath>
    <linearGradient
       id="y"
       y2="5.9877"
       gradientUnits="userSpaceOnUse"
       x2="48"
       y1="90"
       x1="48">
      <stop
         stop-color="#afafaf"
         offset="0"
         id="stop19" />
      <stop
         stop-color="#d8d8d8"
         offset="1"
         id="stop21" />
    </linearGradient>
    <clipPath
       id="h">
      <path
         d="m112 6c-3.324 0-6 2.676-6 6v23.719c4.1648 5.5909 10.839 9.2188 18.344 9.2188 12.613 0 22.844-10.231 22.844-22.844 0-6.2749-2.527-11.964-6.625-16.094h-7.3438c5.7812 3.1123 9.7188 9.2251 9.7188 16.25 0 10.182-8.256 18.438-18.438 18.438s-18.438-8.256-18.438-18.438c0-7.0249 3.9376-13.138 9.7188-16.25h-3.78zm34.375 0 0.46875 0.59375 0.5625-0.40625 0.5-0.1875h-1.5312zm5.9688 0 0.40625 0.75-1.6562 2.1562-1.4375 1.1875-0.625 0.28125 1.0625 2.5625 0.65625-0.25 1.8438-0.15625 2.7188 0.34375 0.4375 1.7188-2.1562 1.6875-1.6875 0.75-0.6875 0.125 0.375 2.75 0.6875-0.0625 1.8125 0.3125 2.5312 1.0625v1.7812l-2.5312 1.0312-1.8125 0.3125-0.6875-0.0625-0.375 2.75 0.6875 0.125 1.6875 0.75 2.1562 1.6875-0.4375 1.7188-2.7188 0.375-1.85-0.186-0.65625-0.21875-1.0625 2.5625 0.625 0.25 1.4375 1.1875 1.6562 2.1875-0.87 1.531-2.72-0.344-1.75-0.656-0.5625-0.375-1.6875 2.1875 0.53125 0.4375 1.0625 1.5 1.0625 2.5312-1.25 1.2812-2.57-1.062-1.5-1.0625-0.4375-0.53125-2.1875 1.6875 0.375 0.5625 0.65625 1.75 0.34375 2.7188-1.5312 0.875-2.1875-1.6562-1.1562-1.4375-0.3125-0.625-2.5312 1.0625 0.21875 0.65625 0.1875 1.8438-0.375 2.7188-1.7188 0.46875-1.6562-2.1875-0.78125-1.6875-0.125-0.6875-2.7188 0.375 0.0625 0.65625-0.3125 1.8438-1.0625 2.5312h-1.7812l-1.0625-2.5312-0.29-1.844 0.0625-0.65625-2.75-0.375-0.125 0.6875-0.75 1.6875-1.6875 2.1875-1.7188-0.46875-0.375-2.7188 0.15625-1.8438 0.25-0.65625-2.5312-1.0625-0.3125 0.625-1.1875 1.4375-2.15 1.656-1.5625-0.875 0.375-2.7188 0.625-1.75 0.40625-0.5625-2.1875-1.6875-0.4375 0.53125-0.22 0.157v40.406c0 3.324 2.676 6 6 6h25.875l-0.25-0.40625 1.8438-2.4375 1.5938-1.2812 0.65625-0.34375-1.1562-2.8125-0.71875 0.25-2.0312 0.21875-3-0.40625-0.53125-1.9062 2.4062-1.875 1.875-0.8125 0.75-0.15625-0.4-3.032-0.75 0.0625-2.0312-0.34375-2.8125-1.1562v-1.9688l2.8125-1.1875 2.0312-0.3125 0.75 0.0625 0.40625-3.0312-0.75-0.15625-1.875-0.84375-2.4062-1.8438 0.53125-1.9062 3-0.40625 2.0312 0.1875 0.71875 0.25 1.1562-2.8125-0.65625-0.3125-1.5938-1.3125-1.8438-2.4062 1-1.7188 3 0.40625 1.9062 0.71875 0.625 0.4375 1.875-2.4375-0.59375-0.5-1.19-1.658-1.16-2.812 1.41-1.375 2.8125 1.125 1.6562 1.2188 0.5 0.5625 2.4062-1.8438-0.4375-0.65625-0.6875-1.875-0.40625-3.0312 1.6875-1 2.4375 1.8438 1.3125 1.5938 0.3125 0.6875 2.8125-1.1875-0.25-0.6875-0.1875-2.0625 0.40625-3 1.875-0.5 1.875 2.4062 0.84375 1.875 0.125 0.71875 3.0312-0.375-0.0625-0.78125 0.34375-2 1.1875-2.8125h1.9688l1.1562 2.8125 0.34375 2-0.0625 0.78125 3.0312 0.375 0.125-0.71875 0.84375-1.875 1.875-2.4062 1.875 0.5 0.4375 3-0.21875 2.0625-0.25 0.6875 2.8125 1.1875 0.34375-0.6875 1.2812-1.5938 2.4062-1.8438 1.7188 1-0.375 3.0312-0.75 1.875-0.40625 0.65625 2.4062 1.8438 0.5-0.5625 0.84-0.625v-36.344c0-3.324-2.676-6-6-6h-31.66zm-27.85 2.625c-7.5315 0-13.656 6.0935-13.656 13.625s6.1247 13.656 13.656 13.656c7.5315 0 13.625-6.1247 13.625-13.656 0-7.5315-6.0935-13.625-13.625-13.625zm44.562 38.531c-5.7458 0-11.052 1.9079-15.312 5.125l8.1562 8.7812c2.0761-1.2932 4.5319-2.0312 7.1562-2.0312 1.3235 0 2.603 0.17696 3.8125 0.53125l5.5-10.625c-2.8824-1.1353-6.0278-1.7812-9.3125-1.7812zm13.906 4.1562-5.5 10.656c3.0873 2.4513 5.1058 6.2039 5.1562 10.438l7.37 1.344v-15.562c-1.8742-2.718-4.2632-5.0613-7.0312-6.875zm-62.656 2.1562h1.2188l0.9375 2.0938 0.0625 0.71875-0.1875 1.2812 2.2188 0.59375 0.46875-1.1875 0.4375-0.59375 1.875-1.3125 1.0625 0.625-0.25 2.25-0.28125 0.6875-0.8125 0.96875 1.625 1.6562 1-0.78125 0.6875-0.3125 2.25-0.21875 0.625 1.0625-1.3438 1.8438-0.59375 0.4375-1.1875 0.46875 0.59375 2.2188 1.25-0.1875 0.75 0.09375 2.0625 0.9375v1.25l-2.0938 0.9375-0.71875 0.0625-1.25-0.1875-0.625 2.2188 1.1875 0.46875 0.59375 0.4375 1.3438 1.8438-0.625 1.0625-2.2812-0.21875-0.65625-0.3125-1-0.78125-1.625 1.625 0.78125 1 0.28125 0.65625 0.21875 2.2812-1.0625 0.59375-1.8438-1.3125-0.4375-0.625-0.46875-1.1562-2.2188 0.5625 0.1875 1.2812-0.0625 0.71875-0.96875 2.0938h-1.2188l-0.9375-2.0938-0.0625-0.75 0.1875-1.25-2.2188-0.59375-0.5 1.1875-0.40625 0.59375-1.875 1.3125-1.0625-0.625 0.21875-2.25 0.3125-0.6875 0.8125-1-1.625-1.625-1 0.78125-0.6875 0.3125-2.2812 0.21875-0.59375-1.0625 1.3438-1.875 0.59375-0.40625 1.1875-0.46875-0.59375-2.2188-1.25 0.15625-0.75-0.0625-2.0625-0.9375v-1.25l2.0625-0.9375 0.75-0.0625 1.25 0.1875 0.59375-2.2188-1.1562-0.46875-0.59375-0.4375-1.3438-1.8438 0.625-1.0625 2.2812 0.21875 0.65625 0.3125 1 0.78125 1.625-1.625-0.78125-1-0.32-0.656-0.21-2.281 1.09-0.625 1.8438 1.3438 0.4375 0.59375 0.4375 1.1875 2.25-0.59375-0.1875-1.25 0.0625-0.71875 0.96875-2.0938zm29.625 2.3438c-3.9326 4.4748-6.3125 10.329-6.3125 16.75 0 2.8687 0.49734 5.614 1.375 8.1875l10.906-4.9688c-0.25-1.025-0.41-2.117-0.41-3.219 0-2.9834 0.9581-5.7295 2.5938-7.9688l-8.15-8.781zm-29.094 8.375c-1.8132 0-3.2812 1.4681-3.2812 3.2812s1.4681 3.2812 3.2812 3.2812c1.8132 0 3.2812-1.4681 3.2812-3.2812s-1.4681-3.2812-3.2812-3.2812zm48.219 3.2812c-2.7895 0-5.0312 2.2418-5.0312 5.0312 0 2.7895 2.2418 5.0625 5.0312 5.0625 2.7895 0 5.0625-2.273 5.0625-5.0625s-2.273-5.0312-5.0625-5.0312zm12.62 10.032c-1.4499 3.7088-4.4932 6.6216-8.2812 7.9062l0.62 4.594h9.97c3.324 0 6-2.676 6-6v-4.969l-8.31-1.531zm-23.625 2.9688-10.906 5c0.96641 1.6366 2.111 3.156 3.4062 4.5312h18.25l-0.53125-3.9062c-4.2039-0.24279-7.9024-2.4075-10.219-5.625zm-13.9 9.281-0.35 0.25h0.53125l-0.1875-0.25z"
         fill="#fff"
         id="path24" />
    </clipPath>
    <linearGradient
       id="z"
       y2="5.597"
       gradientUnits="userSpaceOnUse"
       x2="57.518"
       gradientTransform="matrix(1.0172,0,0,1.0172,-156.42719,28.810812)"
       y1="90"
       x1="57.518">
      <stop
         stop-color="#969696"
         offset="0"
         id="stop27" />
      <stop
         stop-color="#d2d2d2"
         offset="1"
         id="stop29" />
    </linearGradient>
    <clipPath
       id="i">
      <path
         d="m115.78 6c-5.7812 3.1123-9.7188 9.2251-9.7188 16.25 0 10.182 8.256 18.438 18.438 18.438s18.438-8.256 18.438-18.438c0-7.0249-3.9376-13.138-9.7188-16.25h-17.438zm24.781 0c4.098 4.1293 6.625 9.8189 6.625 16.094 0 12.613-10.231 22.844-22.844 22.844-7.5048 0.000001-14.179-3.6278-18.344-9.2188v7.875l0.21875-0.15625 0.4375-0.53125 2.1875 1.6875-0.40625 0.5625-0.625 1.75-0.375 2.7188 1.5625 0.875 2.1562-1.6562 1.1875-1.4375 0.3125-0.625 2.5312 1.0625-0.25 0.65625-0.15625 1.8438 0.375 2.7188 1.7188 0.46875 1.6875-2.1875 0.75-1.6875 0.125-0.6875 2.75 0.375-0.07 0.656 0.28125 1.8438 1.0625 2.5312h1.7812l1.0625-2.5312 0.31-1.844-0.0625-0.65625 2.7188-0.375 0.125 0.6875 0.78125 1.6875 1.6562 2.1875 1.7188-0.46875 0.375-2.7188-0.18-1.844-0.21875-0.65625 2.5312-1.0625 0.3125 0.625 1.1562 1.4375 2.1875 1.6562 1.5312-0.875-0.34375-2.7188-0.65625-1.75-0.375-0.5625 2.1875-1.6875 0.4375 0.53125 1.5 1.0625 2.5625 1.0625 1.25-1.2812-1.0625-2.5312-1.0625-1.5-0.53125-0.4375 1.6875-2.1875 0.5625 0.375 1.75 0.65625 2.72 0.344 0.875-1.5312-1.6562-2.1875-1.4375-1.1875-0.625-0.25 1.0625-2.5625 0.65625 0.21875 1.8438 0.1875 2.7188-0.375 0.4375-1.7188-2.1562-1.6875-1.6875-0.75-0.6875-0.125 0.375-2.75 0.6875 0.0625 1.8125-0.3125 2.52-1.032v-1.7812l-2.5312-1.0625-1.8125-0.3125-0.6875 0.0625-0.375-2.75 0.6875-0.125 1.6875-0.75 2.1562-1.6875-0.4375-1.7188-2.7188-0.34375-1.8438 0.15625-0.65625 0.25-1.0625-2.5625 0.625-0.28125 1.4375-1.1875 1.66-2.156-0.41-0.75h-4.4375l-0.5 0.1875-0.5625 0.40625-0.46-0.5938h-5.82zm-16.06 2.625c7.5315 0 13.625 6.0935 13.625 13.625s-6.0935 13.656-13.625 13.656-13.656-6.1247-13.656-13.656c0-7.5315 6.1247-13.625 13.656-13.625zm43.594 28.219-1.1875 2.8125-0.34375 2 0.0625 0.78125-3.0312 0.375-0.125-0.71875-0.84375-1.875-1.875-2.4062-1.875 0.5-0.40625 3 0.1875 2.0625 0.25 0.6875-2.8125 1.1875-0.3125-0.6875-1.3125-1.5938-2.4375-1.8438-1.6875 1 0.40625 3.0312 0.6875 1.875 0.4375 0.65625-2.4062 1.8438-0.5-0.5625-1.65-1.218-2.81-1.125-1.41 1.375 1.1562 2.8125 1.1875 1.6562 0.59375 0.5-1.875 2.4375-0.625-0.4375-1.9062-0.71875-3-0.40625-1 1.7188 1.8438 2.4062 1.5938 1.3125 0.65625 0.3125-1.1562 2.8125-0.71875-0.25-2.0312-0.1875-3 0.40625-0.53125 1.9062 2.4062 1.8438 1.875 0.84375 0.75 0.15625-0.40625 3.0312-0.75-0.0625-2.0312 0.3125-2.8125 1.1875v1.9688l2.8125 1.1562 2.0312 0.34375 0.75-0.0625 0.40625 3.0312-0.75 0.15625-1.875 0.8125-2.4062 1.875 0.53125 1.9062 3 0.40625 2.0312-0.21875 0.71875-0.25 1.1562 2.8125-0.65625 0.34375-1.5938 1.2812-1.8438 2.4375 0.25 0.40625h5.9375l0.34375-0.25 0.1875 0.25h6.2188c-1.2952-1.3752-2.4398-2.8946-3.4062-4.5312l10.906-5c2.3164 3.2175 6.0148 5.3822 10.219 5.625l0.53 3.91h5.2188l-0.625-4.5938c3.788-1.2847 6.8314-4.1975 8.2812-7.9062l8.32 1.531v-5.281l-7.38-1.344c-0.0504-4.2336-2.069-7.9862-5.1562-10.438l5.5-10.656c2.768 1.8137 5.157 4.157 7.0312 6.875v-9.8438l-0.84375 0.625-0.5 0.5625-2.4062-1.8438 0.40625-0.65625 0.75-1.875 0.375-3.0312-1.7188-1-2.4062 1.8438-1.2812 1.5938-0.34375 0.6875-2.8125-1.1875 0.25-0.6875 0.21875-2.0625-0.4375-3-1.875-0.5-1.875 2.4062-0.84375 1.875-0.125 0.71875-3.0312-0.375 0.0625-0.78125-0.34375-2-1.1562-2.8125h-1.9688zm0.96875 10.312c3.2847 0 6.4301 0.64595 9.3125 1.7812l-5.5 10.625c-1.2094-0.35429-2.489-0.53125-3.8125-0.53125-2.6243 0-5.0802 0.73807-7.1562 2.0312l-8.15-8.781c4.2606-3.2171 9.5667-5.125 15.312-5.125zm-48.75 6.3125-0.96875 2.0938-0.0625 0.71875 0.1875 1.25-2.25 0.59375-0.4375-1.1875-0.4375-0.59375-1.84-1.344-1.0938 0.625 0.21875 2.2812 0.3125 0.65625 0.78125 1-1.625 1.625-1-0.78125-0.65625-0.3125-2.2812-0.21875-0.625 1.0625 1.3438 1.8438 0.59375 0.4375 1.1562 0.46875-0.59375 2.2188-1.25-0.1875-0.75 0.0625-2.0625 0.9375v1.25l2.0625 0.9375 0.75 0.0625 1.25-0.15625 0.59375 2.2188-1.1875 0.46875-0.59375 0.40625-1.3438 1.875 0.59375 1.0625 2.2812-0.21875 0.6875-0.3125 1-0.78125 1.625 1.625-0.8125 1-0.3125 0.6875-0.21875 2.25 1.0625 0.625 1.875-1.3125 0.40625-0.59375 0.5-1.1875 2.2188 0.59375-0.1875 1.25 0.0625 0.75 0.9375 2.0938h1.2188l0.96875-2.0938 0.0625-0.71875-0.1875-1.2812 2.2188-0.5625 0.46875 1.1562 0.4375 0.625 1.8438 1.3125 1.0625-0.59375-0.21875-2.2812-0.28125-0.65625-0.78125-1 1.625-1.625 1 0.78125 0.65625 0.3125 2.2812 0.21875 0.625-1.0625-1.34-1.844-0.59375-0.4375-1.1875-0.46875 0.625-2.2188 1.25 0.1875 0.71875-0.0625 2.0938-0.9375v-1.25l-2.0625-0.9375-0.75-0.09375-1.25 0.1875-0.59375-2.2188 1.1875-0.46875 0.59375-0.4375 1.34-1.844-0.625-1.0625-2.25 0.21875-0.6875 0.3125-1 0.78125-1.625-1.6562 0.8125-0.96875 0.28125-0.6875 0.25-2.25-1.0625-0.625-1.875 1.3125-0.4375 0.59375-0.46875 1.1875-2.2188-0.59375 0.1875-1.2812-0.0625-0.71875-0.9375-2.0938h-1.2188zm29.625 2.3438 8.1562 8.7812c-1.64 2.24-2.6 4.986-2.6 7.969 0 1.1014 0.15791 2.1934 0.40625 3.2188l-10.91 4.969c-0.87766-2.5735-1.375-5.3188-1.375-8.1875 0-6.4208 2.3799-12.275 6.3125-16.75zm-29.094 8.375c1.8132 0 3.2812 1.4681 3.2812 3.2812s-1.4681 3.2812-3.2812 3.2812c-1.8132 0-3.2812-1.4681-3.2812-3.2812s1.4681-3.2812 3.2812-3.2812zm48.219 3.2812c2.7895 0 5.0625 2.2418 5.0625 5.0312 0 2.7895-2.273 5.0625-5.0625 5.0625s-5.0312-2.273-5.0312-5.0625 2.2418-5.0312 5.0312-5.0312z"
         fill="#fff"
         id="path32" />
    </clipPath>
    <filter
       id="o"
       color-interpolation-filters="sRGB">
      <feGaussianBlur
         stdDeviation="0.42"
         id="feGaussianBlur35" />
    </filter>
    <filter
       id="p"
       height="1.24"
       width="1.24"
       color-interpolation-filters="sRGB"
       y="-.12"
       x="-.12">
      <feGaussianBlur
         stdDeviation="4.2"
         id="feGaussianBlur38" />
    </filter>
    <linearGradient
       id="c"
       y2="7.0165"
       gradientUnits="userSpaceOnUse"
       x2="45.448"
       gradientTransform="matrix(1.0059 0 0 .99417 100 0)"
       y1="92.54"
       x1="45.448">
      <stop
         offset="0"
         id="stop41" />
      <stop
         stop-opacity=".58824"
         offset="1"
         id="stop43" />
    </linearGradient>
    <linearGradient
       id="w"
       stop-color="#fff"
       y2="74.185"
       gradientUnits="userSpaceOnUse"
       x2="52.821"
       y1="32.81"
       x1="52.821">
      <stop
         offset="0"
         id="stop46" />
      <stop
         stop-opacity="0"
         offset="1"
         id="stop48" />
    </linearGradient>
    <linearGradient
       id="v"
       y2="18.702"
       gradientUnits="userSpaceOnUse"
       x2="48.714"
       y1="76.203"
       x1="48.714">
      <stop
         stop-color="#dcdcdc"
         offset="0"
         id="stop51" />
      <stop
         stop-color="#f0f0f0"
         offset="1"
         id="stop53" />
    </linearGradient>
    <linearGradient
       id="u"
       y2="4.9937"
       gradientUnits="userSpaceOnUse"
       x2="10.541"
       gradientTransform="matrix(5.5945 .29482 -.29472 5.5956 -8.9771 -12.186)"
       y1="15.373"
       x1="11.087">
      <stop
         stop-color="#ff9604"
         offset="0"
         id="stop56" />
      <stop
         stop-color="#fff580"
         offset="1"
         id="stop58" />
    </linearGradient>
    <radialGradient
       id="g"
       xlink:href="#e"
       gradientUnits="userSpaceOnUse"
       cy="90.172"
       cx="48"
       gradientTransform="matrix(1.1573 0 0 .99591 -7.551 .19713)"
       r="42" />
    <linearGradient
       id="t"
       y2="63.893"
       xlink:href="#e"
       gradientUnits="userSpaceOnUse"
       x2="36.357"
       y1="6"
       x1="36.357" />
    <linearGradient
       id="s"
       y2="6"
       xlink:href="#c"
       gradientUnits="userSpaceOnUse"
       x2="32.251"
       gradientTransform="translate(6.3362e-7 1)"
       y1="90"
       x1="32.251" />
    <linearGradient
       id="r"
       y2="5.9996"
       xlink:href="#c"
       gradientUnits="userSpaceOnUse"
       x2="32.251"
       gradientTransform="matrix(1.0238 0 0 1.0119 -1.1429 .929)"
       y1="90"
       x1="32.251" />
    <linearGradient
       id="q"
       y2="90.239"
       xlink:href="#c"
       gradientUnits="userSpaceOnUse"
       x2="32.251"
       gradientTransform="matrix(1.0238,0,0,-1.0119,-1.1429,98.071)"
       y1="6.1317"
       x1="32.251" />
    <linearGradient
       x1="18.000002"
       y1="47.999897"
       x2="78.000175"
       y2="47.999897"
       id="linearGradient3921"
       xlink:href="#linearGradient3971"
       gradientUnits="userSpaceOnUse"
       gradientTransform="matrix(0,1,1,0,1.9e-4,-1.9e-4)" />
    <linearGradient
       x1="628"
       y1="667"
       x2="628"
       y2="779"
       id="linearGradient3971"
       gradientUnits="userSpaceOnUse"
       gradientTransform="translate(-564,-664)">
      <stop
         id="stop3973"
         style="stop-color:#838383;stop-opacity:1;"
         offset="0" />
      <stop
         id="stop3977"
         style="stop-color:#000000;stop-opacity:1;"
         offset="1" />
    </linearGradient>
  </defs>
  <g
     fill="url(#q)"
     id="g65">
    <path
       opacity="0.08"
       d="m12 95.031c-5.5111 0-10.031-4.52-10.031-10.031v-71c0-5.5111 4.5202-10.031 10.031-10.031h72c5.5111 0 10.031 4.5202 10.031 10.031v71c0 5.5111-4.5202 10.031-10.031 10.031h-72z"
       id="path67" />
    <path
       opacity=".1"
       d="m12 94.031c-4.9716 0-9.0312-4.0596-9.0312-9.0312v-71c0-4.9718 4.0596-9.0314 9.0312-9.0314h72c4.9716 0 9.0312 4.0596 9.0312 9.0312v71c0 4.9716-4.0596 9.0312-9.0312 9.0312h-72z"
       id="path69" />
    <path
       opacity=".2"
       d="m12 93c-4.4091 0-8-3.591-8-8v-71c0-4.4091 3.5909-8 8-8h72c4.4091 0 8 3.5909 8 8v71c0 4.4091-3.5909 8-8 8h-72z"
       id="path71" />
  </g>
  <rect
     opacity=".3"
     rx="7"
     ry="7"
     height="85"
     width="86"
     y="7"
     x="5"
     fill="url(#r)"
     id="rect73" />
  <rect
     opacity=".45"
     rx="6"
     ry="6"
     height="84"
     width="84"
     y="7"
     x="6"
     fill="url(#s)"
     id="rect75" />
  <rect
     rx="6"
     ry="6"
     height="84"
     width="84"
     y="6"
     x="6"
     fill="url(#y)"
     id="rect77" />
  <rect
     clip-path="url(#f)"
     rx="12"
     ry="12"
     height="66"
     width="66"
     y="15"
     x="15"
     id="rect85"
     filter="url(#l)"
     stroke-linecap="round"
     stroke-width=".5"
     stroke="#fff"
     fill="url(#x)"
     opacity=".1" />
  <path
     d="m12 6c-3.324 0-6 2.676-6 6v72c0 0.33472 0.04135 0.6507 0.09375 0.96875 0.0487 0.2956 0.09704 0.59692 0.1875 0.875 0.00988 0.03038 0.020892 0.0636 0.03125 0.09375 0.098865 0.28777 0.23488 0.54745 0.375 0.8125 0.14459 0.27351 0.31562 0.53562 0.5 0.78125 0.18438 0.24564 0.37378 0.47347 0.59375 0.6875 0.43995 0.42806 0.94291 0.81453 1.5 1.0938 0.27854 0.13961 0.57347 0.24695 0.875 0.34375-0.2562-0.10022-0.48671-0.23627-0.71875-0.375-0.00741-0.0044-0.023866 0.0045-0.03125 0-0.0319-0.019-0.0622-0.042-0.0937-0.062-0.1204-0.077-0.231-0.164-0.3437-0.25-0.1062-0.081-0.2133-0.161-0.3126-0.25-0.1778-0.162-0.3473-0.346-0.4999-0.531-0.1075-0.131-0.2183-0.266-0.3124-0.407-0.0251-0.038-0.0385-0.086-0.0626-0.125-0.0647-0.103-0.1302-0.204-0.1874-0.312-0.1011-0.195-0.2057-0.416-0.2813-0.625-0.008-0.022-0.0236-0.041-0.0313-0.063-0.0318-0.092-0.0358-0.187-0.0624-0.281-0.0304-0.107-0.0704-0.203-0.0938-0.313-0.0729-0.341-0.125-0.698-0.125-1.062v-72c0-2.782 2.2182-5 5-5h72c2.7818 0 5 2.2182 5 5v72c0 0.3643-0.05212 0.72099-0.125 1.0625-0.04415 0.20689-0.08838 0.39766-0.15625 0.59375-0.0077 0.02195-0.0233 0.04069-0.03125 0.0625-0.06274 0.17374-0.13838 0.36745-0.21875 0.53125-0.04158 0.0828-0.07904 0.16995-0.125 0.25-0.0546 0.09721-0.12677 0.18835-0.1875 0.28125-0.09411 0.14096-0.20492 0.276-0.3125 0.40625-0.14317 0.17445-0.30314 0.347-0.46875 0.5-0.01117 0.0102-0.01998 0.02115-0.03125 0.03125-0.13839 0.12556-0.28509 0.23444-0.4375 0.34375-0.10257 0.07315-0.20432 0.15336-0.3125 0.21875-0.0074 0.0045-0.02384-0.0044-0.03125 0-0.23204 0.13873-0.46255 0.27478-0.71875 0.375 0.30153-0.0968 0.59646-0.20414 0.875-0.34375 0.55709-0.27922 1.0601-0.66569 1.5-1.0938 0.21997-0.21403 0.40937-0.44186 0.59375-0.6875s0.35541-0.50774 0.5-0.78125c0.14012-0.26505 0.27614-0.52473 0.375-0.8125 0.01041-0.03078 0.02133-0.06274 0.03125-0.09375 0.09046-0.27808 0.1388-0.5794 0.1875-0.875 0.053-0.318 0.094-0.634 0.094-0.969v-72c0-3.324-2.676-6-6-6h-72z"
     id="path87"
     fill="url(#t)"
     opacity=".5" />
  <path
     opacity=".2"
     d="m12 90c-3.324 0-6-2.676-6-6v-72c0-0.33472 0.04135-0.6507 0.09375-0.96875 0.0487-0.2956 0.09704-0.59692 0.1875-0.875 0.0099-0.03 0.0209-0.063 0.0313-0.094 0.0989-0.2873 0.2349-0.547 0.375-0.812 0.1446-0.2735 0.3156-0.5356 0.5-0.7812 0.1844-0.2457 0.3738-0.4735 0.5937-0.6876 0.44-0.428 0.943-0.8145 1.5-1.0937 0.2786-0.1396 0.5735-0.2469 0.8748-0.3437-0.256 0.1002-0.4865 0.2362-0.7185 0.375-0.00741 0.0044-0.023866-0.0045-0.03125 0-0.031933 0.0193-0.062293 0.04251-0.09375 0.0625-0.1204 0.0767-0.23102 0.16351-0.34375 0.25-0.10617 0.0808-0.21328 0.16111-0.3125 0.25-0.1779 0.1614-0.3474 0.3453-0.5 0.5312-0.1075 0.1303-0.2183 0.2653-0.3124 0.4063-0.0251 0.0383-0.0385 0.0858-0.0626 0.125-0.0647 0.103-0.1302 0.2045-0.1874 0.3124-0.1011 0.1948-0.2057 0.4158-0.2813 0.625-0.008 0.0219-0.0236 0.0406-0.0313 0.0626-0.0318 0.0919-0.0358 0.1868-0.0624 0.2812-0.0304 0.1066-0.0704 0.203-0.0938 0.3125-0.0729 0.3415-0.125 0.6985-0.125 1.0625v72c0 2.7818 2.2182 5 5 5h72c2.7818 0 5-2.2182 5-5v-72c0-0.364-0.052-0.721-0.125-1.0625-0.044-0.2069-0.088-0.3977-0.156-0.5937-0.008-0.022-0.024-0.0407-0.031-0.0626-0.063-0.1737-0.139-0.3674-0.219-0.5312-0.042-0.0828-0.079-0.17-0.125-0.25-0.055-0.0972-0.127-0.1884-0.188-0.2812-0.094-0.141-0.205-0.276-0.312-0.4063-0.143-0.1745-0.303-0.347-0.469-0.5-0.011-0.0102-0.02-0.0211-0.031-0.0313-0.139-0.1255-0.285-0.2344-0.438-0.3437-0.102-0.0731-0.204-0.1534-0.312-0.2187-0.0074-0.0045-0.02384 0.0044-0.03125 0-0.23204-0.13873-0.46255-0.27478-0.71875-0.375 0.30153 0.0968 0.59646 0.20414 0.875 0.34375 0.55709 0.27922 1.0601 0.66569 1.5 1.0938 0.21997 0.21403 0.40937 0.44186 0.59375 0.6875s0.35541 0.50774 0.5 0.78125c0.14012 0.26505 0.27614 0.52473 0.375 0.8125 0.01041 0.03078 0.02133 0.06274 0.03125 0.09375 0.09046 0.27808 0.1388 0.5794 0.1875 0.875 0.053 0.318 0.094 0.634 0.094 0.969v72c0 3.324-2.676 6-6 6h-72z"
     fill="url(#g)"
     id="path89" />
  <g
     transform="matrix(1.0770215,0,0,1.0770215,-3.6969246,-3.8686455)"
     style="display:inline"
     id="layer4">
    <path
       d="m 18.000089,43.857457 c 0,-1.180653 0.979404,-2.136636 2.180232,-2.136636 l 4.22965,0 c 0.562472,-2.111077 1.412074,-4.128219 2.485465,-5.973833 l -3.00872,-3.008727 c -0.424557,-0.424559 -0.649414,-0.933132 -0.654072,-1.482554 -0.0048,-0.549417 0.193045,-1.10874 0.610466,-1.526158 l 5.886628,-5.886633 c 0.834843,-0.834834 2.159607,-0.805502 3.008721,0.04352 l 3.008721,3.008725 c 1.845609,-1.073387 3.862754,-1.922985 5.973835,-2.48547 l 0,-4.229646 c 0,-1.200827 0.955981,-2.180234 2.136627,-2.180234 l 8.284884,0 c 1.180646,0 2.136628,0.979407 2.136628,2.180235 l 0,4.229645 c 2.111081,0.562485 4.128226,1.412083 5.973836,2.485472 l 3.008721,-3.008727 c 0.849112,-0.84911 2.173875,-0.878441 3.008719,-0.04352 l 5.886628,5.886633 c 0.834844,0.834834 0.805506,2.159603 -0.0436,3.008714 l -3.00872,3.008725 c 1.073391,1.845616 1.922992,3.862756 2.485464,5.973835 l 4.229651,0 c 1.200828,0 2.180233,0.955981 2.180233,2.136634 l 0,8.284881 c 0,1.180644 -0.979405,2.136624 -2.180232,2.136624 l -4.229651,0 c -0.562472,2.111078 -1.412073,4.128218 -2.485464,5.973835 l 3.00872,3.008725 c 0.849113,0.84911 0.878448,2.173877 0.0436,3.008724 l -5.886627,5.886621 c -0.834844,0.834835 -2.159609,0.805505 -3.00872,-0.04352 l -3.008721,-3.008711 c -1.845609,1.073384 -3.862754,1.922981 -5.973836,2.485457 l 0,4.229657 c 0,1.200817 -0.95598,2.180232 -2.136628,2.180232 l -8.284884,0 c -1.180645,0 -2.136628,-0.979415 -2.136628,-2.180232 l 0,-4.229657 c -2.11108,-0.562467 -4.128225,-1.412068 -5.973834,-2.485451 l -3.008722,3.008713 c -0.849113,0.849108 -2.173877,0.878452 -3.00872,0.04352 L 23.843111,66.27025 c -0.834843,-0.834847 -0.805507,-2.159615 0.0436,-3.008725 L 26.895433,60.2528 c -1.073391,-1.845615 -1.922994,-3.862756 -2.485466,-5.973832 l -4.22965,0 c -1.200828,0 -2.180231,-0.955982 -2.180231,-2.136625 l 0,-8.284881 z m 20.930229,4.142435 c 0,5.006518 4.063256,9.069769 9.069767,9.069769 5.00651,0 9.069766,-4.063249 9.069766,-9.069769 0,-5.006505 -4.063256,-9.069769 -9.069766,-9.069769 -5.006511,0 -9.069767,4.063263 -9.069767,9.069768 z"
       inkscape:connector-curvature="0"
       id="rect3267"
       style="opacity:0.48945151;fill:url(#linearGradient3921);fill-opacity:1;fill-rule:nonzero;stroke:none;stroke-width:1;marker:none;visibility:visible;display:block;overflow:visible;enable-background:accumulate" />
    <path
       d="m 43.84375,18 c -1.180645,0 -2.125,0.986683 -2.125,2.1875 l 0,1 c 0,-1.200817 0.944355,-2.1875 2.125,-2.1875 l 8.3125,0 c 1.180648,0 2.125,0.986683 2.125,2.1875 l 0,-1 C 54.28125,18.986683 53.336898,18 52.15625,18 l -8.3125,0 z m -12.625,5.21875 c -0.541685,-0.0091 -1.082579,0.207534 -1.5,0.625 l -5.875,5.875 c -0.546032,0.546035 -0.712161,1.304966 -0.53125,2 0.08476,-0.362825 0.244784,-0.713533 0.53125,-1 l 5.875,-5.875 C 30.553593,24.008818 31.900887,24.025892 32.75,24.875 l 3,3.03125 c 1.845609,-1.073383 3.85767,-1.937533 5.96875,-2.5 l 0,-1 c -2.11108,0.562467 -4.123141,1.426617 -5.96875,2.5 l -3,-3.03125 c -0.424557,-0.424554 -0.989565,-0.647142 -1.53125,-0.65625 z m 33.5625,0 C 64.239564,23.22785 63.674555,23.450488 63.25,23.875 l -3,3.03125 c -1.845609,-1.073384 -3.857668,-1.937524 -5.96875,-2.5 l 0,1 c 2.111082,0.562476 4.123141,1.426616 5.96875,2.5 l 3,-3.03125 c 0.849111,-0.849025 2.196406,-0.866085 3.03125,-0.03125 l 5.875,5.875 c 0.286467,0.286467 0.446492,0.637175 0.53125,1 0.180912,-0.695033 0.01479,-1.453965 -0.53125,-2 l -5.875,-5.875 c -0.417422,-0.417417 -0.958314,-0.634106 -1.5,-0.625 z M 26.5625,36.40625 c -0.903523,1.667225 -1.658515,3.444397 -2.15625,5.3125 l -4.21875,0 c -1.200828,0 -2.1875,0.944357 -2.1875,2.125 l 0,1 c 0,-1.180643 0.986672,-2.125 2.1875,-2.125 l 4.21875,0 c 0.562472,-2.111076 1.426609,-4.123135 2.5,-5.96875 L 26.5625,36.40625 z m 42.875,0 -0.34375,0.34375 c 1.073391,1.845617 1.937528,3.857672 2.5,5.96875 l 4.21875,0 c 1.200827,0 2.1875,0.944356 2.1875,2.125 l 0,-1 c 0,-1.180644 -0.986673,-2.125 -2.1875,-2.125 l -4.21875,0 C 71.096015,39.850645 70.341022,38.073476 69.4375,36.40625 z M 38.96875,48.5 c -0.0089,0.16483 -0.03125,0.332954 -0.03125,0.5 0,5.006505 4.055989,9.0625 9.0625,9.0625 5.00651,0 9.0625,-4.055995 9.0625,-9.0625 0,-0.167046 -0.02232,-0.33517 -0.03125,-0.5 -0.258742,4.775258 -4.191786,8.5625 -9.03125,8.5625 -4.839465,0 -8.772508,-3.787242 -9.03125,-8.5625 z M 26.5625,60.59375 23.875,63.25 c -0.424557,0.424559 -0.651592,0.950578 -0.65625,1.5 -0.0016,0.179795 0.05132,0.354653 0.09375,0.53125 0.09341,-0.36845 0.262657,-0.731405 0.5625,-1.03125 l 3.03125,-3 C 26.782709,61.03758 26.680016,60.810596 26.5625,60.59375 z m 42.875,0 c -0.117516,0.216846 -0.220209,0.44383 -0.34375,0.65625 l 3.03125,3 c 0.293745,0.293747 0.466811,0.663629 0.5625,1.03125 C 72.84975,64.586702 72.6827,63.807749 72.125,63.25 l -2.6875,-2.65625 z"
       inkscape:connector-curvature="0"
       id="path3921"
       style="opacity:0.3;fill:#000000;fill-opacity:1;fill-rule:nonzero;stroke:none;stroke-width:1;marker:none;visibility:visible;display:block;overflow:visible;enable-background:accumulate" />
    <path
       d="m 43.84375,18 c -1.180646,0 -2.125,0.986673 -2.125,2.1875 l 0,4.21875 c -2.111081,0.562485 -4.123141,1.426613 -5.96875,2.5 l -3,-3.03125 c -0.849114,-0.849022 -2.196407,-0.866084 -3.03125,-0.03125 l -5.875,5.875 c -0.417421,0.417418 -0.6298,0.981833 -0.625,1.53125 0.0047,0.549422 0.231693,1.075441 0.65625,1.5 l 3.03125,3 c -1.073391,1.845614 -1.937528,3.857673 -2.5,5.96875 l -4.21875,0 c -1.200828,0 -2.1875,0.944347 -2.1875,2.125 l 0,8.3125 c 0,1.180643 0.986672,2.125 2.1875,2.125 l 4.21875,0 c 0.562472,2.111076 1.426609,4.123135 2.5,5.96875 l -3.03125,3 c -0.849107,0.84911 -0.866093,2.196403 -0.03125,3.03125 l 5.875,5.875 c 0.834843,0.834932 2.182137,0.817858 3.03125,-0.03125 l 3,-3.03125 c 1.845609,1.073383 3.85767,1.937533 5.96875,2.5 l 0,4.21875 c 0,1.200817 0.944355,2.1875 2.125,2.1875 l 8.3125,0 c 1.180648,0 2.125,-0.986683 2.125,-2.1875 l 0,-4.21875 c 2.111082,-0.562476 4.123141,-1.426616 5.96875,-2.5 l 3,3.03125 c 0.849111,0.849025 2.196406,0.866085 3.03125,0.03125 l 5.875,-5.875 C 72.991098,65.446403 72.974113,64.09911 72.125,63.25 l -3.03125,-3 c 1.073391,-1.845617 1.937528,-3.857672 2.5,-5.96875 l 4.21875,0 c 1.200827,0 2.1875,-0.944356 2.1875,-2.125 l 0,-8.3125 c 0,-1.180653 -0.986672,-2.125 -2.1875,-2.125 l -4.21875,0 c -0.562472,-2.111079 -1.426609,-4.123134 -2.5,-5.96875 l 3.03125,-3 c 0.849106,-0.849111 0.866094,-2.196416 0.03125,-3.03125 l -5.875,-5.875 C 65.446406,23.008829 64.099112,23.02589 63.25,23.875 l -3,3.03125 c -1.84561,-1.073389 -3.857669,-1.937515 -5.96875,-2.5 l 0,-4.21875 C 54.28125,18.986672 53.336896,18 52.15625,18 l -8.3125,0 z m 0,2.03125 8.3125,0 c 0.04194,0 0.09375,0.02697 0.09375,0.15625 l 0,4.21875 a 2.0440505,2.0440505 0 0 0 1.5,1.96875 c 1.920061,0.511589 3.769099,1.323999 5.46875,2.3125 a 2.0440505,2.0440505 0 0 0 2.46875,-0.34375 l 3,-3.03125 c 0.09441,-0.09441 0.108657,-0.07885 0.15625,-0.03125 l 5.875,5.875 c 0.04758,0.04758 0.06311,0.06189 -0.03125,0.15625 l -3.03125,3 a 2.0440505,2.0440505 0 0 0 -0.34375,2.46875 c 0.988507,1.699665 1.800927,3.548706 2.3125,5.46875 a 2.0440505,2.0440505 0 0 0 1.96875,1.5 l 4.21875,0 c 0.12929,0 0.15625,0.05179 0.15625,0.09375 l 0,8.3125 c 0,0.04194 -0.02697,0.09375 -0.15625,0.09375 l -4.21875,0 a 2.0440505,2.0440505 0 0 0 -1.96875,1.5 c -0.511573,1.920043 -1.323993,3.769084 -2.3125,5.46875 a 2.0440505,2.0440505 0 0 0 0.34375,2.46875 l 3.03125,3 c 0.09437,0.09437 0.07886,0.108644 0.03125,0.15625 l -5.875,5.875 C 64.7962,70.7663 64.78187,70.78186 64.6875,70.6875 l -3,-3.03125 A 2.0440505,2.0440505 0 0 0 59.21875,67.3125 C 57.519091,68.301001 55.670048,69.113423 53.75,69.625 a 2.0440505,2.0440505 0 0 0 -1.5,1.96875 l 0,4.21875 c 0,0.129263 -0.05181,0.15625 -0.09375,0.15625 l -8.3125,0 c -0.04193,0 -0.09375,-0.02699 -0.09375,-0.15625 l 0,-4.21875 A 2.0440505,2.0440505 0 0 0 42.25,69.625 c -1.920035,-0.511566 -3.769087,-1.323997 -5.46875,-2.3125 a 2.0440505,2.0440505 0 0 0 -2.46875,0.34375 l -3,3.03125 c -0.09442,0.09442 -0.108661,0.07884 -0.15625,0.03125 l -5.875,-5.875 c -0.0476,-0.0476 -0.06311,-0.06189 0.03125,-0.15625 l 3.03125,-3 A 2.0440505,2.0440505 0 0 0 28.6875,59.21875 C 27.698994,57.519088 26.886573,55.670042 26.375,53.75 a 2.0440505,2.0440505 0 0 0 -1.96875,-1.5 l -4.21875,0 c -0.129278,0 -0.15625,-0.05181 -0.15625,-0.09375 l 0,-8.3125 c 0,-0.04196 0.02696,-0.09375 0.15625,-0.09375 l 4.21875,0 a 2.0440505,2.0440505 0 0 0 1.96875,-1.5 c 0.511573,-1.920043 1.323994,-3.769089 2.3125,-5.46875 A 2.0440505,2.0440505 0 0 0 28.34375,34.3125 l -3.03125,-3 c -0.08531,-0.08531 -0.06252,-0.09625 -0.0625,-0.09375 -9.2e-5,-0.01055 0.02011,-0.05137 0.03125,-0.0625 l 5.875,-5.875 c 0.04755,-0.04755 0.06187,-0.06312 0.15625,0.03125 l 3,3.03125 a 2.0440505,2.0440505 0 0 0 2.46875,0.34375 C 38.480901,27.699 40.32994,26.886589 42.25,26.375 a 2.0440505,2.0440505 0 0 0 1.5,-1.96875 l 0,-4.21875 c 0,-0.12928 0.05181,-0.15625 0.09375,-0.15625 z M 48,36.90625 c -6.110384,0 -11.09375,4.983372 -11.09375,11.09375 0,6.110388 4.983369,11.09375 11.09375,11.09375 6.110379,0 11.09375,-4.98336 11.09375,-11.09375 0,-6.110378 -4.983367,-11.09375 -11.09375,-11.09375 z m 0,2.03125 c 5.00651,0 9.0625,4.055995 9.0625,9.0625 0,5.00652 -4.05599,9.0625 -9.0625,9.0625 -5.006511,0 -9.0625,-4.055982 -9.0625,-9.0625 0,-5.006505 4.055989,-9.0625 9.0625,-9.0625 z"
       inkscape:connector-curvature="0"
       id="path3948"
       style="opacity:0.1;fill:#000000;fill-opacity:1;fill-rule:nonzero;stroke:none;stroke-width:1;marker:none;visibility:visible;display:block;overflow:visible;enable-background:accumulate" />
    <path
       d="m 43.84375,18 c -1.180646,0 -2.125,0.986673 -2.125,2.1875 l 0,4.21875 c -2.111081,0.562485 -4.123141,1.426613 -5.96875,2.5 l -3,-3.03125 c -0.849114,-0.849022 -2.196407,-0.866084 -3.03125,-0.03125 l -5.875,5.875 c -0.417421,0.417418 -0.6298,0.981833 -0.625,1.53125 0.0047,0.549422 0.231693,1.075441 0.65625,1.5 l 3.03125,3 c -1.073391,1.845614 -1.937528,3.857673 -2.5,5.96875 l -4.21875,0 c -1.200828,0 -2.1875,0.944347 -2.1875,2.125 l 0,8.3125 c 0,1.180643 0.986672,2.125 2.1875,2.125 l 4.21875,0 c 0.562472,2.111076 1.426609,4.123135 2.5,5.96875 l -3.03125,3 c -0.849107,0.84911 -0.866093,2.196403 -0.03125,3.03125 l 5.875,5.875 c 0.834843,0.834932 2.182137,0.817858 3.03125,-0.03125 l 3,-3.03125 c 1.845609,1.073383 3.85767,1.937533 5.96875,2.5 l 0,4.21875 c 0,1.200817 0.944355,2.1875 2.125,2.1875 l 8.3125,0 c 1.180648,0 2.125,-0.986683 2.125,-2.1875 l 0,-4.21875 c 2.111082,-0.562476 4.123141,-1.426616 5.96875,-2.5 l 3,3.03125 c 0.849111,0.849025 2.196406,0.866085 3.03125,0.03125 l 5.875,-5.875 C 72.991098,65.446403 72.974113,64.09911 72.125,63.25 l -3.03125,-3 c 1.073391,-1.845617 1.937528,-3.857672 2.5,-5.96875 l 4.21875,0 c 1.200827,0 2.1875,-0.944356 2.1875,-2.125 l 0,-8.3125 c 0,-1.180653 -0.986672,-2.125 -2.1875,-2.125 l -4.21875,0 c -0.562472,-2.111079 -1.426609,-4.123134 -2.5,-5.96875 l 3.03125,-3 c 0.849106,-0.849111 0.866094,-2.196416 0.03125,-3.03125 l -5.875,-5.875 C 65.446406,23.008829 64.099112,23.02589 63.25,23.875 l -3,3.03125 c -1.84561,-1.073389 -3.857669,-1.937515 -5.96875,-2.5 l 0,-4.21875 C 54.28125,18.986672 53.336896,18 52.15625,18 l -8.3125,0 z m 0,0.96875 8.3125,0 c 0.638407,0 1.15625,0.528182 1.15625,1.21875 l 0,4.21875 a 0.97335743,0.97335743 0 0 0 0.71875,0.9375 c 2.020119,0.538249 3.942644,1.373284 5.71875,2.40625 a 0.97335743,0.97335743 0 0 0 1.1875,-0.15625 l 3,-3.03125 c 0.48973,-0.489729 1.196288,-0.491255 1.65625,-0.03125 l 5.875,5.875 c 0.459955,0.459949 0.458453,1.166544 -0.03125,1.65625 l -3.03125,3 A 0.97335743,0.97335743 0 0 0 68.25,36.25 c 1.03297,1.776115 1.868016,3.69864 2.40625,5.71875 a 0.97335743,0.97335743 0 0 0 0.9375,0.71875 l 4.21875,0 c 0.690572,0 1.21875,0.517833 1.21875,1.15625 l 0,8.3125 c 0,0.638404 -0.528185,1.15625 -1.21875,1.15625 l -4.21875,0 a 0.97335743,0.97335743 0 0 0 -0.9375,0.71875 C 70.118016,56.051359 69.28297,57.973884 68.25,59.75 a 0.97335743,0.97335743 0 0 0 0.15625,1.1875 l 3.03125,3 c 0.48971,0.489708 0.491221,1.19628 0.03125,1.65625 l -5.875,5.875 c -0.459943,0.459938 -1.166539,0.458411 -1.65625,-0.03125 l -3,-3.03125 A 0.97335743,0.97335743 0 0 0 59.75,68.25 c -1.776109,1.032964 -3.698637,1.868012 -5.71875,2.40625 a 0.97335743,0.97335743 0 0 0 -0.71875,0.9375 l 0,4.21875 c 0,0.690553 -0.517846,1.21875 -1.15625,1.21875 l -8.3125,0 c -0.638399,0 -1.15625,-0.528198 -1.15625,-1.21875 l 0,-4.21875 a 0.97335743,0.97335743 0 0 0 -0.71875,-0.9375 C 39.948644,70.118022 38.026111,69.282964 36.25,68.25 a 0.97335743,0.97335743 0 0 0 -1.1875,0.15625 l -3,3.03125 c -0.489735,0.489732 -1.19629,0.491259 -1.65625,0.03125 l -5.875,-5.875 C 24.071283,65.133781 24.072794,64.427207 24.5625,63.9375 l 3.03125,-3 A 0.97335743,0.97335743 0 0 0 27.75,59.75 c -1.03297,-1.776114 -1.868016,-3.698643 -2.40625,-5.71875 a 0.97335743,0.97335743 0 0 0 -0.9375,-0.71875 l -4.21875,0 c -0.690566,0 -1.21875,-0.517847 -1.21875,-1.15625 l 0,-8.3125 c 0,-0.638417 0.528178,-1.15625 1.21875,-1.15625 l 4.21875,0 a 0.97335743,0.97335743 0 0 0 0.9375,-0.71875 C 25.881984,39.948642 26.71703,38.026112 27.75,36.25 a 0.97335743,0.97335743 0 0 0 -0.15625,-1.1875 l -3.03125,-3 c -0.26301,-0.263011 -0.37257,-0.5259 -0.375,-0.8125 -0.0026,-0.292812 0.119798,-0.6198 0.34375,-0.84375 l 5.875,-5.875 c 0.459941,-0.459936 1.166535,-0.458412 1.65625,0.03125 l 3,3.03125 A 0.97335743,0.97335743 0 0 0 36.25,27.75 c 1.776105,-1.032964 3.698631,-1.868001 5.71875,-2.40625 a 0.97335743,0.97335743 0 0 0 0.71875,-0.9375 l 0,-4.21875 c 0,-0.690566 0.517844,-1.21875 1.15625,-1.21875 z m 4.15625,19 c -5.532165,0 -10.03125,4.499091 -10.03125,10.03125 0,5.53217 4.499087,10.03125 10.03125,10.03125 5.532162,0 10.03125,-4.499078 10.03125,-10.03125 0,-5.532159 -4.499086,-10.03125 -10.03125,-10.03125 z m 0,0.96875 c 5.00651,0 9.0625,4.055995 9.0625,9.0625 0,5.00652 -4.05599,9.0625 -9.0625,9.0625 -5.006511,0 -9.0625,-4.055982 -9.0625,-9.0625 0,-5.006505 4.055989,-9.0625 9.0625,-9.0625 z"
       inkscape:connector-curvature="0"
       id="path3944"
       style="opacity:0.15;fill:#000000;fill-opacity:1;fill-rule:nonzero;stroke:none;stroke-width:1;marker:none;visibility:visible;display:block;overflow:visible;enable-background:accumulate" />
    <path
       d="m 23.3125,31.71875 c -0.16225,0.694552 0.0048,1.473501 0.5625,2.03125 l 2.6875,2.65625 c 0.117516,-0.216846 0.220209,-0.44383 0.34375,-0.65625 l -3.03125,-3 c -0.293745,-0.293746 -0.466812,-0.663629 -0.5625,-1.03125 z m 49.375,0 C 72.59181,32.086371 72.418747,32.456254 72.125,32.75 l -3.03125,3 c 0.123541,0.21242 0.226234,0.439404 0.34375,0.65625 L 72.125,33.75 c 0.557751,-0.557749 0.724751,-1.336699 0.5625,-2.03125 z M 48,38.9375 c -5.006511,0 -9.0625,4.055982 -9.0625,9.0625 0,0.167046 0.02232,0.33517 0.03125,0.5 0.258742,-4.775269 4.191785,-8.5625 9.03125,-8.5625 4.839464,0 8.772508,3.787229 9.03125,8.5625 0.0089,-0.16483 0.03125,-0.332954 0.03125,-0.5 0,-5.00652 -4.05599,-9.0625 -9.0625,-9.0625 z m -30,13.21875 0,1 c 0,1.180653 0.986672,2.125 2.1875,2.125 l 4.21875,0 c 0.497735,1.868104 1.252727,3.645276 2.15625,5.3125 L 26.90625,60.25 c -1.073391,-1.845614 -1.937528,-3.857673 -2.5,-5.96875 l -4.21875,0 C 18.986672,54.28125 18,53.336903 18,52.15625 z m 60,0 c 0,1.180653 -0.986672,2.125 -2.1875,2.125 l -4.21875,0 c -0.562472,2.111079 -1.426609,4.123134 -2.5,5.96875 l 0.34375,0.34375 c 0.903522,-1.667225 1.658515,-3.444394 2.15625,-5.3125 l 4.21875,0 c 1.200828,0 2.1875,-0.944347 2.1875,-2.125 l 0,-1 z m -54.6875,13.125 c -0.03885,0.153249 -0.09238,0.307357 -0.09375,0.46875 -0.0048,0.549417 0.207579,1.113832 0.625,1.53125 l 5.875,5.875 c 0.834843,0.834834 2.182136,0.817772 3.03125,-0.03125 l 3,-3.03125 c 1.845609,1.073387 3.857669,1.937515 5.96875,2.5 l 0,-1 c -2.111081,-0.562485 -4.123141,-1.426613 -5.96875,-2.5 l -3,3.03125 c -0.849114,0.849022 -2.196407,0.866084 -3.03125,0.03125 l -5.875,-5.875 c -0.280821,-0.280819 -0.444032,-0.636954 -0.53125,-1 z m 49.375,0 c -0.08476,0.362824 -0.244784,0.713537 -0.53125,1 l -5.875,5.875 C 65.446406,72.991171 64.099112,72.97411 63.25,72.125 l -3,-3.03125 c -1.84561,1.073389 -3.857669,1.937515 -5.96875,2.5 l 0,1 c 2.111081,-0.562485 4.12314,-1.426611 5.96875,-2.5 l 3,3.03125 c 0.849112,0.84911 2.196406,0.866171 3.03125,0.03125 l 5.875,-5.875 c 0.546033,-0.546027 0.712161,-1.304967 0.53125,-2 z m -30.96875,10.53125 0,1 c 0,1.200827 0.944354,2.1875 2.125,2.1875 l 8.3125,0 c 1.180646,0 2.125,-0.986672 2.125,-2.1875 l 0,-1 c 0,1.200828 -0.944354,2.1875 -2.125,2.1875 l -8.3125,0 c -1.180646,0 -2.125,-0.986673 -2.125,-2.1875 z"
       inkscape:connector-curvature="0"
       id="path3930"
       style="fill:#ffffff;fill-opacity:1;fill-rule:nonzero;stroke:none;stroke-width:1;marker:none;visibility:visible;display:block;overflow:visible;enable-background:accumulate" />
  </g>
</svg>
